<svg width="18" height="18" viewBox="0 0 18 18" fill="none" xmlns="http://www.w3.org/2000/svg">
<g>
<path d="M17.4693 16.9438H16.942V13.7452H13.7786V16.9438H11.6696V14.7996H12.1969C12.4883 14.7996 12.7241 14.5638 12.7241 14.2724V13.2179C12.7241 12.3457 12.0146 11.6362 11.1424 11.6362H10.6151V10.5817H11.1424C11.4338 10.5817 11.6696 10.3459 11.6696 10.0545V7.94555C11.6696 7.07335 10.9601 6.36383 10.0879 6.36383H2.63619C1.764 6.36383 1.05448 7.07335 1.05448 7.94555V10.0545C1.05448 10.3459 1.2903 10.5817 1.58171 10.5817H2.10895V11.6362H1.58171C0.709523 11.6362 0 12.3457 0 13.2179V14.2724C0 14.5638 0.235828 14.7996 0.527238 14.7996H1.05448V16.9438H0.527238C0.235828 16.9438 0 17.1796 0 17.471C0 17.7625 0.235828 17.9983 0.527238 17.9983C6.38996 17.9983 10.6029 17.9983 17.4693 17.9983C17.7607 17.9983 17.9965 17.7624 17.9965 17.471C17.9965 17.1796 17.7607 16.9438 17.4693 16.9438ZM3.16347 10.5817H9.56067V11.6362H3.16347V10.5817ZM10.6151 16.9438H2.10895V14.7996H10.6151V16.9438H10.6151Z" fill="#66B5F0"/>
<path d="M17.9409 2.40213L16.8864 0.29318C16.7968 0.114516 16.6146 0.00177002 16.4148 0.00177002H14.3059C14.1061 0.00177002 13.9238 0.114516 13.8342 0.29318L12.7798 2.40213C12.6131 2.7345 12.7998 3.1652 13.3321 3.1652L13.6391 5.04209C13.7452 5.68112 14.2273 6.15288 14.8331 6.29839V10.6788C14.2207 10.8972 13.7786 11.477 13.7786 12.1634V12.6907H16.9421V12.1634C16.9421 11.477 16.5 10.8972 15.8876 10.6788V6.29839C16.4935 6.15288 16.9755 5.68116 17.0816 5.04209L17.3886 3.1652C17.9338 3.1652 18.1036 2.72659 17.9409 2.40213ZM16.0415 4.86912C15.9993 5.12396 15.7805 5.30934 15.5215 5.30934H15.1992C14.9402 5.30934 14.7214 5.124 14.6792 4.86912L14.4011 3.1652H16.3196L16.0415 4.86912Z" fill="#66B5F0"/>
</g>

</svg>
