<svg width="24" height="24" viewBox="0 0 24 24" fill="none" xmlns="http://www.w3.org/2000/svg">
<path d="M23 13.1792H1C0.447998 13.1792 0 12.6865 0 12.0792C0 11.472 0.447998 10.9792 1 10.9792H23C23.552 10.9792 24 11.472 24 12.0792C24 12.6865 23.552 13.1792 23 13.1792Z" fill="#fff"/>
<path d="M23 6.5125H1C0.447998 6.5125 0 6.0197 0 5.4125C0 4.8053 0.447998 4.3125 1 4.3125H23C23.552 4.3125 24 4.8053 24 5.4125C24 6.0197 23.552 6.5125 23 6.5125Z" fill="#fff"/>
<path d="M23 19.8458H1C0.447998 19.8458 0 19.353 0 18.7458C0 18.1385 0.447998 17.6458 1 17.6458H23C23.552 17.6458 24 18.1385 24 18.7458C24 19.353 23.552 19.8458 23 19.8458Z" fill="#fff"/>
</svg>
