<svg width="18" height="18" viewBox="0 0 18 18" fill="none" xmlns="http://www.w3.org/2000/svg">
<path d="M16.6142 2.4743H15.4065V3.54495C15.4065 4.31073 14.7861 4.93079 14.0207 4.93079C13.2549 4.93079 12.6348 4.31073 12.6348 3.54495V2.4743H10.3858V3.54495C10.3858 4.31073 9.76617 4.93079 9 4.93079C8.23383 4.93079 7.61417 4.31073 7.61417 3.54495V2.4743H5.36516V3.54495C5.36516 4.31073 4.74509 4.93079 3.97932 4.93079C3.21395 4.93079 2.59349 4.31073 2.59349 3.54495V2.4743H1.38583C1.01839 2.4743 0.665992 2.62001 0.405851 2.87975C0.146106 3.1399 0 3.49229 0 3.86013V15.6995C0 16.4653 0.620458 17.0853 1.38583 17.0853H16.6142C17.3803 17.0853 18 16.4653 18 15.6995V3.86013C18 3.09476 17.3803 2.4743 16.6142 2.4743ZM15.2283 6.85393V8.86339H12.6135V6.85393H15.2283ZM6.0062 9.48306H8.68997V11.3884H6.0062V9.48306ZM5.38693 11.3876H2.77206V9.48226H5.38733L5.38693 11.3876ZM8.69036 12.0073V14.3137H6.0066V12.0073H8.69036ZM9.31043 12.0073H11.9934V14.3137H9.31043V12.0073ZM9.31043 11.3876V9.48226H11.9934V11.3876H9.31043ZM12.6131 9.48306H15.2279V11.3884H12.6131V9.48306ZM11.9942 6.85393V8.86339H9.31043V6.85393H11.9942ZM8.69036 6.85393V8.86339H6.0066V6.85353L8.69036 6.85393ZM5.38693 6.85353V8.86339H2.77206V6.85353H5.38693ZM2.77206 12.0073H5.38733V14.3137H2.77206V12.0073ZM12.6131 14.3137V12.0073H15.2279V14.3137H12.6131ZM3.18742 3.54495V1.70655C3.18742 1.26942 3.54219 0.914642 3.97932 0.914642C4.41685 0.914642 4.77123 1.26942 4.77123 1.70655V3.54495C4.77123 3.98209 4.41685 4.33686 3.97932 4.33686C3.54259 4.33686 3.18742 3.98209 3.18742 3.54495ZM8.20809 3.54495V1.70655C8.20809 1.26942 8.56287 0.914642 9 0.914642C9.43713 0.914642 9.79191 1.26942 9.79191 1.70655V3.54495C9.79191 3.98209 9.43713 4.33686 9 4.33686C8.56287 4.33686 8.20809 3.98209 8.20809 3.54495ZM13.2292 3.54495V1.70655C13.2292 1.26942 13.5839 0.914642 14.0211 0.914642C14.4582 0.914642 14.813 1.26942 14.813 1.70655V3.54495C14.813 3.98209 14.4582 4.33686 14.0211 4.33686C13.5831 4.33686 13.2292 3.98209 13.2292 3.54495Z" fill="#0084E6"/>
</svg>
