<svg width="16" height="12" viewBox="0 0 16 12" fill="none" xmlns="http://www.w3.org/2000/svg">
	<path d="M15.7492 7.75427V5.62155C15.7492 5.15237 15.5275 4.468 14.504 3.81129C14.504 3.81129 13.1525 0.866852 10.7473 0.866852H5.25308C2.84791 0.866852 1.49626 3.81129 1.49626 3.81129C0.472745 4.468 0.251021 5.15237 0.251021 5.62155V7.75427C0.111256 7.76192 0 7.87761 0 8.0194V9.37677C0 9.4928 0.0750139 9.58828 0.178425 9.62453V10.8673C0.178425 11.0141 0.297188 11.1331 0.444095 11.1331H2.27387C2.42074 11.1331 2.53945 11.0141 2.53945 10.8673V9.63698C3.29164 9.38843 4.04926 9.20863 4.79574 9.08478H11.2048C11.9512 9.2086 12.7085 9.38843 13.4611 9.63698V10.8673C13.4611 11.0141 13.5795 11.1331 13.7264 11.1331H15.5564C15.703 11.1331 15.8218 11.0141 15.8218 10.8673V9.62453C15.9252 9.58831 16 9.4926 16 9.37677V8.0194C16 7.87761 15.8888 7.76192 15.7492 7.75427ZM4.00208 7.87469H2.03612C1.7398 7.87469 1.49845 7.63331 1.49845 7.33742V6.79984C1.49845 6.50355 1.73986 6.26231 2.03612 6.26231C2.06718 6.26231 2.09811 6.2676 2.12732 6.27842L4.36205 7.08479C4.46892 7.12337 4.53946 7.22428 4.53946 7.3377C4.53946 7.63331 4.29842 7.87469 4.00208 7.87469ZM9.84085 7.73324C9.84085 7.84705 9.7486 7.93916 9.63493 7.93916H6.36566C6.25174 7.93916 6.15974 7.84705 6.15974 7.73324V7.25265C6.15974 7.13878 6.25179 7.04672 6.36566 7.04672H9.63493C9.74897 7.04672 9.84085 7.13878 9.84085 7.25265V7.73324ZM2.89501 3.87227C3.43124 2.93738 4.35314 1.74208 5.56174 1.74208H10.4381C11.6466 1.74208 12.5689 2.93738 13.105 3.87227H2.89501ZM14.5019 7.33688C14.5019 7.63331 14.2606 7.87463 13.9641 7.87463H11.9982C11.7017 7.87463 11.4605 7.63331 11.4605 7.33688C11.4605 7.22343 11.5317 7.1225 11.6383 7.08367L13.8728 6.27755C13.9026 6.26667 13.9328 6.26144 13.9641 6.26144C14.2607 6.26144 14.5019 6.50273 14.5019 6.79896V7.33688Z" fill="#A8AAB3" />
</svg>
