<svg width="16" height="10" viewBox="0 0 16 10" fill="none" xmlns="http://www.w3.org/2000/svg">
	<path d="M8 0.231262C4.94303 0.231262 2.17081 1.90376 0.125192 4.62034C-0.0417306 4.8429 -0.0417306 5.15384 0.125192 5.3764C2.17081 8.09625 4.94303 9.76875 8 9.76875C11.057 9.76875 13.8292 8.09625 15.8748 5.37967C16.0417 5.15711 16.0417 4.84618 15.8748 4.62361C13.8292 1.90376 11.057 0.231262 8 0.231262ZM8.21929 8.35809C6.19004 8.48574 4.51427 6.81324 4.64191 4.78071C4.74665 3.10495 6.10494 1.74666 7.78071 1.64192C9.80996 1.51427 11.4857 3.18677 11.3581 5.2193C11.2501 6.89179 9.89179 8.25008 8.21929 8.35809ZM8.11783 6.80669C7.02465 6.87543 6.1213 5.97536 6.19331 4.88218C6.24895 3.97883 6.9821 3.24896 7.88545 3.19004C8.97862 3.12131 9.88197 4.02138 9.80996 5.11456C9.75105 6.02118 9.0179 6.75105 8.11783 6.80669Z" fill="#fff" />
</svg>
