<svg width="16" height="16" viewBox="0 0 16 16" fill="none" xmlns="http://www.w3.org/2000/svg">
	<g>
		<path d="M13.625 7.53126H13.1563V3.12501L13.4447 3.2452C13.6841 3.34495 13.9583 3.2313 14.0577 2.9928C14.1573 2.75383 14.0443 2.47939 13.8053 2.37983L8.1803 0.0360774C8.06493 -0.0119851 7.93512 -0.0119851 7.81974 0.0360774L2.19474 2.37983C1.95577 2.47939 1.84277 2.75383 1.94233 2.9928C2.0419 3.23176 2.31637 3.3448 2.5553 3.2452L2.84377 3.12501V7.53126H2.37502C2.11615 7.53126 1.90627 7.74114 1.90627 8.00001V9.40627H14.0938V8.00001C14.0938 7.74114 13.8839 7.53126 13.625 7.53126ZM7.53127 7.53126H6.59377V4.71876H5.65627V7.53126H4.71877V4.25001C4.71877 3.99114 4.92865 3.78126 5.18752 3.78126H7.06252C7.3214 3.78126 7.53127 3.99114 7.53127 4.25001V7.53126ZM11.2813 6.12501C11.2813 6.38389 11.0714 6.59376 10.8125 6.59376H8.93752C8.67865 6.59376 8.46877 6.38389 8.46877 6.12501V4.25001C8.46877 3.99114 8.67865 3.78126 8.93752 3.78126H10.8125C11.0714 3.78126 11.2813 3.99114 11.2813 4.25001V6.12501Z" fill="#A8AAB3" />
		<path d="M9.40625 4.71875H10.3438V5.65625H9.40625V4.71875Z" fill="#A8AAB3" />
		<path d="M9.40625 12.2188H10.3438V13.1562H9.40625V12.2188Z" fill="#A8AAB3" />
		<path d="M13.625 15.0625H13.1562V10.3438H2.84375V15.0625H2.375C2.11612 15.0625 1.90625 15.2724 1.90625 15.5312C1.90625 15.7901 2.11612 16 2.375 16H13.625C13.8839 16 14.0938 15.7901 14.0938 15.5312C14.0938 15.2724 13.8839 15.0625 13.625 15.0625ZM7.53125 15.0625H6.59375V12.2188H5.65625V15.0625H4.71875V11.75C4.71875 11.4911 4.92863 11.2812 5.1875 11.2812H7.0625C7.32137 11.2812 7.53125 11.4911 7.53125 11.75V15.0625ZM11.2812 13.625C11.2812 13.8839 11.0714 14.0938 10.8125 14.0938H8.9375C8.67863 14.0938 8.46875 13.8839 8.46875 13.625V11.75C8.46875 11.4911 8.67863 11.2812 8.9375 11.2812H10.8125C11.0714 11.2812 11.2812 11.4911 11.2812 11.75V13.625Z" fill="#A8AAB3" />
	</g>
</svg>
