<svg width="18" height="18" viewBox="0 0 18 18" fill="none" xmlns="http://www.w3.org/2000/svg">
<g>
<path d="M1.61719 12.1992C1.61719 15.3978 4.21942 18 7.41797 18C10.6165 18 13.2188 15.3978 13.2188 12.1992C13.2188 10.886 12.7676 9.56391 11.9483 8.54114L7.41797 2.88303L2.88766 8.54114C2.06831 9.56391 1.61719 10.886 1.61719 12.1992ZM4.78125 12.1992C4.78125 13.653 5.96415 14.8359 7.41797 14.8359V15.8906C5.38274 15.8906 3.72656 14.2345 3.72656 12.1992H4.78125Z" fill="#3EA849"/>
<path d="M13.7461 6.89062C15.1999 6.89062 16.3828 5.70772 16.3828 4.25391C16.3828 3.64778 16.1835 3.0787 15.8065 2.60852L13.7461 0L11.6857 2.60852C11.3087 3.0787 11.1094 3.64778 11.1094 4.25391C11.1094 5.70772 12.2923 6.89062 13.7461 6.89062Z" fill="#3EA849"/>
</g>

</svg>
