<svg width="16" height="14" viewBox="0 0 16 14" fill="none" xmlns="http://www.w3.org/2000/svg">
<path d="M15.8462 8.06236L12.3121 4.52809V2.19732C12.3121 1.907 12.0763 1.67142 11.786 1.67142C11.4957 1.67142 11.2601 1.907 11.2601 2.19732V3.47679L8.76662 0.983082C8.56122 0.777937 8.22844 0.777937 8.02355 0.983082L4.76093 4.24544C4.55528 4.45059 4.55528 4.78363 4.76093 4.98903C4.96633 5.19417 5.29912 5.19417 5.50401 4.98903L8.3947 2.09859L15.1023 8.80595C15.2051 8.90826 15.3397 8.96019 15.474 8.96019C15.6088 8.96019 15.7436 8.90877 15.8459 8.80595C16.0518 8.6008 16.0518 8.26776 15.8462 8.06236Z" fill="white"/>
<path d="M14.3417 8.66624L8.76618 3.09101C8.66771 2.99227 8.53418 2.93677 8.39452 2.93677C8.25511 2.93677 8.12185 2.99227 8.02311 3.09101L5.88086 5.23326C7.29897 5.94052 8.31446 7.33484 8.48942 8.97984C8.92298 9.06629 9.2463 9.44896 9.2463 9.90171V11.9C9.2463 12.2202 9.36704 12.5261 9.58548 12.7627C9.82542 13.0221 10.1654 13.171 10.5178 13.171H13.2392C13.9396 13.171 14.5102 12.6008 14.5102 11.9V9.17961C14.5102 9.0998 14.5028 9.01872 14.4867 8.93865C14.4667 8.83506 14.4161 8.74042 14.3417 8.66624Z" fill="white"/>
<path d="M3.98114 5.20874C1.7821 5.20874 0 6.99161 0 9.18988C0 11.3887 1.78235 13.1708 3.98114 13.1708C6.17992 13.1708 7.96227 11.3881 7.96227 9.19013C7.96253 6.99135 6.18017 5.20874 3.98114 5.20874ZM5.28542 9.84752H4.63852V10.4936C4.63852 10.8569 4.34436 11.1505 3.98139 11.1505C3.61817 11.1505 3.32426 10.8569 3.32426 10.4936V9.84752H2.67737C2.3144 9.84752 2.02024 9.55336 2.02024 9.19039C2.02024 8.82742 2.3144 8.53326 2.67737 8.53326H3.32426V7.88713C3.32426 7.52442 3.61817 7.23 3.98139 7.23C4.34436 7.23 4.63852 7.52442 4.63852 7.88713V8.53326H5.28542C5.64838 8.53326 5.94229 8.82742 5.94229 9.19039C5.94229 9.55336 5.64838 9.84752 5.28542 9.84752Z" fill="white"/>
</svg>
