<svg width="18" height="18" viewBox="0 0 18 18" fill="none" xmlns="http://www.w3.org/2000/svg">
<g>
<path d="M9.00012 1.74194C9.48114 1.74194 9.87109 1.35199 9.87109 0.870968C9.87109 0.389946 9.48114 0 9.00012 0C8.5191 0 8.12915 0.389946 8.12915 0.870968C8.12915 1.35199 8.5191 1.74194 9.00012 1.74194Z" fill="#000"/>
<path opacity="0.4" d="M9.00012 18C9.48114 18 9.87109 17.61 9.87109 17.129C9.87109 16.648 9.48114 16.2581 9.00012 16.2581C8.5191 16.2581 8.12915 16.648 8.12915 17.129C8.12915 17.61 8.5191 18 9.00012 18Z" fill="#000"/>
<path opacity="0.9" d="M4.93542 2.81615C5.41644 2.81615 5.80639 2.42621 5.80639 1.94519C5.80639 1.46416 5.41644 1.07422 4.93542 1.07422C4.4544 1.07422 4.06445 1.46416 4.06445 1.94519C4.06445 2.42621 4.4544 2.81615 4.93542 2.81615Z" fill="#000"/>
<path opacity="0.3" d="M13.8192 15.6194C14.0515 16.0259 13.9063 16.5484 13.4999 16.8097C13.0934 17.042 12.5709 16.8968 12.3096 16.4904C12.0773 16.0839 12.2225 15.5613 12.6289 15.3001C13.0354 15.0678 13.587 15.213 13.8192 15.6194Z" fill="#000"/>
<path opacity="0.8" d="M2.38051 4.1807C2.78696 4.41296 2.93213 4.93554 2.69987 5.37103C2.46761 5.77748 1.94503 5.92264 1.50955 5.69038C1.10309 5.45812 0.957932 4.93554 1.19019 4.50006C1.42245 4.06457 1.97406 3.94845 2.38051 4.1807Z" fill="#000"/>
<path opacity="0.2" d="M16.4904 12.3096C16.8968 12.5418 17.042 13.0644 16.8097 13.4999C16.5775 13.9063 16.0549 14.0515 15.6194 13.8192C15.213 13.587 15.0678 13.0644 15.3001 12.6289C15.5323 12.2225 16.0549 12.0773 16.4904 12.3096Z" fill="#000"/>
<path opacity="0.7" d="M0.870968 9.87109C1.35199 9.87109 1.74194 9.48114 1.74194 9.00012C1.74194 8.5191 1.35199 8.12915 0.870968 8.12915C0.389946 8.12915 0 8.5191 0 9.00012C0 9.48114 0.389946 9.87109 0.870968 9.87109Z" fill="#000"/>
<path opacity="0.1" d="M17.129 9.87109C17.61 9.87109 18 9.48114 18 9.00012C18 8.5191 17.61 8.12915 17.129 8.12915C16.648 8.12915 16.2581 8.5191 16.2581 9.00012C16.2581 9.48114 16.648 9.87109 17.129 9.87109Z" fill="#000"/>
<path opacity="0.6" d="M1.50975 12.3096C1.9162 12.0773 2.43878 12.2225 2.70007 12.6289C2.93233 13.0354 2.78717 13.558 2.38071 13.8192C1.97426 14.0515 1.45168 13.9063 1.19039 13.4999C0.929101 13.0934 1.10329 12.5709 1.50975 12.3096Z" fill="#000"/>
<path d="M15.6194 4.18067C16.0259 3.94841 16.5484 4.09357 16.8097 4.50002C17.042 4.90647 16.8968 5.42905 16.4904 5.69034C16.0839 5.9226 15.5613 5.77744 15.3001 5.37099C15.0678 4.96454 15.213 4.41293 15.6194 4.18067Z" fill="#000"/>
<path opacity="0.5" d="M4.18067 15.6194C4.41293 15.213 4.93551 15.0678 5.37099 15.3001C5.77744 15.5323 5.9226 16.0549 5.69034 16.4904C5.45809 16.8968 4.93551 17.042 4.50002 16.8097C4.09357 16.5484 3.94841 16.0259 4.18067 15.6194Z" fill="#000"/>
<path d="M12.3096 1.50955C12.5418 1.10309 13.0644 0.957932 13.4999 1.19019C13.9063 1.42245 14.0515 1.94503 13.8192 2.38051C13.587 2.78696 13.0644 2.93213 12.6289 2.69987C12.2225 2.46761 12.0773 1.94503 12.3096 1.50955Z" fill="#000"/>
</g>

</svg>
