<svg width="118" height="58" viewBox="0 0 118 58" fill="none" xmlns="http://www.w3.org/2000/svg">
<path d="M52.18 25H53.78L50.12 17.38L53.66 11H52.08L48.36 17.76V11H46.8V25H48.36V20.3L49.18 18.92L52.18 25ZM54.8636 21.62C54.8636 23.74 55.9236 25.14 58.0636 25.14C60.2236 25.14 61.2836 23.74 61.2836 21.62V14.38C61.2836 12.24 60.2236 10.86 58.0636 10.86C55.9236 10.86 54.8636 12.24 54.8636 14.38V21.62ZM56.4036 14.3C56.4036 13.04 56.9436 12.28 58.0636 12.28C59.2036 12.28 59.7236 13.04 59.7236 14.3V21.7C59.7236 22.98 59.2036 23.72 58.0636 23.72C56.9436 23.72 56.4036 22.98 56.4036 21.7V14.3ZM70.137 13.74V25H71.617V11H69.437L67.217 22.18L64.917 11H62.737V25H64.097V13.84L66.417 24.98H67.917L70.137 13.74ZM78.3458 22.18L78.8858 25H80.4458L77.7658 11H75.5058L72.8258 25H74.2658L74.8058 22.18H78.3458ZM76.5458 12.76L78.1258 20.84H75.0058L76.5458 12.76ZM86.6633 18.7V25H88.2233V11H86.6633V17.3H83.2233V11H81.6633V25H83.2233V18.7H86.6633ZM98.2473 26.92V23.62H97.1873V11H91.5673L91.0273 21.58C90.9873 22.44 90.8873 23.08 90.4073 23.62H89.5073V26.92H91.0073V25H96.7273V26.92H98.2473ZM93.0073 12.42H95.6073V23.62H91.9073C92.3473 23.16 92.4873 22.56 92.5473 21.56L93.0073 12.42ZM104.733 22.18L105.273 25H106.833L104.153 11H101.893L99.2125 25H100.653L101.193 22.18H104.733ZM102.933 12.76L104.513 20.84H101.393L102.933 12.76ZM52.18 45H53.78L50.12 37.38L53.66 31H52.08L48.36 37.76V31H46.8V45H48.36V40.3L49.18 38.92L52.18 45ZM54.9836 31V45H56.5436V39.48H57.9236C60.1436 39.48 61.1836 38.32 61.1836 36.1V34.42C61.1836 32.3 60.2436 31 58.0436 31H54.9836ZM56.5436 38.08V32.42H58.0436C59.1836 32.42 59.6436 33.06 59.6436 34.34V36.2C59.6436 37.54 59.0836 38.08 57.9236 38.08H56.5436ZM67.5255 42.18L68.0655 45H69.6255L66.9455 31H64.6855L62.0055 45H63.4455L63.9855 42.18H67.5255ZM65.7255 32.76L67.3055 40.84H64.1855L65.7255 32.76ZM70.843 31V45H74.063C76.243 45 77.263 43.82 77.263 41.72V40.54C77.263 39 76.743 37.92 75.383 37.54C76.603 37.16 77.023 36.24 77.023 34.76V34.1C77.023 32.04 76.163 31 73.983 31H70.843ZM72.403 36.94V32.42H73.943C75.063 32.42 75.483 33.02 75.483 34.26V35.08C75.483 36.54 74.843 36.94 73.603 36.94H72.403ZM72.403 43.58V38.36H73.763C75.103 38.36 75.723 38.88 75.723 40.44V41.68C75.723 42.98 75.203 43.58 74.063 43.58H72.403ZM83.535 45H85.075V31H83.535V36.84C83.375 37.9 82.795 38.48 81.855 38.48C80.755 38.48 80.135 37.64 80.135 36.46V31H78.575V36.58C78.575 38.46 79.475 39.9 81.355 39.9C82.195 39.9 83.035 39.52 83.535 38.8V45ZM88.2623 37.2V32.42H92.4623V31H86.7023V45H92.4623V43.58H88.2623V38.6H91.6823V37.2H88.2623ZM98.9094 38.7V45H100.469V31H98.9094V37.3H95.4694V31H93.9094V45H95.4694V38.7H98.9094ZM107.453 45H109.053L105.393 37.38L108.933 31H107.353L103.633 37.76V31H102.073V45H103.633V40.3L104.453 38.92L107.453 45ZM110.137 41.62C110.137 43.74 111.197 45.14 113.337 45.14C115.497 45.14 116.557 43.74 116.557 41.62V34.38C116.557 32.24 115.497 30.86 113.337 30.86C111.197 30.86 110.137 32.24 110.137 34.38V41.62ZM111.677 34.3C111.677 33.04 112.217 32.28 113.337 32.28C114.477 32.28 114.997 33.04 114.997 34.3V41.7C114.997 42.98 114.477 43.72 113.337 43.72C112.217 43.72 111.677 42.98 111.677 41.7V34.3Z" fill="black"/>
<path d="M40.9805 45H32L21.9238 30.4551C21.666 30.0827 21.3724 29.5026 21.043 28.7148H20.9355V45H13.8457V11.7207H20.9355V27.4473H21.043C21.3581 26.7598 21.6732 26.1654 21.9883 25.6641L31.5273 11.7207H39.9922L28.0898 27.5977L40.9805 45Z" fill="#0084E6"/>
<path d="M10.9141 11.7207V45H3.82422V11.7207H10.9141Z" fill="#0084E6"/>
</svg>
