<svg width="24" height="24" viewBox="0 0 24 24" fill="none" xmlns="http://www.w3.org/2000/svg">
<g >
<path d="M12 0C5.36171 0 0 5.36171 0 12C0 18.6383 5.36171 24 12 24C18.6383 24 24 18.6383 24 12C24 5.36171 18.6383 0 12 0ZM12 22.0085C6.48513 22.0085 1.99149 17.5149 1.99149 12C1.99149 6.48508 6.48513 1.99149 12 1.99149C17.5149 1.99149 22.0086 6.48513 22.0086 12C22.0086 17.5149 17.5149 22.0085 12 22.0085Z" fill="#EA4D3D"/>
<path d="M8.06765 7.45532C7.50596 7.45532 7.04639 7.9149 7.04639 8.47658V8.73189C7.04639 9.29357 7.50596 9.75315 8.06765 9.75315C8.62933 9.75315 9.08891 9.29357 9.08891 8.73189V8.47658C9.08896 7.9149 8.62938 7.45532 8.06765 7.45532Z" fill="#EA4D3D"/>
<path d="M15.9319 7.45532C15.3702 7.45532 14.9106 7.9149 14.9106 8.47658V8.73189C14.9106 9.29357 15.3702 9.75315 15.9319 9.75315C16.4936 9.75315 16.9532 9.29357 16.9532 8.73189V8.47658C16.9532 7.9149 16.4936 7.45532 15.9319 7.45532Z" fill="#EA4D3D"/>
<path d="M6.17868 17.0043C6.58718 17.4128 7.19994 17.4128 7.60849 17.0043C10.0596 14.5532 13.9915 14.5532 16.4425 17.0043C16.851 17.4128 17.4638 17.4128 17.8723 17.0043C18.2809 16.5958 18.2808 15.983 17.8723 15.5745C16.2893 13.9915 14.1446 13.1745 12.051 13.1745C9.95744 13.1745 7.81276 13.9405 6.17868 15.5745C5.77014 15.983 5.77014 16.5958 6.17868 17.0043Z" fill="#EA4D3D"/>
</g>

</svg>
