<svg width="16" height="15" viewBox="0 0 16 15" fill="none" xmlns="http://www.w3.org/2000/svg">
<path d="M12.9375 2.5H3.0625C2.88991 2.5 2.75 2.36009 2.75 2.1875V1.375C2.75 0.615594 3.36559 0 4.125 0H11.875C12.6344 0 13.25 0.615594 13.25 1.375V2.1875C13.25 2.36009 13.1101 2.5 12.9375 2.5Z" fill="#fff"/>
<path d="M14.3125 3.5H1.6875C0.757 3.5 0 4.257 0 5.1875V11.0625C0 11.993 0.757 12.75 1.6875 12.75H2.75V10.25C2.75 9.00934 3.75934 8 5 8H11C12.2407 8 13.25 9.00934 13.25 10.25V12.75H14.3125C15.243 12.75 16 11.993 16 11.0625V5.1875C16 4.257 15.243 3.5 14.3125 3.5ZM3.00062 7.25C2.58641 7.25 2.25047 6.91422 2.25047 6.5C2.25047 6.08578 2.58609 5.75 3.00031 5.75H3.00062C3.41484 5.75 3.75062 6.08578 3.75062 6.5C3.75062 6.91422 3.41484 7.25 3.00062 7.25Z" fill="#fff"/>
<path d="M11 9.5H5C4.58578 9.5 4.25 9.83578 4.25 10.25V12.75V13.75C4.25 14.1642 4.58578 14.5 5 14.5H11C11.4142 14.5 11.75 14.1642 11.75 13.75V12.75V10.25C11.75 9.83578 11.4142 9.5 11 9.5Z" fill="#fff"/>
</svg>
