<svg width="20" height="14" viewBox="0 0 20 14" fill="none" xmlns="http://www.w3.org/2000/svg">
<path d="M4.5154 13.4221C7.06892 13.4221 9.08516 11.3518 9.08516 8.79824C9.08516 6.24472 6.98796 4.17436 4.43443 4.17436C4.40889 4.17436 4.37036 4.17783 4.34481 4.17826C5.35445 3.37428 6.62255 2.88981 8.01058 2.88981C8.64918 2.88981 9.16309 2.372 9.16309 1.73384C9.16309 1.09567 8.75222 0.57787 8.11362 0.57787C3.5811 0.578303 -0.000245094 4.26572 -0.000245094 8.79824C-0.000245094 8.79911 -0.000245094 8.79997 -0.000245094 8.80127C-0.000245094 11.3535 1.96274 13.4221 4.5154 13.4221Z" fill="#808492"/>
<path d="M15.3458 13.4221C17.8993 13.4221 19.919 11.3518 19.919 8.79824C19.919 6.24472 17.8236 4.17436 15.2696 4.17436C15.2441 4.17436 15.2064 4.17783 15.1809 4.17826C16.1905 3.37428 17.459 2.88981 18.8471 2.88981C19.4857 2.88981 20 2.372 20 1.73384C20 1.09567 19.5826 0.57787 18.944 0.57787C14.4115 0.578303 10.8237 4.26572 10.8237 8.79824C10.8237 8.79911 10.8237 8.79997 10.8237 8.80127C10.8237 11.3535 12.7932 13.4221 15.3458 13.4221Z" fill="#808492"/>
</svg>
