<svg width="18" height="18" viewBox="0 0 18 18" fill="none" xmlns="http://www.w3.org/2000/svg">
<path d="M16.8172 2.51924C16.7849 2.28716 16.6179 2.09626 16.3921 2.03351L9.15764 0.0215904C9.0545 -0.00711543 8.94556 -0.00711543 8.84234 0.0215904L1.60783 2.03351C1.38211 2.09626 1.21513 2.28708 1.18281 2.51924C1.14085 2.82096 0.183598 9.95006 2.63889 13.4966C5.09128 17.0388 8.70909 17.9466 8.86187 17.9836C8.90728 17.9945 8.95356 17.9999 8.99999 17.9999C9.04642 17.9999 9.0927 17.9945 9.13811 17.9836C9.29097 17.9466 12.9088 17.0388 15.3611 13.4966C17.8164 9.95014 16.8591 2.82104 16.8172 2.51924ZM13.6653 6.68128L8.73066 11.6159C8.61583 11.7308 8.46524 11.7883 8.31473 11.7883C8.16422 11.7883 8.01364 11.7308 7.89881 11.6159L4.84775 8.56489C4.7374 8.45461 4.67544 8.30496 4.67544 8.14896C4.67544 7.99296 4.73748 7.84332 4.84775 7.73304L5.45356 7.12724C5.68328 6.89759 6.05575 6.89751 6.2854 7.12724L8.31473 9.15657L12.2277 5.24355C12.3379 5.1332 12.4876 5.07124 12.6436 5.07124C12.7996 5.07124 12.9492 5.1332 13.0595 5.24355L13.6653 5.84936C13.895 6.07908 13.895 6.45155 13.6653 6.68128Z" fill="#3EA849"/>
</svg>
