<svg width="18" height="18" viewBox="0 0 18 18" fill="none" xmlns="http://www.w3.org/2000/svg">
<g>
<path d="M17.8377 7.86761L9.33731 0.208823C9.1507 0.0407023 8.86719 0.0405811 8.68046 0.20846L0.162703 7.86731C0.011552 8.00331 -0.0402056 8.21834 0.0325217 8.40822C0.10537 8.5981 0.287552 8.72337 0.490946 8.72337H1.9421L8.67701 2.72773C8.86476 2.55579 9.15277 2.55567 9.34046 2.72779L16.0748 8.72337H17.509C17.7123 8.72337 17.8945 8.59822 17.9674 8.40846C18.0402 8.21864 17.9887 8.00367 17.8377 7.86761Z" fill="#0084E6"/>
<path d="M2.55011 9.49825V17.4265C2.55011 17.6976 2.76993 17.9174 3.04108 17.9174H14.9761C15.2473 17.9174 15.4671 17.6976 15.4671 17.4265V9.49825L9.00872 3.75571L2.55011 9.49825ZM6.5029 11.9097C6.64162 12.1481 6.83162 12.4747 6.83162 13.0622C6.83162 13.6497 6.64162 13.9763 6.5029 14.2148C6.39823 14.3946 6.34066 14.4936 6.34066 14.7499C6.34066 15.0888 6.06593 15.3636 5.72696 15.3636C5.38805 15.3636 5.11326 15.0888 5.11326 14.7499C5.11326 14.1625 5.30326 13.8359 5.44199 13.5975C5.54659 13.4176 5.60429 13.3187 5.60429 13.0622C5.60429 12.8058 5.54659 12.7068 5.44199 12.5269C5.30326 12.2885 5.11326 11.9619 5.11326 11.3745C5.11326 10.7871 5.30326 10.4605 5.44199 10.2221C5.54666 10.0423 5.60429 9.94321 5.60429 9.68691C5.60429 9.348 5.87902 9.07328 6.21793 9.07328C6.5569 9.07328 6.83162 9.348 6.83162 9.68691C6.83162 10.2744 6.64162 10.6009 6.5029 10.8394C6.39823 11.0192 6.34066 11.1182 6.34066 11.3745C6.34066 11.6308 6.39823 11.7299 6.5029 11.9097ZM11.5176 12.5268C11.3788 12.2884 11.1888 11.9619 11.1888 11.3744C11.1888 10.787 11.3788 10.4605 11.5176 10.222C11.6222 10.0422 11.6798 9.94315 11.6798 9.68685C11.6798 9.34794 11.9546 9.07322 12.2935 9.07322C12.6324 9.07322 12.9072 9.34794 12.9072 9.68685C12.9072 10.2743 12.7172 10.6008 12.5785 10.8393C12.4738 11.0191 12.4162 11.1181 12.4162 11.3744C12.4162 11.6308 12.4738 11.7298 12.5785 11.9096C12.7172 12.1481 12.9072 12.4746 12.9072 13.0621C12.9072 13.6496 12.7172 13.9762 12.5785 14.2147C12.4738 14.3945 12.4162 14.4935 12.4162 14.7499C12.4162 15.0888 12.1414 15.3636 11.8025 15.3636C11.4636 15.3636 11.1888 15.0888 11.1888 14.7499C11.1888 14.1625 11.3788 13.8359 11.5176 13.5975C11.6222 13.4176 11.6798 13.3186 11.6798 13.0621C11.6798 12.8058 11.6221 12.7067 11.5176 12.5268ZM9.86938 9.68691C9.86938 10.2744 9.67938 10.6009 9.54066 10.8394C9.43599 11.0192 9.37841 11.1182 9.37841 11.3745C9.37841 11.6308 9.43599 11.7299 9.54066 11.9097C9.67938 12.1481 9.86938 12.4747 9.86938 13.0622C9.86938 13.6497 9.67938 13.9763 9.54066 14.2148C9.43599 14.3946 9.37841 14.4936 9.37841 14.7499C9.37841 15.0888 9.10362 15.3636 8.76472 15.3636C8.42575 15.3636 8.15102 15.0888 8.15102 14.7499C8.15102 14.1625 8.34102 13.8359 8.47975 13.5975C8.58435 13.4176 8.64199 13.3187 8.64199 13.0622C8.64199 12.8058 8.58435 12.7068 8.47975 12.5269C8.34102 12.2885 8.15102 11.9619 8.15102 11.3745C8.15102 10.7871 8.34102 10.4605 8.47975 10.2221C8.58441 10.0423 8.64199 9.94321 8.64199 9.68691C8.64199 9.348 8.91678 9.07328 9.25569 9.07328C9.59459 9.07328 9.86938 9.348 9.86938 9.68691Z" fill="#0084E6"/>
</g>

</svg>
