<svg width="20" height="16" viewBox="0 0 20 16" fill="none" xmlns="http://www.w3.org/2000/svg">
<path d="M19.2205 2.16973C18.4985 1.31154 17.1656 0.961475 14.6201 0.961475H5.37974C2.77594 0.961475 1.42045 1.33412 0.701226 2.2478C0 3.13864 0 4.45122 0 6.26786V9.73038C0 13.2498 0.832 15.0367 5.37974 15.0367H14.6201C16.8276 15.0367 18.0508 14.7278 18.8422 13.9704C19.6537 13.1938 20 11.9257 20 9.73038V6.26786C20 4.35206 19.9457 3.03173 19.2205 2.16973ZM12.8401 8.47715L8.64406 10.6701C8.55026 10.7192 8.44768 10.7435 8.34523 10.7435C8.22923 10.7435 8.11348 10.7122 8.01097 10.6502C7.81793 10.5332 7.70006 10.324 7.70006 10.0983V5.72644C7.70006 5.50115 7.81761 5.29212 8.01026 5.17509C8.20297 5.05806 8.44265 5.05006 8.64258 5.15393L12.8386 7.33277C13.0521 7.4436 13.1861 7.66399 13.1865 7.90444C13.1867 8.14509 13.0532 8.3658 12.8401 8.47715Z" fill="#E42533"/>
</svg>
