<svg width="16" height="16" viewBox="0 0 16 16" fill="none" xmlns="http://www.w3.org/2000/svg">
<path d="M1.42433 1.42433H6.2908V0H0.712166C0.324091 0.0123331 0.0123331 0.324091 0 0.712166V6.2908H1.42433V1.42433Z" fill="#A8AAB3"/>
<path d="M15.2879 0H9.70926V1.42433H14.5757V6.2908H16V0.712166C15.9877 0.324091 15.6759 0.0123331 15.2879 0Z" fill="#A8AAB3"/>
<path d="M14.5757 14.5757H9.70926V16H15.2879C15.6759 15.9877 15.9877 15.6759 16 15.2879V9.70923H14.5757V14.5757Z" fill="#A8AAB3"/>
<path d="M1.42433 9.70923H0V15.2879C0.0123331 15.6759 0.324091 15.9877 0.712166 16H6.2908V14.5757H1.42433V9.70923Z" fill="#A8AAB3"/>
<path d="M5.22266 5.9347V10.0771C5.22266 10.4704 5.54151 10.7893 5.93482 10.7893H10.0654C10.4587 10.7893 10.7775 10.4704 10.7775 10.0771V5.9347C10.7775 5.54139 10.4587 5.22253 10.0654 5.22253H5.93482C5.54151 5.22253 5.22266 5.54139 5.22266 5.9347Z" fill="#A8AAB3"/>
</svg>
