<svg width="16" height="16" viewBox="0 0 16 16" fill="none" xmlns="http://www.w3.org/2000/svg">
<path d="M15.9583 6.13771C15.8535 5.81373 15.5662 5.58362 15.2262 5.55298L10.6082 5.13366L8.78207 0.859509C8.64742 0.546269 8.34077 0.343506 8.00006 0.343506C7.65936 0.343506 7.35271 0.546269 7.21806 0.860242L5.39197 5.13366L0.77321 5.55298C0.433846 5.58435 0.147218 5.81373 0.0418691 6.13771C-0.0634801 6.46169 0.0338122 6.81705 0.290532 7.04105L3.78121 10.1024L2.75189 14.6366C2.67657 14.9699 2.80597 15.3146 3.08259 15.5145C3.23128 15.6219 3.40523 15.6766 3.58065 15.6766C3.7319 15.6766 3.88193 15.6359 4.01657 15.5553L8.00006 13.1745L11.9821 15.5553C12.2735 15.7306 12.6408 15.7146 12.9168 15.5145C13.1935 15.314 13.3228 14.9692 13.2475 14.6366L12.2182 10.1024L15.7089 7.04166C15.9656 6.81705 16.0636 6.4623 15.9583 6.13771Z" fill="#fff"/>

</svg>
