<svg width="26" height="26" viewBox="0 0 26 26" fill="none" xmlns="http://www.w3.org/2000/svg">
<path d="M21.1569 7.76952H11.7765L9.91059 5.55187C9.84782 5.47642 9.75376 5.43411 9.65569 5.43717H2.08765C0.932176 5.44558 0 6.38464 0 7.54011V21.1799C0.00140196 22.3393 0.940971 23.2789 2.10039 23.2803H21.1569C22.3163 23.2789 23.2559 22.3393 23.2573 21.1799V9.86991C23.2559 8.71049 22.3163 7.77092 21.1569 7.76952Z" fill="white"/>
<path d="M23.9123 5.05223H14.5293L12.6635 2.83459C12.6007 2.75914 12.5066 2.71682 12.4086 2.71988H4.84307C3.79466 2.7216 2.90812 3.49612 2.76562 4.53478H9.66581C10.0276 4.53389 10.3712 4.69359 10.6038 4.97067L12.197 6.86459H21.1568C22.814 6.86739 24.1567 8.21015 24.1595 9.86733V20.5426C25.2102 20.4115 25.9991 19.5189 25.9999 18.4601V7.15008C25.9972 5.99658 25.0657 5.06065 23.9123 5.05223Z" fill="white"/>
</svg>
