<?xml version="1.0"?>
<svg xmlns="http://www.w3.org/2000/svg" xmlns:xlink="http://www.w3.org/1999/xlink" version="1.1" xml:space="preserve">
	<defs>
		<symbol id="user" width="100%" height="100%" viewBox="0 0 20 20">
			<path d="M16.3763 17.0045C16.837 16.9085 17.1114 16.4264 16.8825 16.0153C16.3778 15.1089 15.5828 14.3124 14.5658 13.7054C13.2559 12.9237 11.6511 12.5 10.0001 12.5C8.34905 12.5 6.74418 12.9237 5.43435 13.7054C4.41732 14.3124 3.6223 15.1089 3.11765 16.0153C2.88873 16.4264 3.1631 16.9085 3.62378 17.0045C7.82945 17.881 12.1707 17.881 16.3763 17.0045Z" fill="currentColor" />
			<circle cx="10" cy="6.66667" r="4.16667" fill="currentColor" />
		</symbol>
		<symbol id="vote-up" width="100%" height="100%" viewBox="0 0 16 16">
			<path d="M0 8.5C0 7.67157 0.671573 7 1.5 7C2.32843 7 3 7.67157 3 8.5V14.5C3 15.3284 2.32843 16 1.5 16C0.671573 16 0 15.3284 0 14.5V8.5Z" fill="currentColor" />
			<path d="M4 8.33333V13.7639C4 14.5215 4.428 15.214 5.10557 15.5528L5.15542 15.5777C5.71084 15.8554 6.32329 16 6.94427 16H12.3604C13.3138 16 14.1346 15.3271 14.3216 14.3922L15.5216 8.39223C15.7691 7.15465 14.8225 6 13.5604 6H10V2C10 0.895431 9.10457 0 8 0C7.44772 0 7 0.447715 7 1V1.66667C7 2.53215 6.71929 3.37428 6.2 4.06667L4.8 5.93333C4.28071 6.62572 4 7.46785 4 8.33333Z" fill="currentColor" />
		</symbol>
		<symbol id="vote-down" width="100%" height="100%" viewBox="0 0 16 16">
			<path d="M16 7.5C16 8.32843 15.3285 9 14.5 9C13.6716 9 13 8.32843 13 7.5V1.5C13 0.671574 13.6716 8.77022e-07 14.5 9.49446e-07C15.3285 1.02187e-06 16 0.671574 16 1.5V7.5Z" fill="currentColor" />
			<path d="M12 7.66667V2.23607C12 1.47852 11.572 0.785998 10.8945 0.447215L10.8446 0.422291C10.2892 0.144581 9.67675 5.2778e-07 9.05577 4.73492e-07L3.63964 0C2.68628 -8.33455e-08 1.86545 0.672919 1.67848 1.60777L0.478483 7.60777C0.230966 8.84535 1.17755 10 2.43964 10H6.00004V14C6.00004 15.1046 6.89547 16 8.00004 16C8.55232 16 9.00004 15.5523 9.00004 15V14.3333C9.00004 13.4679 9.28075 12.6257 9.80004 11.9333L11.2 10.0667C11.7193 9.37428 12 8.53215 12 7.66667Z" fill="currentColor" />
		</symbol>
		<symbol id="doc-add" width="100%" height="100%" viewBox="0 0 20 20">
			<path fill-rule="evenodd" clip-rule="evenodd" d="M9.99992 1.66669C11.087 1.66669 11.937 1.66669 12.6269 1.71116C12.5445 1.95914 12.4999 2.22437 12.4999 2.50002C11.1192 2.50002 9.99992 3.61931 9.99992 5.00002C9.99992 6.38073 11.1192 7.50002 12.4999 7.50002C12.4999 8.88073 13.6192 10 14.9999 10C15.6402 10 16.2243 9.75931 16.6666 9.36344V11.6667C16.6666 14.159 16.6666 15.4052 16.1307 16.3334C15.7796 16.9414 15.2747 17.4464 14.6666 17.7975C13.7384 18.3334 12.4922 18.3334 9.99992 18.3334C7.50761 18.3334 6.26145 18.3334 5.33325 17.7975C4.72517 17.4464 4.22022 16.9414 3.86915 16.3334C3.33325 15.4052 3.33325 14.159 3.33325 11.6667V8.33336C3.33325 5.84105 3.33325 4.59489 3.86915 3.66669C4.22022 3.05861 4.72517 2.55366 5.33325 2.20259C6.26145 1.66669 7.50761 1.66669 9.99992 1.66669ZM6.66659 9.00002C6.1143 9.00002 5.66659 9.44774 5.66659 10C5.66659 10.5523 6.1143 11 6.66659 11H9.99992C10.5522 11 10.9999 10.5523 10.9999 10C10.9999 9.44774 10.5522 9.00002 9.99992 9.00002H6.66659ZM6.66659 11.5C6.1143 11.5 5.66659 11.9477 5.66659 12.5C5.66659 13.0523 6.1143 13.5 6.66659 13.5H11.6666C12.2189 13.5 12.6666 13.0523 12.6666 12.5C12.6666 11.9477 12.2189 11.5 11.6666 11.5H6.66659ZM6.66659 14C6.1143 14 5.66659 14.4477 5.66659 15C5.66659 15.5523 6.1143 16 6.66659 16H9.99992C10.5522 16 10.9999 15.5523 10.9999 15C10.9999 14.4477 10.5522 14 9.99992 14H6.66659Z" fill="currentColor" />
			<path d="M15 2.5L15 7.5" stroke="currentColor" fill="none" stroke-width="2" stroke-linecap="round" />
			<path d="M17.5 5L12.5 5" stroke="currentColor" fill="none" stroke-width="2" stroke-linecap="round" />
		</symbol>
		<symbol id="doc-search" width="100%" height="100%" viewBox="0 0 20 20">
			<circle cx="14.5833" cy="14.5833" r="2.08333" stroke="currentColor" stroke-width="2" fill="none" />
			<path d="M17.5 17.5L16.25 16.25" stroke="currentColor" stroke-width="2" stroke-linecap="round" fill="none" />
			<path fill-rule="evenodd" clip-rule="evenodd" d="M3.33325 8.33336C3.33325 5.84105 3.33325 4.59489 3.86915 3.66669C4.22022 3.05861 4.72517 2.55366 5.33325 2.20259C6.26145 1.66669 7.50761 1.66669 9.99992 1.66669C12.4922 1.66669 13.7384 1.66669 14.6666 2.20259C15.2747 2.55366 15.7796 3.05861 16.1307 3.66669C16.6666 4.59489 16.6666 5.84104 16.6666 8.33335V10.4998C16.0415 10.1803 15.3334 10 14.5833 10C12.0519 10 9.99992 12.052 9.99992 14.5834C9.99992 16.1246 10.7606 17.4881 11.9271 18.319C11.3797 18.3334 10.7456 18.3334 9.99992 18.3334C7.50761 18.3334 6.26145 18.3334 5.33325 17.7975C4.72517 17.4464 4.22022 16.9414 3.86915 16.3334C3.33325 15.4052 3.33325 14.159 3.33325 11.6667V8.33336ZM14.2208 14.789C14.2719 14.7183 14.3271 14.6496 14.3864 14.5834C14.4172 14.549 14.4491 14.5153 14.4822 14.4823C14.5152 14.4492 14.5489 14.4173 14.5833 14.3865C14.6495 14.3272 14.7182 14.272 14.7889 14.2209C14.7282 14.1864 14.658 14.1667 14.5833 14.1667C14.3531 14.1667 14.1666 14.3532 14.1666 14.5834C14.1666 14.6581 14.1863 14.7283 14.2208 14.789ZM6.66659 4.00002C6.1143 4.00002 5.66659 4.44774 5.66659 5.00002C5.66659 5.5523 6.1143 6.00002 6.66659 6.00002H9.99992C10.5522 6.00002 10.9999 5.5523 10.9999 5.00002C10.9999 4.44774 10.5522 4.00002 9.99992 4.00002H6.66659ZM6.66659 7.33335C6.1143 7.33335 5.66659 7.78107 5.66659 8.33335C5.66659 8.88564 6.1143 9.33335 6.66659 9.33335L11.6666 9.33335C12.2189 9.33335 12.6666 8.88564 12.6666 8.33335C12.6666 7.78107 12.2189 7.33335 11.6666 7.33335L6.66659 7.33335ZM6.66659 10.6667C6.1143 10.6667 5.66659 11.1144 5.66659 11.6667C5.66659 12.219 6.1143 12.6667 6.66659 12.6667H9.16659C9.71887 12.6667 10.1666 12.219 10.1666 11.6667C10.1666 11.1144 9.71887 10.6667 9.16659 10.6667H6.66659Z" fill="currentColor" />
		</symbol>
		<symbol id="cross" width="100%" height="100%" viewBox="0 0 12 12">
			<path fill-rule="evenodd" clip-rule="evenodd" d="M0.292893 0.292893C0.683417 -0.0976311 1.31658 -0.0976311 1.70711 0.292893L6 4.58579L10.2929 0.292893C10.6834 -0.0976311 11.3166 -0.0976311 11.7071 0.292893C12.0976 0.683417 12.0976 1.31658 11.7071 1.70711L7.41421 6L11.7071 10.2929C12.0976 10.6834 12.0976 11.3166 11.7071 11.7071C11.3166 12.0976 10.6834 12.0976 10.2929 11.7071L6 7.41421L1.70711 11.7071C1.31658 12.0976 0.683417 12.0976 0.292893 11.7071C-0.0976311 11.3166 -0.0976311 10.6834 0.292893 10.2929L4.58579 6L0.292893 1.70711C-0.0976311 1.31658 -0.0976311 0.683417 0.292893 0.292893Z" fill="currentColor" />
		</symbol>
		<symbol id="rieltor" width="100%" height="100%" viewBox="0 0 14 16">
			<path d="M11 4C11 6.20937 9.20938 8 7 8C4.79063 8 3 6.20937 3 4C3 1.79094 4.79063 0 7 0C9.20938 0 11 1.79094 11 4ZM6.53438 11.225L5.5 9.5H8.5L7.46562 11.225L8.50625 15.0969L9.74063 10.0594C12.1531 10.4344 14 12.5219 14 15.0406C14 15.5687 13.5687 16 13.0406 16H0.96C0.429688 16 0 15.5687 0 15.0406C0 12.5219 1.84656 10.4344 4.25938 10.0594L5.49375 15.0969L6.53438 11.225Z" fill="currentColor" />
		</symbol>
		<symbol id="check" width="100%" height="100%" viewBox="0 0 24 24">
			<circle cx="12" cy="12" r="12" fill="currentColor" />
			<path d="M11.4319 16.5439C10.8879 17.152 10.0051 17.152 9.46128 16.5439L6.40804 13.1311C5.86399 12.5233 5.86399 11.5366 6.40804 10.9287C6.95184 10.3206 7.83462 10.3206 8.37868 10.9287L10.1978 12.9618C10.3351 13.115 10.5581 13.115 10.6957 12.9618L15.6213 7.45609C16.1651 6.84797 17.0479 6.84797 17.592 7.45609C17.8532 7.74812 18 8.14434 18 8.55729C18 8.97024 17.8532 9.36646 17.592 9.65849L11.4319 16.5439Z" fill="white" />
		</symbol>
		<symbol id="calc" width="100%" height="100%" viewBox="0 0 14 16">
			<path d="M12.5 0H1.5C0.7 0 0 0.7 0 1.5V14.5C0 15.3 0.7 16 1.5 16H12.5C13.3 16 14 15.3 14 14.5V1.5C14 0.7 13.3 0 12.5 0ZM4 13.6C4 13.8 3.8 14 3.6 14H2.4C2.2 14 2 13.8 2 13.6V12.4C2 12.2 2.2 12 2.4 12H3.6C3.8 12 4 12.2 4 12.4V13.6ZM4 9.6C4 9.8 3.8 10 3.6 10H2.4C2.2 10 2 9.8 2 9.6V8.4C2 8.2 2.2 8 2.4 8H3.6C3.8 8 4 8.2 4 8.4V9.6ZM8 13.6C8 13.8 7.8 14 7.6 14H6.4C6.2 14 6 13.8 6 13.6V12.4C6 12.2 6.2 12 6.4 12H7.6C7.8 12 8 12.2 8 12.4V13.6ZM8 9.6C8 9.8 7.8 10 7.6 10H6.4C6.2 10 6 9.8 6 9.6V8.4C6 8.2 6.2 8 6.4 8H7.6C7.8 8 8 8.2 8 8.4V9.6ZM12 13.6C12 13.8 11.8 14 11.6 14H10.4C10.2 14 10 13.8 10 13.6V8.4C10 8.2 10.2 8 10.4 8H11.6C11.8 8 12 8.2 12 8.4V13.6ZM12 5.6C12 5.8 11.8 6 11.6 6H2.4C2.2 6 2 5.8 2 5.6V2.4C2 2.2 2.2 2 2.4 2H11.6C11.8 2 12 2.2 12 2.4V5.6Z" fill="currentColor" />
		</symbol>
		<symbol id="objects" width="100%" height="100%" viewBox="0 0 18 14">
			<path d="M5.4 7.875C5.655 7.875 5.8689 7.791 6.0417 7.623C6.2139 7.45558 6.3 7.24792 6.3 7C6.3 6.75208 6.2139 6.54412 6.0417 6.37612C5.8689 6.20871 5.655 6.125 5.4 6.125C5.145 6.125 4.9311 6.20871 4.7583 6.37612C4.5861 6.54412 4.5 6.75208 4.5 7C4.5 7.24792 4.5861 7.45558 4.7583 7.623C4.9311 7.791 5.145 7.875 5.4 7.875ZM13.5 14C13.245 14 13.0314 13.916 12.8592 13.748C12.6864 13.5806 12.6 13.3729 12.6 13.125V4.70312C12.6 4.67396 12.555 4.57187 12.465 4.39687L9.4725 1.4875C9.1875 1.21042 9.12 0.893083 9.27 0.5355C9.42 0.1785 9.6975 0 10.1025 0C10.2225 0 10.3425 0.0253749 10.4625 0.0761249C10.5825 0.127458 10.68 0.189583 10.755 0.2625L14.13 3.54375C14.22 3.63125 14.2875 3.72954 14.3325 3.83862C14.3775 3.94829 14.4 4.06146 14.4 4.17812V13.125C14.4 13.3729 14.3136 13.5806 14.1408 13.748C13.9686 13.916 13.755 14 13.5 14ZM17.1 14C16.845 14 16.6314 13.916 16.4592 13.748C16.2864 13.5806 16.2 13.3729 16.2 13.125V3.25937C16.2 3.23021 16.155 3.12812 16.065 2.95312L14.5575 1.4875C14.2725 1.21042 14.205 0.893083 14.355 0.5355C14.505 0.1785 14.7825 0 15.1875 0C15.3075 0 15.4275 0.0253749 15.5475 0.0761249C15.6675 0.127458 15.765 0.189583 15.84 0.2625L17.73 2.1C17.82 2.1875 17.8875 2.28608 17.9325 2.39575C17.9775 2.50483 18 2.61771 18 2.73438V13.125C18 13.3729 17.9136 13.5806 17.7408 13.748C17.5686 13.916 17.355 14 17.1 14ZM0.9 14C0.645 14 0.4314 13.916 0.2592 13.748C0.0864001 13.5806 0 13.3729 0 13.125V5.62188C0 5.50521 0.0225 5.39204 0.0675 5.28237C0.1125 5.17329 0.18 5.075 0.27 4.9875L4.77 0.6125C4.86 0.525 4.9575 0.462875 5.0625 0.426125C5.1675 0.389958 5.28 0.371875 5.4 0.371875C5.52 0.371875 5.6325 0.389958 5.7375 0.426125C5.8425 0.462875 5.94 0.525 6.03 0.6125L10.53 4.9875C10.62 5.075 10.6875 5.17329 10.7325 5.28237C10.7775 5.39204 10.8 5.50521 10.8 5.62188V13.125C10.8 13.3729 10.7139 13.5806 10.5417 13.748C10.3689 13.916 10.155 14 9.9 14H6.3V10.5C6.3 10.2521 6.2139 10.0441 6.0417 9.87612C5.8689 9.70871 5.655 9.625 5.4 9.625C5.145 9.625 4.9311 9.70871 4.7583 9.87612C4.5861 10.0441 4.5 10.2521 4.5 10.5V14H0.9Z" fill="currentColor" />
		</symbol>
		<symbol id="home" width="100%" height="100%" viewBox="0 0 16 16">
			<path d="M15.7313 7.15265L8.55258 0.611477C8.23749 0.324321 7.76233 0.324353 7.44736 0.611446L0.268658 7.15268C0.0162521 7.38268 -0.0671228 7.73706 0.0561895 8.05546C0.179533 8.37387 0.479845 8.57959 0.821313 8.57959H1.96787V15.1334C1.96787 15.3932 2.17856 15.6039 2.4384 15.6039H6.37321C6.63305 15.6039 6.84374 15.3932 6.84374 15.1334V11.1541H9.1563V15.1334C9.1563 15.3932 9.36698 15.6039 9.62683 15.6039H13.5614C13.8213 15.6039 14.032 15.3933 14.032 15.1334V8.57959H15.1788C15.5202 8.57959 15.8205 8.37384 15.9439 8.05546C16.067 7.73703 15.9837 7.38268 15.7313 7.15265Z" fill="currentColor" />
			<path d="M13.9092 1.33533H10.7492L14.3797 4.63645V1.80583C14.3797 1.54598 14.1691 1.33533 13.9092 1.33533Z" fill="currentColor" />
		</symbol>
		<symbol id="flats" width="100%" height="100%" viewBox="0 0 12 14">
			<path fill-rule="evenodd" clip-rule="evenodd" d="M0.857143 1.75C0.857143 0.783502 1.62465 0 2.57143 0H9.42857C10.3753 0 11.1429 0.783502 11.1429 1.75V12.25C11.6162 12.25 12 12.6418 12 13.125C12 13.6082 11.6162 14 11.1429 14H8.71429C8.162 14 7.71429 13.5523 7.71429 13V11.375C7.71429 10.8918 7.33053 10.5 6.85714 10.5H5.14286C4.66947 10.5 4.28571 10.8918 4.28571 11.375V13C4.28571 13.5523 3.838 14 3.28571 14H0.857143C0.383756 14 0 13.6082 0 13.125C0 12.6418 0.383756 12.25 0.857143 12.25V1.75ZM3.42857 2.625H5.14286V4.375H3.42857V2.625ZM5.14286 6.125H3.42857V7.875H5.14286V6.125ZM6.85714 2.625H8.57143V4.375H6.85714V2.625ZM8.57143 6.125H6.85714V7.875H8.57143V6.125Z" fill="currentColor" />
		</symbol>
		<symbol id="doc-00" width="100%" height="100%" viewBox="0 0 13 14">
			<path fill-rule="evenodd" clip-rule="evenodd" d="M0.585786 0.585786C0 1.17157 0 2.11438 0 4V10C0 11.8856 0 12.8284 0.585786 13.4142C1.0445 13.8729 1.72214 13.9724 2.9 13.994V11.9C2.9 11.5686 3.16863 11.3 3.5 11.3C3.83137 11.3 4.1 11.5686 4.1 11.9V14L8.5 14V11.9C8.5 11.5686 8.76863 11.3 9.1 11.3C9.43137 11.3 9.7 11.5686 9.7 11.9L9.7 13.994C10.8779 13.9724 11.5555 13.8729 12.0142 13.4142C12.6 12.8284 12.6 11.8856 12.6 10V4C12.6 2.11438 12.6 1.17157 12.0142 0.585786C11.4284 0 10.4856 0 8.6 0H4C2.11438 0 1.17157 0 0.585786 0.585786ZM3.5 4.3C3.16863 4.3 2.9 4.56863 2.9 4.9C2.9 5.23137 3.16863 5.5 3.5 5.5H9.1C9.43137 5.5 9.7 5.23137 9.7 4.9C9.7 4.56863 9.43137 4.3 9.1 4.3H3.5ZM3.5 8.3H9.1C9.43137 8.3 9.7 8.03137 9.7 7.7C9.7 7.36863 9.43137 7.1 9.1 7.1H3.5C3.16863 7.1 2.9 7.36863 2.9 7.7C2.9 8.03137 3.16863 8.3 3.5 8.3Z" fill="currentColor" />
		</symbol>
		<symbol id="like" width="100%" height="100%" viewBox="-1 -1 20 18">
			<path d="M9 15.9969C2.10421 10.5571 0 8.04397 0 5.15409C0 2.32359 2.018 0.00317383 4.78125 0.00317383C6.69885 0.00317383 8.12169 1.1808 9 2.85136C9.87827 1.18087 11.3011 0.00317383 13.2188 0.00317383C15.9823 0.00317383 18 2.32398 18 5.15409C18 7.79513 16.3985 10.1609 9 15.9969Z" fill="currentColor" />
		</symbol>
		<symbol id="phone" width="100%" height="100%" viewBox="0 0 14 14">
			<path d="M0 0.875C0 0.391751 0.391751 0 0.875 0H2.75876C3.1865 0 3.55154 0.309236 3.62186 0.731151L4.26876 4.61254C4.33191 4.99144 4.14055 5.36723 3.79697 5.53901L2.44235 6.21632C3.41911 8.64353 5.35647 10.5809 7.78368 11.5576L8.46099 10.203C8.63277 9.85945 9.00856 9.66809 9.38746 9.73124L13.2688 10.3781C13.6908 10.4485 14 10.8135 14 11.2412V13.125C14 13.6082 13.6082 14 13.125 14H11.375C5.09276 14 0 8.90724 0 2.625V0.875Z" fill="currentColor" />
		</symbol>
		<symbol id="phone-call" width="100%" height="100%" viewBox="0 0 14 14">
			<path d="M13.9336 0.540064C13.8912 0.437623 13.8285 0.3416 13.7456 0.25814C13.7443 0.256899 13.7431 0.255662 13.7419 0.254429C13.5837 0.0971741 13.3657 0 13.125 0H9.625C9.14175 0 8.75 0.391751 8.75 0.875C8.75 1.35825 9.14175 1.75 9.625 1.75H11.0126L8.13128 4.63128C7.78957 4.97299 7.78957 5.52701 8.13128 5.86872C8.47299 6.21043 9.02701 6.21043 9.36872 5.86872L12.25 2.98744V4.375C12.25 4.85825 12.6418 5.25 13.125 5.25C13.6082 5.25 14 4.85825 14 4.375V0.875C14 0.756359 13.9764 0.643233 13.9336 0.540064Z" fill="currentColor" />
			<path d="M0 0.875C0 0.391751 0.391751 0 0.875 0H2.75876C3.1865 0 3.55154 0.309236 3.62186 0.731151L4.26876 4.61254C4.33191 4.99144 4.14055 5.36723 3.79697 5.53901L2.44235 6.21632C3.41911 8.64353 5.35647 10.5809 7.78368 11.5576L8.46099 10.203C8.63277 9.85945 9.00856 9.66809 9.38746 9.73124L13.2688 10.3781C13.6908 10.4485 14 10.8135 14 11.2412V13.125C14 13.6082 13.6082 14 13.125 14H11.375C5.09276 14 0 8.90724 0 2.625V0.875Z" fill="currentColor" />
		</symbol>
		<symbol id="eye" width="100%" height="100%" viewBox="0 0 16 10">
			<path d="M8 0.231262C4.94303 0.231262 2.17081 1.90376 0.125192 4.62034C-0.0417306 4.8429 -0.0417306 5.15384 0.125192 5.3764C2.17081 8.09625 4.94303 9.76875 8 9.76875C11.057 9.76875 13.8292 8.09625 15.8748 5.37967C16.0417 5.15711 16.0417 4.84618 15.8748 4.62361C13.8292 1.90376 11.057 0.231262 8 0.231262ZM8.21929 8.35809C6.19004 8.48574 4.51427 6.81324 4.64191 4.78071C4.74665 3.10495 6.10494 1.74666 7.78071 1.64192C9.80996 1.51427 11.4857 3.18677 11.3581 5.2193C11.2501 6.89179 9.89179 8.25008 8.21929 8.35809ZM8.11783 6.80669C7.02465 6.87543 6.1213 5.97536 6.19331 4.88218C6.24895 3.97883 6.9821 3.24896 7.88545 3.19004C8.97862 3.12131 9.88197 4.02138 9.80996 5.11456C9.75105 6.02118 9.0179 6.75105 8.11783 6.80669Z" fill="currentColor" />
		</symbol>
		<symbol id="gal-ochka" width="100%" height="100%" viewBox="0 0 12 10">
			<path d="M5.43192 9.54391C4.88786 10.152 4.00508 10.152 3.46128 9.54391L0.408044 6.13113C-0.136015 5.5233 -0.136015 4.53657 0.408044 3.92874C0.951839 3.32062 1.83462 3.32062 2.37868 3.92874L4.19781 5.96179C4.33513 6.11499 4.55806 6.11499 4.69565 5.96179L9.62132 0.456093C10.1651 -0.152031 11.0479 -0.152031 11.592 0.456093C11.8532 0.748122 12 1.14434 12 1.55729C12 1.97024 11.8532 2.36646 11.592 2.65849L5.43192 9.54391Z" fill="currentColor" />
		</symbol>
	</defs>
</svg>