<svg width="16" height="20" viewBox="0 0 16 20" fill="none" xmlns="http://www.w3.org/2000/svg">
<path d="M14.5955 8.07683H14.2058V6.25292C14.2058 2.87944 11.5288 0.0613889 8.18274 0.00123271C8.09131 -0.000410903 7.90862 -0.000410903 7.81724 0.00123271C4.47113 0.0613889 1.7941 2.87944 1.7941 6.25292V8.07683H1.40436C0.803782 8.07683 0.313904 8.69656 0.313904 9.46194V18.61C0.313904 19.3745 0.803782 20 1.4044 20H14.5955C15.1961 20 15.686 19.3745 15.686 18.61V9.46194C15.686 8.6966 15.1962 8.07683 14.5955 8.07683ZM9.2358 14.0267V16.7908C9.2358 17.1074 8.97081 17.3752 8.65404 17.3752H7.34597C7.02917 17.3752 6.76418 17.1074 6.76418 16.7908V14.0267C6.45694 13.7242 6.27808 13.3061 6.27808 12.8435C6.27808 11.9668 6.9557 11.2136 7.81728 11.1788C7.90858 11.1751 8.09147 11.1751 8.18278 11.1788C9.04436 11.2136 9.72198 11.9668 9.72198 12.8435C9.7219 13.3061 9.54303 13.7242 9.2358 14.0267ZM11.6373 8.07683H8.18274H7.81724H4.36269V6.25292C4.36269 4.24339 5.99579 2.58183 7.99997 2.58183C10.0041 2.58183 11.6373 4.24339 11.6373 6.25292V8.07683H11.6373Z" fill="#EA4D3D"/>
</svg>
