<svg width="148" height="148" viewBox="0 0 148 148" fill="none" xmlns="http://www.w3.org/2000/svg">
<circle cx="74" cy="74" r="74" fill="white"/>
<path fill-rule="evenodd" clip-rule="evenodd" d="M74 148C114.869 148 148 114.869 148 74C148 33.1309 114.869 0 74 0C33.1309 0 0 33.1309 0 74C0 114.869 33.1309 148 74 148ZM69.881 47.8035C67.0426 45.9113 63.393 45.7348 60.3853 47.3445C57.3776 48.9542 55.5 52.0887 55.5 55.5V92.5C55.5 95.9114 57.3776 99.0458 60.3853 100.656C63.393 102.265 67.0426 102.089 69.881 100.196L97.631 81.6965C100.204 79.9809 101.75 77.0928 101.75 74C101.75 70.9072 100.204 68.0191 97.631 66.3036L69.881 47.8035Z" fill="#FF0000"/>
</svg>
