<?xml version="1.0"?>
<svg xmlns="http://www.w3.org/2000/svg" xmlns:xlink="http://www.w3.org/1999/xlink" version="1.1" xml:space="preserve">
	<defs>
		<symbol id="yt-play" width="100%" height="100%" viewBox="0 0 16 16">
			<path fill-rule="evenodd" clip-rule="evenodd" d="M8 16C12.4183 16 16 12.4183 16 8C16 3.58172 12.4183 0 8 0C3.58172 0 0 3.58172 0 8C0 12.4183 3.58172 16 8 16ZM7.5547 5.16795C7.24784 4.96338 6.8533 4.94431 6.52814 5.11833C6.20298 5.29235 6 5.63121 6 6V10C6 10.3688 6.20298 10.7077 6.52814 10.8817C6.8533 11.0557 7.24784 11.0366 7.5547 10.8321L10.5547 8.83205C10.8329 8.64659 11 8.33435 11 8C11 7.66565 10.8329 7.35342 10.5547 7.16795L7.5547 5.16795Z" fill="#FF0000"/>
		</symbol>
		<symbol id="like" width="100%" height="100%" viewBox="-1 -1 20 18">
			<path d="M9 15.9969C2.10421 10.5571 0 8.04397 0 5.15409C0 2.32359 2.018 0.00317383 4.78125 0.00317383C6.69885 0.00317383 8.12169 1.1808 9 2.85136C9.87827 1.18087 11.3011 0.00317383 13.2188 0.00317383C15.9823 0.00317383 18 2.32398 18 5.15409C18 7.79513 16.3985 10.1609 9 15.9969Z" />
		</symbol>
		<symbol id="like-search" width="100%" height="100%" viewBox="0 0 18 16">
			<path d="M11.805 0C10.41 0 9.1275 0.5775 8.25 1.5525C7.3725 0.5775 6.09 0 4.695 0C2.1075 0 0 2.0175 0 4.5C0 10.8525 7.545 15.45 7.8675 15.645C7.98 15.7125 8.115 15.75 8.25 15.75C8.31 15.75 8.3625 15.7425 8.4225 15.7275C7.845 14.88 7.5 13.8525 7.5 12.75C7.5 9.855 9.855 7.5 12.75 7.5C13.8 7.5 14.775 7.8075 15.5925 8.34C16.1475 7.155 16.5 5.8725 16.5 4.5C16.5 2.0175 14.3925 0 11.805 0V0Z" />
			<path d="M17.7803 16.7197L15.8753 14.8148C16.2683 14.2215 16.5 13.5128 16.5 12.75C16.5 10.6823 14.8178 9 12.75 9C10.6823 9 9 10.6823 9 12.75C9 14.8178 10.6823 16.5 12.75 16.5C13.5128 16.5 14.2215 16.2683 14.8148 15.8753L16.7197 17.7803C17.013 18.0735 17.487 18.0735 17.7803 17.7803C18.0735 17.487 18.0735 17.013 17.7803 16.7197ZM12.75 15C11.5095 15 10.5 13.9905 10.5 12.75C10.5 11.5095 11.5095 10.5 12.75 10.5C13.9905 10.5 15 11.5095 15 12.75C15 13.9905 13.9905 15 12.75 15Z" />
		</symbol>
		<symbol id="lock" width="100%" height="100%" viewBox="0 0 16 20">
			<path d="M14.5955 8.07683H14.2058V6.25292C14.2058 2.87944 11.5288 0.0613889 8.18274 0.00123271C8.09131 -0.000410903 7.90862 -0.000410903 7.81724 0.00123271C4.47113 0.0613889 1.7941 2.87944 1.7941 6.25292V8.07683H1.40436C0.803782 8.07683 0.313904 8.69656 0.313904 9.46194V18.61C0.313904 19.3745 0.803782 20 1.4044 20H14.5955C15.1961 20 15.686 19.3745 15.686 18.61V9.46194C15.686 8.6966 15.1962 8.07683 14.5955 8.07683ZM9.2358 14.0267V16.7908C9.2358 17.1074 8.97081 17.3752 8.65404 17.3752H7.34597C7.02917 17.3752 6.76418 17.1074 6.76418 16.7908V14.0267C6.45694 13.7242 6.27808 13.3061 6.27808 12.8435C6.27808 11.9668 6.9557 11.2136 7.81728 11.1788C7.90858 11.1751 8.09147 11.1751 8.18278 11.1788C9.04436 11.2136 9.72198 11.9668 9.72198 12.8435C9.7219 13.3061 9.54303 13.7242 9.2358 14.0267ZM11.6373 8.07683H8.18274H7.81724H4.36269V6.25292C4.36269 4.24339 5.99579 2.58183 7.99997 2.58183C10.0041 2.58183 11.6373 4.24339 11.6373 6.25292V8.07683H11.6373Z" />
		</symbol>
		<symbol id="option" width="100%" height="100%" viewBox="0 0 18 18">
			<path d="M16.418 2.14453H5.80078C4.9282 2.14453 4.21875 2.85434 4.21875 3.72656C4.21875 4.59914 4.9282 5.30859 5.80078 5.30859H16.418C17.2902 5.30859 18 4.59914 18 3.72656C18 2.85434 17.2902 2.14453 16.418 2.14453Z" />
			<path d="M16.418 7.41797H5.80078C4.9282 7.41797 4.21875 8.12777 4.21875 9C4.21875 9.87258 4.9282 10.582 5.80078 10.582H16.418C17.2902 10.582 18 9.87258 18 9C18 8.12777 17.2902 7.41797 16.418 7.41797Z" />
			<path d="M16.418 12.6914H5.80078C4.9282 12.6914 4.21875 13.4012 4.21875 14.2734C4.21875 15.146 4.9282 15.8555 5.80078 15.8555H16.418C17.2902 15.8555 18 15.146 18 14.2734C18 13.4012 17.2902 12.6914 16.418 12.6914Z" />
			<path d="M1.58203 2.14453C0.709453 2.14453 0 2.85434 0 3.72656C0 4.59914 0.709453 5.30859 1.58203 5.30859C2.45426 5.30859 3.16406 4.59914 3.16406 3.72656C3.16406 2.85434 2.45426 2.14453 1.58203 2.14453Z" />
			<path d="M1.58203 7.41797C0.709453 7.41797 0 8.12777 0 9C0 9.87258 0.709453 10.582 1.58203 10.582C2.45426 10.582 3.16406 9.87258 3.16406 9C3.16406 8.12777 2.45426 7.41797 1.58203 7.41797Z" />
			<path d="M1.58203 12.6914C0.709453 12.6914 0 13.4012 0 14.2734C0 15.146 0.709453 15.8555 1.58203 15.8555C2.45426 15.8555 3.16406 15.146 3.16406 14.2734C3.16406 13.4012 2.45426 12.6914 1.58203 12.6914Z" />
		</symbol>
		<symbol id="share" width="100%" height="100%" viewBox="0 0 16 16">
			<path d="M14.823 2.66663C14.823 3.86328 13.853 4.83337 12.6564 4.83337C11.4597 4.83337 10.4897 3.86328 10.4897 2.66663C10.4897 1.47009 11.4597 0.5 12.6564 0.5C13.853 0.5 14.823 1.47009 14.823 2.66663Z" />
			<path d="M12.6564 5.33337C11.1857 5.33337 9.98975 4.13733 9.98975 2.66663C9.98975 1.19604 11.1857 0 12.6564 0C14.1271 0 15.323 1.19604 15.323 2.66663C15.323 4.13733 14.1271 5.33337 12.6564 5.33337ZM12.6564 1C11.7371 1 10.9897 1.74805 10.9897 2.66663C10.9897 3.58533 11.7371 4.33337 12.6564 4.33337C13.5757 4.33337 14.323 3.58533 14.323 2.66663C14.323 1.74805 13.5757 1 12.6564 1Z" />
			<path d="M14.823 13.3334C14.823 14.5299 13.853 15.5 12.6564 15.5C11.4597 15.5 10.4897 14.5299 10.4897 13.3334C10.4897 12.1367 11.4597 11.1666 12.6564 11.1666C13.853 11.1666 14.823 12.1367 14.823 13.3334Z" />
			<path d="M12.6564 16C11.1857 16 9.98975 14.804 9.98975 13.3334C9.98975 11.8627 11.1857 10.6666 12.6564 10.6666C14.1271 10.6666 15.323 11.8627 15.323 13.3334C15.323 14.804 14.1271 16 12.6564 16ZM12.6564 11.6666C11.7371 11.6666 10.9897 12.4147 10.9897 13.3334C10.9897 14.252 11.7371 15 12.6564 15C13.5757 15 14.323 14.252 14.323 13.3334C14.323 12.4147 13.5757 11.6666 12.6564 11.6666Z" />
			<path d="M5.48962 8C5.48962 9.19666 4.51953 10.1666 3.32288 10.1666C2.12634 10.1666 1.15625 9.19666 1.15625 8C1.15625 6.80334 2.12634 5.83337 3.32288 5.83337C4.51953 5.83337 5.48962 6.80334 5.48962 8Z" />
			<path d="M3.32288 10.6666C1.85229 10.6666 0.65625 9.4707 0.65625 8C0.65625 6.5293 1.85229 5.33337 3.32288 5.33337C4.79358 5.33337 5.98962 6.5293 5.98962 8C5.98962 9.4707 4.79358 10.6666 3.32288 10.6666ZM3.32288 6.33337C2.40356 6.33337 1.65625 7.0813 1.65625 8C1.65625 8.9187 2.40356 9.66663 3.32288 9.66663C4.24231 9.66663 4.98962 8.9187 4.98962 8C4.98962 7.0813 4.24231 6.33337 3.32288 6.33337Z" />
			<path d="M4.89682 7.68006C4.66477 7.68006 4.43943 7.55933 4.31675 7.34339C4.13474 7.02405 4.2468 6.61671 4.56614 6.43397L10.752 2.90736C11.0714 2.72401 11.4787 2.83607 11.6615 3.15662C11.8435 3.47596 11.7314 3.88331 11.4121 4.06605L5.22605 7.59266C5.12204 7.65198 5.00876 7.68006 4.89682 7.68006Z" />
			<path d="M11.0824 13.1801C10.9703 13.1801 10.857 13.152 10.753 13.0927L4.56702 9.56604C4.24768 9.38403 4.13575 8.97668 4.31775 8.65662C4.49903 8.33667 4.90698 8.224 5.22705 8.40735L11.4131 11.934C11.7324 12.116 11.8443 12.5233 11.6623 12.8434C11.5391 13.0593 11.3137 13.1801 11.0824 13.1801Z" />
		</symbol>
		<symbol id="share-contur" width="100%" height="100%" viewBox="0 0 22 22">
			<path d="M7.31541 12.491C7.54017 12.0424 7.66667 11.536 7.66667 11C7.66667 10.464 7.54017 9.95761 7.31541 9.50896M7.31541 12.491C6.76815 13.5834 5.63832 14.3333 4.33333 14.3333C2.49238 14.3333 1 12.8409 1 11C1 9.15905 2.49238 7.66667 4.33333 7.66667C5.63832 7.66667 6.76815 8.41657 7.31541 9.50896M7.31541 12.491L14.6846 16.1756M7.31541 9.50896L14.6846 5.82437M14.6846 5.82437C15.2319 6.91676 16.3617 7.66667 17.6667 7.66667C19.5076 7.66667 21 6.17428 21 4.33333C21 2.49238 19.5076 1 17.6667 1C15.8257 1 14.3333 2.49238 14.3333 4.33333C14.3333 4.8693 14.4598 5.37572 14.6846 5.82437ZM14.6846 16.1756C14.4598 16.6243 14.3333 17.1307 14.3333 17.6667C14.3333 19.5076 15.8257 21 17.6667 21C19.5076 21 21 19.5076 21 17.6667C21 15.8257 19.5076 14.3333 17.6667 14.3333C16.3617 14.3333 15.2319 15.0832 14.6846 16.1756Z" stroke="white" stroke-width="2" stroke-linecap="round" stroke-linejoin="round"/>

		</symbol>
		<symbol id="printer" width="100%" height="100%" viewBox="0 0 16 15">
			<path d="M12.9375 2.5H3.0625C2.88991 2.5 2.75 2.36009 2.75 2.1875V1.375C2.75 0.615594 3.36559 0 4.125 0H11.875C12.6344 0 13.25 0.615594 13.25 1.375V2.1875C13.25 2.36009 13.1101 2.5 12.9375 2.5Z" />
			<path d="M14.3125 3.5H1.6875C0.757 3.5 0 4.257 0 5.1875V11.0625C0 11.993 0.757 12.75 1.6875 12.75H2.75V10.25C2.75 9.00934 3.75934 8 5 8H11C12.2407 8 13.25 9.00934 13.25 10.25V12.75H14.3125C15.243 12.75 16 11.993 16 11.0625V5.1875C16 4.257 15.243 3.5 14.3125 3.5ZM3.00062 7.25C2.58641 7.25 2.25047 6.91422 2.25047 6.5C2.25047 6.08578 2.58609 5.75 3.00031 5.75H3.00062C3.41484 5.75 3.75062 6.08578 3.75062 6.5C3.75062 6.91422 3.41484 7.25 3.00062 7.25Z" />
			<path d="M11 9.5H5C4.58578 9.5 4.25 9.83578 4.25 10.25V12.75V13.75C4.25 14.1642 4.58578 14.5 5 14.5H11C11.4142 14.5 11.75 14.1642 11.75 13.75V12.75V10.25C11.75 9.83578 11.4142 9.5 11 9.5Z" />
		</symbol>
		<symbol id="mood-new" width="100%" height="100%" viewBox="0 0 28 28">
			<path d="M27.8199 15.2469L25.7623 11.9819C25.5993 11.723 25.5444 11.4105 25.609 11.1116L26.4258 7.33979C26.5532 6.75197 26.2131 6.16361 25.6405 5.97987L21.9656 4.80136C21.6744 4.70789 21.4313 4.50398 21.2888 4.23345L19.49 0.81916C19.2099 0.286888 18.5713 0.0546077 18.0144 0.281901L14.4415 1.74146C14.1584 1.85685 13.8412 1.85685 13.558 1.74146L9.98573 0.282175C9.42889 0.0548822 8.79029 0.287162 8.50984 0.819434L6.71112 4.2334C6.56856 4.50393 6.32548 4.70785 6.03423 4.80132L2.35938 5.97983C1.78648 6.16356 1.44673 6.75197 1.57411 7.33974L2.39063 11.1116C2.45551 11.4104 2.40028 11.723 2.23727 11.9819L0.179968 15.2469C-0.140795 15.7558 -0.0224819 16.4248 0.45283 16.7935L3.5028 19.1578C3.74469 19.3454 3.90331 19.62 3.94481 19.9233L4.46747 23.7468C4.54868 24.3428 5.06956 24.7796 5.67023 24.7562L9.52652 24.6069C9.8321 24.5949 10.1301 24.7036 10.3571 24.909L13.2148 27.502C13.6603 27.9061 14.3402 27.9061 14.7854 27.502L17.6434 24.909C17.8698 24.7033 18.1681 24.5949 18.474 24.6069L22.33 24.7562C22.9312 24.7796 23.4515 24.3425 23.533 23.7468L24.0557 19.9233C24.0972 19.62 24.2558 19.3454 24.4974 19.1578L27.5474 16.7935C28.0226 16.4248 28.1407 15.7558 27.8199 15.2469ZM10.7623 18.6629L7.35676 16.2843L8.75644 19.5283L7.82361 19.9309L5.67696 14.9568L6.65388 14.5349L10.1237 16.9781L8.68982 13.6565L9.62265 13.2536L11.7699 18.2279L10.7623 18.6629ZM12.8318 17.7696L10.6851 12.7955L14.3734 11.2033L14.7363 12.045L12.0521 13.2033L12.528 14.3059L15.0255 13.2279L15.3872 14.066L12.8897 15.1437L13.474 16.4975L16.2528 15.2983L16.6145 16.1365L12.8318 17.7696ZM21.24 14.1409L18.6443 10.8493L19.2616 14.9942L18.1724 15.4643L14.8385 11.003L15.8663 10.5589L18.0909 13.6521L17.5256 9.84317L18.7205 9.32755L21.0918 12.4257L20.3556 8.62174L21.3667 8.18527L22.3054 13.6811L21.24 14.1409Z" />
		</symbol>
		<symbol id="mood-happy" width="100%" height="100%" viewBox="0 0 24 24">
			<path d="M12 0C5.36171 0 0 5.36171 0 12C0 18.6383 5.36171 24 12 24C18.6383 24 24 18.6383 24 12C24 5.36171 18.6383 0 12 0ZM12 22.0085C6.48513 22.0085 1.99149 17.5149 1.99149 12C1.99149 6.48508 6.48513 1.99149 12 1.99149C17.5149 1.99149 22.0086 6.48513 22.0086 12C22.0086 17.5149 17.5149 22.0085 12 22.0085Z" />
			<path d="M8.06765 7.45532C7.50596 7.45532 7.04639 7.9149 7.04639 8.47658V8.73189C7.04639 9.29357 7.50596 9.75315 8.06765 9.75315C8.62933 9.75315 9.08891 9.29357 9.08891 8.73189V8.47658C9.08896 7.9149 8.62938 7.45532 8.06765 7.45532Z" />
			<path d="M15.9319 7.45532C15.3702 7.45532 14.9106 7.9149 14.9106 8.47658V8.73189C14.9106 9.29357 15.3702 9.75315 15.9319 9.75315C16.4936 9.75315 16.9532 9.29357 16.9532 8.73189V8.47658C16.9532 7.9149 16.4936 7.45532 15.9319 7.45532Z" />
			<path d="M17.8721 13.4809C17.4636 13.0724 16.8508 13.0724 16.4423 13.4809C13.9912 15.9319 10.0593 15.9319 7.60826 13.4809C7.19977 13.0724 6.587 13.0724 6.17846 13.4809C5.76992 13.8894 5.76996 14.5021 6.17846 14.9107C7.76146 16.4937 9.90614 17.3107 11.9997 17.3107C14.0933 17.3107 16.238 16.5447 17.8721 14.9107C18.2806 14.5021 18.2806 13.8894 17.8721 13.4809Z" />
		</symbol>
		<symbol id="mood-netral" width="100%" height="100%" viewBox="0 0 24 24">
			<path d="M12 0C5.36171 0 0 5.36171 0 12C0 18.6383 5.36171 24 12 24C18.6383 24 24 18.6383 24 12C24 5.36171 18.6383 0 12 0ZM12 22.0085C6.48513 22.0085 1.99149 17.5149 1.99149 12C1.99149 6.48508 6.48513 1.99149 12 1.99149C17.5149 1.99149 22.0086 6.48513 22.0086 12C22.0086 17.5149 17.5149 22.0085 12 22.0085Z" />
			<path d="M8.06765 7.45532C7.50596 7.45532 7.04639 7.9149 7.04639 8.47658V8.73189C7.04639 9.29357 7.50596 9.75315 8.06765 9.75315C8.62933 9.75315 9.08891 9.29357 9.08891 8.73189V8.47658C9.08896 7.9149 8.62938 7.45532 8.06765 7.45532Z" />
			<path d="M15.9319 7.45532C15.3702 7.45532 14.9106 7.9149 14.9106 8.47658V8.73189C14.9106 9.29357 15.3702 9.75315 15.9319 9.75315C16.4936 9.75315 16.9532 9.29357 16.9532 8.73189V8.47658C16.9532 7.9149 16.4936 7.45532 15.9319 7.45532Z" />
			<rect x="6" y="15" width="12" height="2" rx="1" />
		</symbol>
		<symbol id="mood-angry" width="100%" height="100%" viewBox="0 0 24 24">
			<path d="M12 0C5.36171 0 0 5.36171 0 12C0 18.6383 5.36171 24 12 24C18.6383 24 24 18.6383 24 12C24 5.36171 18.6383 0 12 0ZM12 22.0085C6.48513 22.0085 1.99149 17.5149 1.99149 12C1.99149 6.48508 6.48513 1.99149 12 1.99149C17.5149 1.99149 22.0086 6.48513 22.0086 12C22.0086 17.5149 17.5149 22.0085 12 22.0085Z" />
			<path d="M8.06765 7.45532C7.50596 7.45532 7.04639 7.9149 7.04639 8.47658V8.73189C7.04639 9.29357 7.50596 9.75315 8.06765 9.75315C8.62933 9.75315 9.08891 9.29357 9.08891 8.73189V8.47658C9.08896 7.9149 8.62938 7.45532 8.06765 7.45532Z" />
			<path d="M15.9319 7.45532C15.3702 7.45532 14.9106 7.9149 14.9106 8.47658V8.73189C14.9106 9.29357 15.3702 9.75315 15.9319 9.75315C16.4936 9.75315 16.9532 9.29357 16.9532 8.73189V8.47658C16.9532 7.9149 16.4936 7.45532 15.9319 7.45532Z" />
			<path d="M6.17868 17.0043C6.58718 17.4128 7.19994 17.4128 7.60849 17.0043C10.0596 14.5532 13.9915 14.5532 16.4425 17.0043C16.851 17.4128 17.4638 17.4128 17.8723 17.0043C18.2809 16.5958 18.2808 15.983 17.8723 15.5745C16.2893 13.9915 14.1446 13.1745 12.051 13.1745C9.95744 13.1745 7.81276 13.9405 6.17868 15.5745C5.77014 15.983 5.77014 16.5958 6.17868 17.0043Z" />
		</symbol>
		<symbol id="notification" width="100%" height="100%" viewBox="0 0 18 16">
			<path d="M15.0343 12.6847C13.9002 11.7262 13.25 10.3252 13.25 8.841V6.75C13.25 4.11075 11.2895 1.926 8.75 1.56V0.75C8.75 0.33525 8.414 0 8 0C7.586 0 7.25 0.33525 7.25 0.75V1.56C4.70975 1.926 2.75 4.11075 2.75 6.75V8.841C2.75 10.3252 2.09975 11.7262 0.959 12.6907C0.66725 12.9405 0.5 13.3035 0.5 13.6875C0.5 14.4112 1.08875 15 1.8125 15H14.1875C14.9113 15 15.5 14.4112 15.5 13.6875C15.5 13.3035 15.3327 12.9405 15.0343 12.6847Z" />
			<path d="M8.00001 18C9.35826 18 10.4945 17.0317 10.7555 15.75H5.24451C5.50551 17.0317 6.64176 18 8.00001 18Z" />
		</symbol>
		<symbol id="img-move" width="100%" height="100%" viewBox="0 0 21 21">
			<path d="M12 3H16V0L21 5L16 10V7H12V3ZM18 11.94V19C18 19.5304 17.7893 20.0391 17.4142 20.4142C17.0391 20.7893 16.5304 21 16 21H2C1.46957 21 0.960859 20.7893 0.585786 20.4142C0.210714 20.0391 0 19.5304 0 19V5C0 4.46957 0.210714 3.96086 0.585786 3.58579C0.960859 3.21071 1.46957 3 2 3H9.06C9 3.33 9 3.67 9 4C9 6.12173 9.84285 8.15656 11.3431 9.65685C12.8434 11.1571 14.8783 12 17 12C17.33 12 17.67 12 18 11.94ZM16 18L11.5 12L8 16.5L5.5 13.5L2 18H16Z" />
		</symbol>
		<symbol id="success" width="100%" height="100%" viewBox="0 0 54 54">
			<circle cx="27" cy="27" r="25" stroke="#3EA849" stroke-width="4" fill-opacity="0" />
			<path d="M38.1256 17.5592C37.0855 16.7072 35.5496 16.846 34.6877 17.8584L23.8004 30.6175L19.1685 26.0797C18.2138 25.1439 16.6706 25.1439 15.716 26.0797C14.7613 27.0156 14.7613 28.5282 15.716 29.4639L22.2353 35.8543C22.6918 36.3067 23.3146 36.5556 23.9616 36.5556C23.9958 36.5556 24.0325 36.5556 24.0666 36.5508C24.7551 36.5221 25.3925 36.211 25.8319 35.6964L38.4307 20.929C39.2951 19.9143 39.1608 18.4065 38.1256 17.5592Z" fill="#3EA849" />
		</symbol>
		<symbol id="map-flag" width="100%" height="100%" viewBox="0 0 512 512">
			<path d="M256,0C153.755,0,70.573,83.182,70.573,185.426c0,126.888,165.939,313.167,173.004,321.035
			c6.636,7.391,18.222,7.378,24.846,0c7.065-7.868,173.004-194.147,173.004-321.035C441.425,83.182,358.244,0,256,0z M256,278.719
			c-51.442,0-93.292-41.851-93.292-93.293S204.559,92.134,256,92.134s93.291,41.851,93.291,93.293S307.441,278.719,256,278.719z" />
		</symbol>
		<symbol id="quote" width="100%" height="100%" viewBox="0 0 20 14">
			<path d="M4.5154 13.4221C7.06892 13.4221 9.08516 11.3518 9.08516 8.79824C9.08516 6.24472 6.98796 4.17436 4.43443 4.17436C4.40889 4.17436 4.37036 4.17783 4.34481 4.17826C5.35445 3.37428 6.62255 2.88981 8.01058 2.88981C8.64918 2.88981 9.16309 2.372 9.16309 1.73384C9.16309 1.09567 8.75222 0.57787 8.11362 0.57787C3.5811 0.578303 -0.000245094 4.26572 -0.000245094 8.79824C-0.000245094 8.79911 -0.000245094 8.79997 -0.000245094 8.80127C-0.000245094 11.3535 1.96274 13.4221 4.5154 13.4221Z" />
			<path d="M15.3458 13.4221C17.8993 13.4221 19.919 11.3518 19.919 8.79824C19.919 6.24472 17.8236 4.17436 15.2696 4.17436C15.2441 4.17436 15.2064 4.17783 15.1809 4.17826C16.1905 3.37428 17.459 2.88981 18.8471 2.88981C19.4857 2.88981 20 2.372 20 1.73384C20 1.09567 19.5826 0.57787 18.944 0.57787C14.4115 0.578303 10.8237 4.26572 10.8237 8.79824C10.8237 8.79911 10.8237 8.79997 10.8237 8.80127C10.8237 11.3535 12.7932 13.4221 15.3458 13.4221Z" />
		</symbol>
		<symbol id="settings" width="100%" height="100%" viewBox="0 0 18 18">
			<path d="M17.5992 7.47422L15.4934 6.95742C15.3773 6.58828 15.2297 6.22969 15.0504 5.88164L16.1262 4.08867C16.2527 3.87773 16.2211 3.61406 16.0523 3.44531L14.5547 1.94766C14.3859 1.77891 14.1223 1.74727 13.9113 1.87383L12.1184 2.94961C11.7703 2.77031 11.4117 2.62266 11.0426 2.50664L10.5363 0.400781C10.473 0.16875 10.2621 0 10.0195 0H7.91016C7.66758 0 7.45664 0.16875 7.39336 0.400781L6.88711 2.50664C6.51797 2.62266 6.15938 2.77031 5.81133 2.94961L4.01836 1.87383C3.80742 1.74727 3.54375 1.77891 3.375 1.94766L1.87734 3.44531C1.70859 3.61406 1.67695 3.87773 1.80352 4.08867L2.8793 5.88164C2.7 6.22969 2.55234 6.58828 2.43633 6.95742L0.400781 7.47422C0.16875 7.52695 0 7.73789 0 7.98047V10.0898C0 10.3324 0.16875 10.5434 0.400781 10.5961L2.43633 11.1129C2.55234 11.482 2.7 11.8406 2.8793 12.1887L1.80352 13.9816C1.67695 14.1926 1.70859 14.4563 1.87734 14.625L3.375 16.1227C3.54375 16.2914 3.80742 16.323 4.01836 16.1965L5.81133 15.1207C6.15938 15.3 6.51797 15.4477 6.88711 15.5637L7.39336 17.5992C7.45664 17.8313 7.66758 18 7.91016 18H10.0195C10.2621 18 10.473 17.8313 10.5363 17.5992L11.0426 15.5637C11.4117 15.4477 11.7703 15.3 12.1184 15.1207L13.9113 16.1965C14.1223 16.323 14.3859 16.2914 14.5547 16.1227L16.0523 14.625C16.2211 14.4563 16.2527 14.1926 16.1262 13.9816L15.0504 12.1887C15.2297 11.8406 15.3773 11.482 15.4934 11.1129L17.5992 10.5961C17.8313 10.5434 18 10.3324 18 10.0898V7.98047C18 7.73789 17.8313 7.52695 17.5992 7.47422ZM8.96484 11.6719C7.50938 11.6719 6.32812 10.4906 6.32812 9.03516C6.32812 7.57969 7.50938 6.39844 8.96484 6.39844C10.4203 6.39844 11.6016 7.57969 11.6016 9.03516C11.6016 10.4906 10.4203 11.6719 8.96484 11.6719Z" />
		</symbol>
		<symbol id="arrow" width="100%" height="100%" viewBox="0 0 16 13">
			<path fill-rule="evenodd" clip-rule="evenodd" d="M7.70918 1.20802C7.61629 1.12792 7.50595 1.06437 7.38448 1.021C7.263 0.977642 7.13277 0.955322 7.00125 0.955322C6.86973 0.955322 6.73951 0.977642 6.61803 1.021C6.49655 1.06437 6.38621 1.12792 6.29333 1.20802L0.294002 6.3689C0.200886 6.4488 0.127009 6.54372 0.076602 6.64822C0.0261947 6.75272 0.000247877 6.86475 0.000247877 6.97789C0.000247877 7.09103 0.0261947 7.20305 0.076602 7.30755C0.127009 7.41205 0.200886 7.50697 0.294002 7.58687L6.29333 12.7478C6.48109 12.9093 6.73573 13 7.00125 13C7.26678 13 7.52142 12.9093 7.70918 12.7478C7.89693 12.5862 8.00241 12.3672 8.00241 12.1388C8.00241 11.9104 7.89693 11.6913 7.70918 11.5298L2.41577 6.97789L7.70918 2.42599C7.80229 2.34609 7.87617 2.25117 7.92658 2.14667C7.97698 2.04217 8.00293 1.93015 8.00293 1.81701C8.00293 1.70387 7.97698 1.59184 7.92658 1.48734C7.87617 1.38284 7.80229 1.28792 7.70918 1.20802Z" />
			<path fill-rule="evenodd" clip-rule="evenodd" d="M16 6.97788C16 6.74976 15.8947 6.53098 15.7071 6.36967C15.5196 6.20836 15.2653 6.11774 15.0001 6.11774H2.00156C1.73638 6.11774 1.48205 6.20836 1.29453 6.36967C1.10702 6.53098 1.00167 6.74976 1.00167 6.97788C1.00167 7.20601 1.10702 7.42479 1.29453 7.5861C1.48205 7.74741 1.73638 7.83803 2.00156 7.83803H15.0001C15.2653 7.83803 15.5196 7.74741 15.7071 7.5861C15.8947 7.42479 16 7.20601 16 6.97788Z" />
		</symbol>
		<symbol id="hide" width="100%" height="100%" viewBox="0 0 16 13">
			<path d="M13.5136 10.2579C14.8724 9.29836 15.7007 8.34646 15.7353 8.3064L16 7.99999L15.7353 7.69357C15.7007 7.65351 14.8724 6.70161 13.5136 5.74203C11.697 4.45922 9.79013 3.78114 7.99909 3.78114C7.03104 3.78114 6.02926 3.97964 5.02624 4.36421L0.83036 0.168365L0.167439 0.831287L15.1678 15.8316L15.8307 15.1687L11.8927 11.2307C12.4373 10.9599 12.9793 10.6352 13.5136 10.2579ZM7.99909 5.65618C9.29146 5.65618 10.3429 6.70761 10.3429 7.99999C10.3429 8.477 10.1993 8.92095 9.95357 9.29158L9.26793 8.60594C9.35597 8.42234 9.40537 8.21684 9.40537 7.99999C9.40537 7.22456 8.77451 6.5937 7.99909 6.5937C7.78224 6.5937 7.57677 6.64311 7.39317 6.73114L6.70753 6.0455C7.0781 5.79975 7.52208 5.65618 7.99909 5.65618Z" />
			<path d="M7.99908 10.3438C6.70671 10.3438 5.65528 9.29234 5.65528 7.99997C5.65528 7.88753 5.66372 7.77706 5.67913 7.66878L3.25098 5.24063C2.99441 5.39598 2.739 5.56292 2.48537 5.74205C1.12696 6.70166 0.299038 7.65359 0.264443 7.69365L0 7.99997L0.264443 8.30629C0.299038 8.34635 1.12696 9.29828 2.48537 10.2579C4.30138 11.5407 6.20801 12.2188 7.99908 12.2188C8.64375 12.2188 9.30346 12.1305 9.96853 11.9582L8.33028 10.32C8.222 10.3353 8.11152 10.3438 7.99908 10.3438Z" />
		</symbol>
		<symbol id="eye" width="100%" height="100%" viewBox="0 0 16 10">
			<path d="M8 0.231262C4.94303 0.231262 2.17081 1.90376 0.125192 4.62034C-0.0417306 4.8429 -0.0417306 5.15384 0.125192 5.3764C2.17081 8.09625 4.94303 9.76875 8 9.76875C11.057 9.76875 13.8292 8.09625 15.8748 5.37967C16.0417 5.15711 16.0417 4.84618 15.8748 4.62361C13.8292 1.90376 11.057 0.231262 8 0.231262ZM8.21929 8.35809C6.19004 8.48574 4.51427 6.81324 4.64191 4.78071C4.74665 3.10495 6.10494 1.74666 7.78071 1.64192C9.80996 1.51427 11.4857 3.18677 11.3581 5.2193C11.2501 6.89179 9.89179 8.25008 8.21929 8.35809ZM8.11783 6.80669C7.02465 6.87543 6.1213 5.97536 6.19331 4.88218C6.24895 3.97883 6.9821 3.24896 7.88545 3.19004C8.97862 3.12131 9.88197 4.02138 9.80996 5.11456C9.75105 6.02118 9.0179 6.75105 8.11783 6.80669Z" />
		</symbol>
		<symbol id="slider-arrow" width="100%" height="100%" viewBox="0 0 11 16">
			<path d="M7.25742 8.00001L1.24861 2.23397C0.769018 1.77376 0.769018 1.0276 1.24861 0.567389C1.7282 0.107176 2.50577 0.107176 2.98536 0.567389L9.86256 7.16672C10.3421 7.62693 10.3421 8.37308 9.86256 8.8333L2.98536 15.4326C2.50577 15.8928 1.7282 15.8928 1.24861 15.4326C0.769018 14.9724 0.769018 14.2263 1.24861 13.766L7.25742 8.00001Z" />
		</symbol>
		<symbol id="plus" width="100%" height="100%" viewBox="0 0 512 512">
			<path d="m256 0c-141.164062 0-256 114.835938-256 256s114.835938 256 256 256 256-114.835938 256-256-114.835938-256-256-256zm112 277.332031h-90.667969v90.667969c0 11.777344-9.554687 21.332031-21.332031 21.332031s-21.332031-9.554687-21.332031-21.332031v-90.667969h-90.667969c-11.777344 0-21.332031-9.554687-21.332031-21.332031s9.554687-21.332031 21.332031-21.332031h90.667969v-90.667969c0-11.777344 9.554687-21.332031 21.332031-21.332031s21.332031 9.554687 21.332031 21.332031v90.667969h90.667969c11.777344 0 21.332031 9.554687 21.332031 21.332031s-9.554687 21.332031-21.332031 21.332031zm0 0" />
		</symbol>
		<symbol id="doc" width="100%" height="100%" viewBox="0 0 16 16">
			<path d="M3.3125 16H12.6875C13.4629 16 14.0938 15.3692 14.0938 14.5938V4.6875H10.8125C10.0371 4.6875 9.40625 4.05669 9.40625 3.28125V0H3.3125C2.53706 0 1.90625 0.630813 1.90625 1.40625V14.5938C1.90625 15.3692 2.53706 16 3.3125 16ZM5.1875 6.59375H10.8125C11.0716 6.59375 11.2812 6.80341 11.2812 7.0625C11.2812 7.32159 11.0716 7.53125 10.8125 7.53125H5.1875C4.92841 7.53125 4.71875 7.32159 4.71875 7.0625C4.71875 6.80341 4.92841 6.59375 5.1875 6.59375ZM5.1875 8.46875H10.8125C11.0716 8.46875 11.2812 8.67841 11.2812 8.9375C11.2812 9.19659 11.0716 9.40625 10.8125 9.40625H5.1875C4.92841 9.40625 4.71875 9.19659 4.71875 8.9375C4.71875 8.67841 4.92841 8.46875 5.1875 8.46875ZM5.1875 10.3438H10.8125C11.0716 10.3438 11.2812 10.5534 11.2812 10.8125C11.2812 11.0716 11.0716 11.2812 10.8125 11.2812H5.1875C4.92841 11.2812 4.71875 11.0716 4.71875 10.8125C4.71875 10.5534 4.92841 10.3438 5.1875 10.3438ZM5.1875 12.2188H8.9375C9.19659 12.2188 9.40625 12.4284 9.40625 12.6875C9.40625 12.9466 9.19659 13.1562 8.9375 13.1562H5.1875C4.92841 13.1562 4.71875 12.9466 4.71875 12.6875C4.71875 12.4284 4.92841 12.2188 5.1875 12.2188Z" />
			<path d="M10.8125 3.75H13.8191L10.3438 0.274658V3.28125C10.3438 3.53988 10.5539 3.75 10.8125 3.75Z" />
		</symbol>
		<symbol id="user" width="100%" height="100%" viewBox="0 0 17 17">
			<path d="M8.5 0C6.02839 0 4.01758 2.01081 4.01758 4.48242C4.01758 6.95403 6.02839 8.96484 8.5 8.96484C10.9716 8.96484 12.9824 6.95403 12.9824 4.48242C12.9824 2.01081 10.9716 0 8.5 0Z" />
			<path d="M14.077 11.8932C12.8498 10.6471 11.223 9.96094 9.49609 9.96094H7.50391C5.77708 9.96094 4.15019 10.6471 2.923 11.8932C1.70183 13.1331 1.0293 14.7698 1.0293 16.502C1.0293 16.777 1.25229 17 1.52734 17H15.4727C15.7477 17 15.9707 16.777 15.9707 16.502C15.9707 14.7698 15.2982 13.1331 14.077 11.8932Z" />
		</symbol>
		<symbol id="users" width="100%" height="100%" viewBox="0 0 26 16">
			<path d="M18.3182 8.86364C21.0294 8.86364 26 9.87663 26 13.9286C26 15.7013 25.5481 15.9545 24.6444 15.9545L17.4469 15.9555C17.6336 15.3775 17.7273 14.6996 17.7273 13.9286C17.7273 11.8925 16.9811 10.3042 15.7515 9.12823C16.6769 8.93851 17.5811 8.86364 18.3182 8.86364ZM7.68182 8.86364C10.393 8.86364 15.3636 9.87663 15.3636 13.9286C15.3636 15.7013 14.9118 15.9545 14.008 15.9545H1.35561C0.451872 15.9545 0 15.7013 0 13.9286C0 9.87663 4.97059 8.86364 7.68182 8.86364ZM7.68182 0C9.64068 0 11.2273 1.58659 11.2273 3.54545C11.2273 5.50432 9.64068 7.09091 7.68182 7.09091C5.72295 7.09091 4.13636 5.50432 4.13636 3.54545C4.13636 1.58659 5.72295 0 7.68182 0ZM18.3182 0C20.277 0 21.8636 1.58659 21.8636 3.54545C21.8636 5.50432 20.277 7.09091 18.3182 7.09091C16.3593 7.09091 14.7727 5.50432 14.7727 3.54545C14.7727 1.58659 16.3593 0 18.3182 0Z" />
		</symbol>
		<symbol id="burger" width="100%" height="100%" viewBox="0 0 24 24">
			<path d="M23 13.1792H1C0.447998 13.1792 0 12.6865 0 12.0792C0 11.472 0.447998 10.9792 1 10.9792H23C23.552 10.9792 24 11.472 24 12.0792C24 12.6865 23.552 13.1792 23 13.1792Z" />
			<path d="M23 6.5125H1C0.447998 6.5125 0 6.0197 0 5.4125C0 4.8053 0.447998 4.3125 1 4.3125H23C23.552 4.3125 24 4.8053 24 5.4125C24 6.0197 23.552 6.5125 23 6.5125Z" />
			<path d="M23 19.8458H1C0.447998 19.8458 0 19.353 0 18.7458C0 18.1385 0.447998 17.6458 1 17.6458H23C23.552 17.6458 24 18.1385 24 18.7458C24 19.353 23.552 19.8458 23 19.8458Z" />
		</symbol>
		<symbol id="home-add" width="100%" height="100%" viewBox="0 0 16 14">
			<path d="M15.8462 8.06236L12.3121 4.52809V2.19732C12.3121 1.907 12.0763 1.67142 11.786 1.67142C11.4957 1.67142 11.2601 1.907 11.2601 2.19732V3.47679L8.76662 0.983082C8.56122 0.777937 8.22844 0.777937 8.02355 0.983082L4.76093 4.24544C4.55528 4.45059 4.55528 4.78363 4.76093 4.98903C4.96633 5.19417 5.29912 5.19417 5.50401 4.98903L8.3947 2.09859L15.1023 8.80595C15.2051 8.90826 15.3397 8.96019 15.474 8.96019C15.6088 8.96019 15.7436 8.90877 15.8459 8.80595C16.0518 8.6008 16.0518 8.26776 15.8462 8.06236Z" />
			<path d="M14.3417 8.66624L8.76618 3.09101C8.66771 2.99227 8.53418 2.93677 8.39452 2.93677C8.25511 2.93677 8.12185 2.99227 8.02311 3.09101L5.88086 5.23326C7.29897 5.94052 8.31446 7.33484 8.48942 8.97984C8.92298 9.06629 9.2463 9.44896 9.2463 9.90171V11.9C9.2463 12.2202 9.36704 12.5261 9.58548 12.7627C9.82542 13.0221 10.1654 13.171 10.5178 13.171H13.2392C13.9396 13.171 14.5102 12.6008 14.5102 11.9V9.17961C14.5102 9.0998 14.5028 9.01872 14.4867 8.93865C14.4667 8.83506 14.4161 8.74042 14.3417 8.66624Z" />
			<path d="M3.98114 5.20874C1.7821 5.20874 0 6.99161 0 9.18988C0 11.3887 1.78235 13.1708 3.98114 13.1708C6.17992 13.1708 7.96227 11.3881 7.96227 9.19013C7.96253 6.99135 6.18017 5.20874 3.98114 5.20874ZM5.28542 9.84752H4.63852V10.4936C4.63852 10.8569 4.34436 11.1505 3.98139 11.1505C3.61817 11.1505 3.32426 10.8569 3.32426 10.4936V9.84752H2.67737C2.3144 9.84752 2.02024 9.55336 2.02024 9.19039C2.02024 8.82742 2.3144 8.53326 2.67737 8.53326H3.32426V7.88713C3.32426 7.52442 3.61817 7.23 3.98139 7.23C4.34436 7.23 4.63852 7.52442 4.63852 7.88713V8.53326H5.28542C5.64838 8.53326 5.94229 8.82742 5.94229 9.19039C5.94229 9.55336 5.64838 9.84752 5.28542 9.84752Z" />
		</symbol>
		<symbol id="home" width="100%" height="100%" viewBox="0 0 16 16">
			<path d="M15.7313 7.15265L8.55258 0.611477C8.23749 0.324321 7.76233 0.324353 7.44736 0.611446L0.268658 7.15268C0.0162521 7.38268 -0.0671228 7.73706 0.0561895 8.05546C0.179533 8.37387 0.479845 8.57959 0.821313 8.57959H1.96787V15.1334C1.96787 15.3932 2.17856 15.6039 2.4384 15.6039H6.37321C6.63305 15.6039 6.84374 15.3932 6.84374 15.1334V11.1541H9.1563V15.1334C9.1563 15.3932 9.36698 15.6039 9.62683 15.6039H13.5614C13.8213 15.6039 14.032 15.3933 14.032 15.1334V8.57959H15.1788C15.5202 8.57959 15.8205 8.37384 15.9439 8.05546C16.067 7.73703 15.9837 7.38268 15.7313 7.15265Z" />
			<path d="M13.9092 1.33533H10.7492L14.3797 4.63645V1.80583C14.3797 1.54598 14.1691 1.33533 13.9092 1.33533Z" />
		</symbol>
		<symbol id="filter" width="100%" height="100%" viewBox="0 0 14 14">
			<path d="M7.79692 2.90658V1.34458C7.79692 0.90438 7.44004 0.547546 6.99988 0.547546C6.55968 0.547546 6.20285 0.90438 6.20285 1.34458V2.90654C5.55003 2.91411 5.02124 3.44717 5.02124 4.10174V4.50025C5.02124 5.15482 5.55007 5.68792 6.20285 5.69545V12.6553C6.20285 13.0955 6.55968 13.4524 6.99988 13.4524C7.44004 13.4524 7.79692 13.0955 7.79692 12.6553V5.69549C8.44973 5.68796 8.97848 5.15486 8.97848 4.50029V4.10178C8.97852 3.44721 8.44973 2.91411 7.79692 2.90658Z" />
			<path d="M12.8184 6.70578V1.34458C12.8184 0.90438 12.4616 0.547546 12.0214 0.547546C11.5812 0.547546 11.2243 0.90438 11.2243 1.34458V6.70574C10.5715 6.71327 10.0427 7.24637 10.0427 7.90089V8.29941C10.0427 8.95402 10.5716 9.48712 11.2243 9.49465V12.6553C11.2243 13.0955 11.5812 13.4524 12.0214 13.4524C12.4616 13.4524 12.8184 13.0955 12.8184 12.6553V9.49469C13.4712 9.4872 14 8.9541 14 8.29953V7.90101C14 7.24641 13.4712 6.71331 12.8184 6.70578Z" />
			<path d="M2.77569 5.13828V1.34458C2.77569 0.90438 2.41881 0.547546 1.97865 0.547546C1.5384 0.547546 1.18161 0.90438 1.18161 1.34458V5.13824C0.528795 5.14581 0 5.67887 0 6.33344V6.73196C0 7.38653 0.528835 7.91962 1.18161 7.92716V12.6554C1.18161 13.0956 1.5384 13.4524 1.97865 13.4524C2.41881 13.4524 2.77569 13.0956 2.77569 12.6554V7.92724C3.4285 7.9197 3.9573 7.3866 3.9573 6.732V6.33348C3.9573 5.67891 3.4285 5.14581 2.77569 5.13828Z" />
		</symbol>
		<symbol id="plus-1" width="100%" height="100%" viewBox="0 0 18 20">
			<path d="M10.7773 8.27148H17.9141V11.3477H10.7773V19.4336H7.50781V11.3477H0.371094V8.27148H7.50781V0.800781H10.7773V8.27148Z" />
		</symbol>
		<symbol id="edit" width="100%" height="100%" viewBox="0 0 18 18">
			<path d="M11.0143 2.53235L2.57739 10.9692L7.03527 15.4271L15.4722 6.99021L11.0143 2.53235Z" />
			<path d="M17.7315 3.58722L14.4392 0.248175C14.1123 -0.0787251 13.5986 -0.0787251 13.295 0.224825C13.295 0.224825 13.295 0.224825 13.2717 0.248175L11.824 1.69587L16.2838 6.17907L17.7315 4.73137C18.0584 4.40447 18.0584 3.89077 17.7315 3.58722Z" />
			<path d="M1.92356 11.9465L0.0789164 16.8967C-0.0845333 17.317 0.125616 17.784 0.545916 17.9475C0.732716 18.0175 0.942865 18.0175 1.12967 17.9475L6.07986 16.0795L1.92356 11.9465Z" />
		</symbol>
		<symbol id="delete" width="100%" height="100%" viewBox="0 0 18 22">
			<path d="M16.1562 2.75H12.375V2.0625C12.375 0.923398 11.4516 0 10.3125 0H7.5625C6.4234 0 5.5 0.923398 5.5 2.0625V2.75H1.71875C0.769527 2.75 0 3.51953 0 4.46875V5.84375C0 6.22346 0.307785 6.53125 0.6875 6.53125H17.1875C17.5672 6.53125 17.875 6.22346 17.875 5.84375V4.46875C17.875 3.51953 17.1055 2.75 16.1562 2.75ZM6.875 2.0625C6.875 1.68352 7.18352 1.375 7.5625 1.375H10.3125C10.6915 1.375 11 1.68352 11 2.0625V2.75H6.875V2.0625Z" />
			<path d="M1.30468 7.90625C1.182 7.90625 1.08425 8.00877 1.09009 8.13132L1.65728 20.0355C1.7097 21.1372 2.61462 22 3.7172 22H14.1577C15.2603 22 16.1652 21.1372 16.2177 20.0355L16.7849 8.13132C16.7907 8.00877 16.6929 7.90625 16.5703 7.90625H1.30468ZM11.6875 9.625C11.6875 9.24516 11.9951 8.9375 12.375 8.9375C12.7548 8.9375 13.0625 9.24516 13.0625 9.625V18.5625C13.0625 18.9423 12.7548 19.25 12.375 19.25C11.9951 19.25 11.6875 18.9423 11.6875 18.5625V9.625ZM8.24998 9.625C8.24998 9.24516 8.55763 8.9375 8.93748 8.9375C9.31732 8.9375 9.62498 9.24516 9.62498 9.625V18.5625C9.62498 18.9423 9.31732 19.25 8.93748 19.25C8.55763 19.25 8.24998 18.9423 8.24998 18.5625V9.625ZM4.81248 9.625C4.81248 9.24516 5.12013 8.9375 5.49998 8.9375C5.87982 8.9375 6.18748 9.24516 6.18748 9.625V18.5625C6.18748 18.9423 5.87982 19.25 5.49998 19.25C5.12013 19.25 4.81248 18.9423 4.81248 18.5625V9.625Z" />
		</symbol>
		<symbol id="folders" width="100%" height="100%" viewBox="0 0 26 26">
			<path d="M21.1569 7.76952H11.7765L9.91059 5.55187C9.84782 5.47642 9.75376 5.43411 9.65569 5.43717H2.08765C0.932176 5.44558 0 6.38464 0 7.54011V21.1799C0.00140196 22.3393 0.940971 23.2789 2.10039 23.2803H21.1569C22.3163 23.2789 23.2559 22.3393 23.2573 21.1799V9.86991C23.2559 8.71049 22.3163 7.77092 21.1569 7.76952Z" />
			<path d="M23.9123 5.05223H14.5293L12.6635 2.83459C12.6007 2.75914 12.5066 2.71682 12.4086 2.71988H4.84307C3.79466 2.7216 2.90812 3.49612 2.76562 4.53478H9.66581C10.0276 4.53389 10.3712 4.69359 10.6038 4.97067L12.197 6.86459H21.1568C22.814 6.86739 24.1567 8.21015 24.1595 9.86733V20.5426C25.2102 20.4115 25.9991 19.5189 25.9999 18.4601V7.15008C25.9972 5.99658 25.0657 5.06065 23.9123 5.05223Z" />
		</symbol>
		<symbol id="gal-ochka" width="100%" height="100%" viewBox="0 0 12 10">
			<path d="M5.43192 9.54391C4.88786 10.152 4.00508 10.152 3.46128 9.54391L0.408044 6.13113C-0.136015 5.5233 -0.136015 4.53657 0.408044 3.92874C0.951839 3.32062 1.83462 3.32062 2.37868 3.92874L4.19781 5.96179C4.33513 6.11499 4.55806 6.11499 4.69565 5.96179L9.62132 0.456093C10.1651 -0.152031 11.0479 -0.152031 11.592 0.456093C11.8532 0.748122 12 1.14434 12 1.55729C12 1.97024 11.8532 2.36646 11.592 2.65849L5.43192 9.54391Z" />
		</symbol>
		<symbol id="return" width="100%" height="100%" viewBox="0 0 49.499 49.499">
			<path d="M8.143,10.804C7.473,11.682,7,11.842,7,11.099V9.751c0-1.933-1.567-3.5-3.5-3.5S0,7.818,0,9.751v12
		c0,1.933,1.567,3.5,3.5,3.5h12c1.933,0,3.5-1.567,3.5-3.5s-1.567-3.5-3.5-3.5c0,0-0.579,0-1.294,0s-0.916-0.817-0.31-1.74
		c2.752-4.187,7.47-6.795,12.569-6.795c8.29,0,15.034,6.744,15.034,15.034c0,8.289-6.744,15.033-15.034,15.033c-2.209,0-4,1.791-4,4
		s1.791,4,4,4c12.701,0.001,23.034-10.332,23.034-23.032c0-12.701-10.333-23.034-23.034-23.034
		C19.204,1.716,12.445,5.167,8.143,10.804z" />
		</symbol>
		<symbol id="user-nonactive" width="100%" height="100%" viewBox="0 0 16 16">
			<path fill-rule="evenodd" clip-rule="evenodd" d="M7.9998 15.2C11.9763 15.2 15.1998 11.9765 15.1998 8.00005C15.1998 4.0236 11.9763 0.800049 7.9998 0.800049C4.02335 0.800049 0.799805 4.0236 0.799805 8.00005C0.799805 11.9765 4.02335 15.2 7.9998 15.2ZM5.2998 7.10005C4.80275 7.10005 4.3998 7.50299 4.3998 8.00005C4.3998 8.4971 4.80275 8.90005 5.2998 8.90005H10.6998C11.1969 8.90005 11.5998 8.4971 11.5998 8.00005C11.5998 7.50299 11.1969 7.10005 10.6998 7.10005H5.2998Z" />
		</symbol>
		<symbol id="user-active" width="100%" height="100%" viewBox="0 0 16 16">
			<path fill-rule="evenodd" clip-rule="evenodd" d="M7.9998 15.2C11.9763 15.2 15.1998 11.9765 15.1998 8.00005C15.1998 4.0236 11.9763 0.800049 7.9998 0.800049C4.02335 0.800049 0.799805 4.0236 0.799805 8.00005C0.799805 11.9765 4.02335 15.2 7.9998 15.2ZM11.3362 6.83644C11.6877 6.48497 11.6877 5.91512 11.3362 5.56365C10.9847 5.21218 10.4149 5.21218 10.0634 5.56365L7.0998 8.52726L5.9362 7.36365C5.58473 7.01218 5.01488 7.01218 4.66341 7.36365C4.31194 7.71512 4.31194 8.28497 4.66341 8.63644L6.46341 10.4364C6.81488 10.7879 7.38473 10.7879 7.7362 10.4364L11.3362 6.83644Z" />
		</symbol>
		<symbol id="square-2" width="100%" height="100%" viewBox="0 0 16 16">
			<path d="M13.1301 2.79822H2.79822V13.1301H13.1301V2.79822Z" />
			<path d="M11.9821 0V1.72197H14.278V3.94619H16V0H11.9821Z" />
			<path d="M1.72197 1.72197H3.94619V0H0V3.94619H1.72197V1.72197Z" />
			<path d="M14.278 14.278H11.9821V16H16V11.9821H14.278V14.278Z" />
			<path d="M1.72197 11.9821H0V16H3.94619V14.278H1.72197V11.9821Z" />
		</symbol>
		<symbol id="calendar" width="100%" height="100%" viewBox="0 0 18 18">
			<path d="M16.6142 2.4743H15.4065V3.54495C15.4065 4.31073 14.7861 4.93079 14.0207 4.93079C13.2549 4.93079 12.6348 4.31073 12.6348 3.54495V2.4743H10.3858V3.54495C10.3858 4.31073 9.76617 4.93079 9 4.93079C8.23383 4.93079 7.61417 4.31073 7.61417 3.54495V2.4743H5.36516V3.54495C5.36516 4.31073 4.74509 4.93079 3.97932 4.93079C3.21395 4.93079 2.59349 4.31073 2.59349 3.54495V2.4743H1.38583C1.01839 2.4743 0.665992 2.62001 0.405851 2.87975C0.146106 3.1399 0 3.49229 0 3.86013V15.6995C0 16.4653 0.620458 17.0853 1.38583 17.0853H16.6142C17.3803 17.0853 18 16.4653 18 15.6995V3.86013C18 3.09476 17.3803 2.4743 16.6142 2.4743ZM15.2283 6.85393V8.86339H12.6135V6.85393H15.2283ZM6.0062 9.48306H8.68997V11.3884H6.0062V9.48306ZM5.38693 11.3876H2.77206V9.48226H5.38733L5.38693 11.3876ZM8.69036 12.0073V14.3137H6.0066V12.0073H8.69036ZM9.31043 12.0073H11.9934V14.3137H9.31043V12.0073ZM9.31043 11.3876V9.48226H11.9934V11.3876H9.31043ZM12.6131 9.48306H15.2279V11.3884H12.6131V9.48306ZM11.9942 6.85393V8.86339H9.31043V6.85393H11.9942ZM8.69036 6.85393V8.86339H6.0066V6.85353L8.69036 6.85393ZM5.38693 6.85353V8.86339H2.77206V6.85353H5.38693ZM2.77206 12.0073H5.38733V14.3137H2.77206V12.0073ZM12.6131 14.3137V12.0073H15.2279V14.3137H12.6131ZM3.18742 3.54495V1.70655C3.18742 1.26942 3.54219 0.914642 3.97932 0.914642C4.41685 0.914642 4.77123 1.26942 4.77123 1.70655V3.54495C4.77123 3.98209 4.41685 4.33686 3.97932 4.33686C3.54259 4.33686 3.18742 3.98209 3.18742 3.54495ZM8.20809 3.54495V1.70655C8.20809 1.26942 8.56287 0.914642 9 0.914642C9.43713 0.914642 9.79191 1.26942 9.79191 1.70655V3.54495C9.79191 3.98209 9.43713 4.33686 9 4.33686C8.56287 4.33686 8.20809 3.98209 8.20809 3.54495ZM13.2292 3.54495V1.70655C13.2292 1.26942 13.5839 0.914642 14.0211 0.914642C14.4582 0.914642 14.813 1.26942 14.813 1.70655V3.54495C14.813 3.98209 14.4582 4.33686 14.0211 4.33686C13.5831 4.33686 13.2292 3.98209 13.2292 3.54495Z" />
		</symbol>
		<symbol id="square-1" width="100%" height="100%" viewBox="0 0 16 16">
			<path d="M1.42433 1.42433H6.2908V0H0.712166C0.324091 0.0123331 0.0123331 0.324091 0 0.712166V6.2908H1.42433V1.42433Z" />
			<path d="M15.2879 0H9.70926V1.42433H14.5757V6.2908H16V0.712166C15.9877 0.324091 15.6759 0.0123331 15.2879 0Z" />
			<path d="M14.5757 14.5757H9.70926V16H15.2879C15.6759 15.9877 15.9877 15.6759 16 15.2879V9.70923H14.5757V14.5757Z" />
			<path d="M1.42433 9.70923H0V15.2879C0.0123331 15.6759 0.324091 15.9877 0.712166 16H6.2908V14.5757H1.42433V9.70923Z" />
			<path d="M5.22266 5.9347V10.0771C5.22266 10.4704 5.54151 10.7893 5.93482 10.7893H10.0654C10.4587 10.7893 10.7775 10.4704 10.7775 10.0771V5.9347C10.7775 5.54139 10.4587 5.22253 10.0654 5.22253H5.93482C5.54151 5.22253 5.22266 5.54139 5.22266 5.9347Z" />
		</symbol>
		<symbol id="floors" width="100%" height="100%" viewBox="0 0 16 16">
			<path d="M13.625 7.53126H13.1563V3.12501L13.4447 3.2452C13.6841 3.34495 13.9583 3.2313 14.0577 2.9928C14.1573 2.75383 14.0443 2.47939 13.8053 2.37983L8.1803 0.0360774C8.06493 -0.0119851 7.93512 -0.0119851 7.81974 0.0360774L2.19474 2.37983C1.95577 2.47939 1.84277 2.75383 1.94233 2.9928C2.0419 3.23176 2.31637 3.3448 2.5553 3.2452L2.84377 3.12501V7.53126H2.37502C2.11615 7.53126 1.90627 7.74114 1.90627 8.00001V9.40627H14.0938V8.00001C14.0938 7.74114 13.8839 7.53126 13.625 7.53126ZM7.53127 7.53126H6.59377V4.71876H5.65627V7.53126H4.71877V4.25001C4.71877 3.99114 4.92865 3.78126 5.18752 3.78126H7.06252C7.3214 3.78126 7.53127 3.99114 7.53127 4.25001V7.53126ZM11.2813 6.12501C11.2813 6.38389 11.0714 6.59376 10.8125 6.59376H8.93752C8.67865 6.59376 8.46877 6.38389 8.46877 6.12501V4.25001C8.46877 3.99114 8.67865 3.78126 8.93752 3.78126H10.8125C11.0714 3.78126 11.2813 3.99114 11.2813 4.25001V6.12501Z" />
			<path d="M9.40625 4.71875H10.3438V5.65625H9.40625V4.71875Z" />
			<path d="M9.40625 12.2188H10.3438V13.1562H9.40625V12.2188Z" />
			<path d="M13.625 15.0625H13.1562V10.3438H2.84375V15.0625H2.375C2.11612 15.0625 1.90625 15.2724 1.90625 15.5312C1.90625 15.7901 2.11612 16 2.375 16H13.625C13.8839 16 14.0938 15.7901 14.0938 15.5312C14.0938 15.2724 13.8839 15.0625 13.625 15.0625ZM7.53125 15.0625H6.59375V12.2188H5.65625V15.0625H4.71875V11.75C4.71875 11.4911 4.92863 11.2812 5.1875 11.2812H7.0625C7.32137 11.2812 7.53125 11.4911 7.53125 11.75V15.0625ZM11.2812 13.625C11.2812 13.8839 11.0714 14.0938 10.8125 14.0938H8.9375C8.67863 14.0938 8.46875 13.8839 8.46875 13.625V11.75C8.46875 11.4911 8.67863 11.2812 8.9375 11.2812H10.8125C11.0714 11.2812 11.2812 11.4911 11.2812 11.75V13.625Z" />
		</symbol>
		<symbol id="camera" width="100%" height="100%" viewBox="0 0 48 48">
			<path d="M24.0001 30.4C27.5347 30.4 30.4001 27.5346 30.4001 24C30.4001 20.4654 27.5347 17.6 24.0001 17.6C20.4655 17.6 17.6001 20.4654 17.6001 24C17.6001 27.5346 20.4655 30.4 24.0001 30.4Z" />
			<path d="M18 4L14.34 8H8C5.8 8 4 9.8 4 12V36C4 38.2 5.8 40 8 40H40C42.2 40 44 38.2 44 36V12C44 9.8 42.2 8 40 8H33.66L30 4H18ZM24 34C18.48 34 14 29.52 14 24C14 18.48 18.48 14 24 14C29.52 14 34 18.48 34 24C34 29.52 29.52 34 24 34Z" />
		</symbol>
		<symbol id="metro" width="100%" height="100%" viewBox="0 0 16 12">
			<path d="M11.0632 0.0480849L10.9286 0.0478603L8.06842 5.65248L5.10534 0L1.04844 10.2114H0V11.0315H5.7437V10.2114H4.60404L5.7437 7.01998L8.06842 11.0315L10.3021 7.01998L11.4416 10.2114H10.3021V11.0315H16V10.2114H15.0129L11.0632 0.0480849Z" />
		</symbol>
		<symbol id="phone" width="100%" height="100%" viewBox="0 0 18 18">
			<path d="M17.6935 4.53591C15.3721 2.09473 12.2846 0.75 9.00001 0.75C5.71543 0.75 2.62791 2.09473 0.306575 4.53591C-0.102151 4.96583 -0.102151 5.66495 0.306575 6.09488L2.03605 7.91347C2.44334 8.34048 3.16267 8.34048 3.56992 7.91347C4.14933 7.30446 4.8064 6.80313 5.52134 6.4252C5.87954 6.24028 6.11101 5.8517 6.10809 5.48477L6.36888 3.51384C8.28219 2.90227 9.7377 2.90265 11.632 3.51349L11.8898 5.43538C11.8898 5.85103 12.1103 6.23044 12.4707 6.42854C13.1886 6.8083 13.8464 7.30966 14.4258 7.91829C14.6287 8.13253 14.9012 8.25009 15.1927 8.25009C15.4843 8.25009 15.7568 8.13253 15.9597 7.91868L17.6935 6.09494C18.1022 5.66491 18.1022 4.96583 17.6935 4.53591Z" />
			<path d="M13.8794 7.74243C13.5528 7.13014 12.9185 6.75 12.2249 6.75H5.77517C5.08157 6.75 4.44728 7.13014 4.12061 7.74243L1.7205 12.2428C1.57621 12.5138 1.50003 12.8188 1.50003 13.125V15.75C1.50003 16.5773 2.17313 17.25 3.00004 17.25H15C15.8269 17.25 16.5 16.5773 16.5 15.75V13.125C16.5 12.8188 16.4239 12.5138 16.2796 12.2424L13.8794 7.74243ZM6.74928 15C6.33546 15 5.99929 14.6635 5.99929 14.25C5.99929 13.8366 6.33549 13.5 6.74928 13.5C7.16311 13.5 7.49927 13.8366 7.49927 14.25C7.4993 14.6635 7.16311 15 6.74928 15ZM6.74928 12.75C6.33546 12.75 5.99929 12.4135 5.99929 12C5.99929 11.5866 6.33549 11.25 6.74928 11.25C7.16311 11.25 7.49927 11.5866 7.49927 12C7.4993 12.4135 7.16311 12.75 6.74928 12.75ZM6.74928 10.5C6.33546 10.5 5.99929 10.1635 5.99929 9.75002C5.99929 9.33659 6.33549 9.00004 6.74928 9.00004C7.16311 9.00004 7.49927 9.33659 7.49927 9.75002C7.4993 10.1635 7.16311 10.5 6.74928 10.5ZM9.00002 15C8.5862 15 8.25003 14.6635 8.25003 14.25C8.25003 13.8366 8.58623 13.5 9.00002 13.5C9.41381 13.5 9.75001 13.8366 9.75001 14.25C9.75001 14.6635 9.41384 15 9.00002 15ZM9.00002 12.75C8.5862 12.75 8.25003 12.4135 8.25003 12C8.25003 11.5866 8.58623 11.25 9.00002 11.25C9.41381 11.25 9.75001 11.5866 9.75001 12C9.75001 12.4135 9.41384 12.75 9.00002 12.75ZM9.00002 10.5C8.5862 10.5 8.25003 10.1635 8.25003 9.75002C8.25003 9.33659 8.58623 9.00004 9.00002 9.00004C9.41381 9.00004 9.75001 9.33659 9.75001 9.75002C9.75001 10.1635 9.41384 10.5 9.00002 10.5ZM11.2493 15C10.8355 15 10.4993 14.6635 10.4993 14.25C10.4993 13.8366 10.8355 13.5 11.2493 13.5C11.6631 13.5 11.9993 13.8366 11.9993 14.25C11.9993 14.6635 11.6631 15 11.2493 15ZM11.2493 12.75C10.8355 12.75 10.4993 12.4135 10.4993 12C10.4993 11.5866 10.8355 11.25 11.2493 11.25C11.6631 11.25 11.9993 11.5866 11.9993 12C11.9993 12.4135 11.6631 12.75 11.2493 12.75ZM11.2493 10.5C10.8355 10.5 10.4993 10.1635 10.4993 9.75002C10.4993 9.33659 10.8355 9.00004 11.2493 9.00004C11.6631 9.00004 11.9993 9.33659 11.9993 9.75002C11.9993 10.1635 11.6631 10.5 11.2493 10.5Z" />
		</symbol>
		<symbol id="forester-house" width="100%" height="100%" viewBox="0 0 18 18">
			<path d="M17.0371 7.14851L13.7229 3.8344V0.799576C13.7229 0.615615 13.5739 0.466217 13.3896 0.466217H12.2944C12.1102 0.466217 11.9611 0.615578 11.9611 0.799576V2.07255L10.5144 0.625914C9.67873 -0.208724 8.31944 -0.208724 7.48499 0.626432L0.962841 7.14851C0.610775 7.50035 0.610775 8.07142 0.962841 8.42326C1.31506 8.7754 1.88553 8.7754 2.2376 8.42326L8.75975 1.90119C8.89233 1.76913 9.10707 1.76883 9.2398 1.90089L15.7624 8.42323C15.9384 8.59926 16.1691 8.68727 16.3997 8.68727C16.6304 8.68727 16.861 8.59926 17.0371 8.42323C17.3892 8.07112 17.3892 7.50035 17.0371 7.14851Z" />
			<path d="M15.9632 9.4315C15.9632 8.8508 15.4924 8.37982 14.9114 8.37982H14.4876L9.23569 3.1278C9.10533 2.99752 8.89407 2.99752 8.76375 3.1278L3.51177 8.37982H3.08858C2.50758 8.37982 2.03697 8.8508 2.03697 9.4315C2.03697 9.84495 2.2775 10.1995 2.62501 10.3711C2.2775 10.5427 2.03697 10.8972 2.03697 11.3107C2.03697 11.7242 2.2775 12.0786 2.62501 12.2503C2.2775 12.422 2.03697 12.7764 2.03697 13.1899C2.03697 13.6034 2.2775 13.9578 2.62501 14.1294C2.2775 14.3012 2.03697 14.6556 2.03697 15.0691C2.03697 15.4796 2.27457 15.8317 2.61793 16.0048C2.2669 16.1753 2.02286 16.5319 2.02286 16.9482C2.02286 17.529 2.4935 18 3.07461 18H6.98549V13.4032C6.98549 13.0719 7.25373 12.8035 7.58531 12.8035H10.4153C10.7468 12.8035 11.0151 13.0719 11.0151 13.4032V18H14.8979C15.4789 18 15.9496 17.529 15.9496 16.9482C15.9496 16.5375 15.7119 16.1857 15.3686 16.0125C15.7195 15.842 15.9632 15.4854 15.9632 15.0691C15.9632 14.6556 15.7225 14.3012 15.375 14.1294C15.7225 13.9578 15.9632 13.6034 15.9632 13.1899C15.9632 12.7764 15.7225 12.422 15.375 12.2503C15.7225 12.0786 15.9632 11.7242 15.9632 11.3107C15.9632 10.8972 15.7225 10.5427 15.375 10.3711C15.7225 10.1994 15.9632 9.84495 15.9632 9.4315Z" />
		</symbol>
		<symbol id="pool" width="100%" height="100%" viewBox="0 0 18 18">
			<path d="M16 2.66667V2C16 1.46957 15.7893 0.960859 15.4142 0.585786C15.0391 0.210714 14.5304 0 14 0C13.4696 0 12.9609 0.210714 12.5858 0.585786C12.2107 0.960859 12 1.46957 12 2V4H8.66667V2C8.66667 1.82319 8.73691 1.65362 8.86193 1.5286C8.98695 1.40357 9.15652 1.33333 9.33333 1.33333C9.51014 1.33333 9.67971 1.40357 9.80474 1.5286C9.92976 1.65362 10 1.82319 10 2V2.66667H11.3333V2C11.3333 1.46957 11.1226 0.960859 10.7475 0.585786C10.3725 0.210714 9.86377 4.21468e-08 9.33333 4.21468e-08C8.8029 4.21468e-08 8.29419 0.210714 7.91912 0.585786C7.54405 0.960859 7.33333 1.46957 7.33333 2V9.43333C7.0276 9.36226 6.71435 9.32868 6.4005 9.33333C4.8005 9.33333 4.8005 10 3.2005 10C1.6005 10 1.6 9.33333 0 9.33333V12C1.6 12 1.6 12.6667 3.2 12.6667C4.8 12.6667 4.8 12 6.4 12C8 12 8 12.6667 9.6 12.6667C11.2 12.6667 11.2 12 12.8 12C14.4 12 14.4 12.6667 16 12.6667V10C14.6009 10 14.425 9.49025 13.3333 9.36225V2C13.3333 1.82319 13.4036 1.65362 13.5286 1.5286C13.6536 1.40357 13.8232 1.33333 14 1.33333C14.1768 1.33333 14.3464 1.40357 14.4714 1.5286C14.5964 1.65362 14.6667 1.82319 14.6667 2V2.66667H16ZM12 5.33333V6.66667H8.66667V5.33333H12ZM8.66667 9.9V8H12V9.40442C11.1355 9.576 10.8767 10 9.6 10C9.28598 10.0047 8.97256 9.97111 8.66667 9.9Z" />
			<path d="M9.59999 13.3333C7.99999 13.3333 7.99999 12.6666 6.39999 12.6666C4.79999 12.6666 4.79999 13.3333 3.19999 13.3333C1.59999 13.3333 1.59999 12.6666 -7.62939e-06 12.6666V15.9999H16V13.3333C14.4 13.3333 14.4 12.6666 12.8 12.6666C11.2 12.6666 11.2 13.3333 9.59999 13.3333Z" />
		</symbol>
		<symbol id="garage" width="100%" height="100%" viewBox="0 0 18 18">
			<path d="M15.39 13.1632H2.61V15.0532H15.39V13.1632Z" />
			<path d="M15.39 10.5532H2.61V12.4432H15.39V10.5532Z" />
			<path d="M15.39 15.7732H2.61V17.7982H15.39V15.7732Z" />
			<path d="M9 0.201782L0 5.20583V17.7982H1.89V7.59587C1.89 7.39706 2.03616 7.22318 2.23497 7.22318H15.765C15.9638 7.22318 16.11 7.39706 16.11 7.59587V17.7982H18V5.20583L9 0.201782Z" />
			<path d="M15.39 7.94324H2.61V9.83324H15.39V7.94324Z" />
		</symbol>
		<symbol id="secure" width="100%" height="100%" viewBox="0 0 18 18">
			<path d="M16.8172 2.51924C16.7849 2.28716 16.6179 2.09626 16.3921 2.03351L9.15764 0.0215904C9.0545 -0.00711543 8.94556 -0.00711543 8.84234 0.0215904L1.60783 2.03351C1.38211 2.09626 1.21513 2.28708 1.18281 2.51924C1.14085 2.82096 0.183598 9.95006 2.63889 13.4966C5.09128 17.0388 8.70909 17.9466 8.86187 17.9836C8.90728 17.9945 8.95356 17.9999 8.99999 17.9999C9.04642 17.9999 9.0927 17.9945 9.13811 17.9836C9.29097 17.9466 12.9088 17.0388 15.3611 13.4966C17.8164 9.95014 16.8591 2.82104 16.8172 2.51924ZM13.6653 6.68128L8.73066 11.6159C8.61583 11.7308 8.46524 11.7883 8.31473 11.7883C8.16422 11.7883 8.01364 11.7308 7.89881 11.6159L4.84775 8.56489C4.7374 8.45461 4.67544 8.30496 4.67544 8.14896C4.67544 7.99296 4.73748 7.84332 4.84775 7.73304L5.45356 7.12724C5.68328 6.89759 6.05575 6.89751 6.2854 7.12724L8.31473 9.15657L12.2277 5.24355C12.3379 5.1332 12.4876 5.07124 12.6436 5.07124C12.7996 5.07124 12.9492 5.1332 13.0595 5.24355L13.6653 5.84936C13.895 6.07908 13.895 6.45155 13.6653 6.68128Z" />
		</symbol>
		<symbol id="lightbulb" width="100%" height="100%" viewBox="0 0 18 18">
			<path d="M5.57812 14.6602H12.4235C12.4678 14.3065 12.5146 13.891 12.5515 13.4649H5.45535C5.4917 13.9018 5.53621 14.3133 5.57812 14.6602Z" />
			<path d="M8.98839 18C8.99521 18.0001 9.0034 18.0002 9.01036 18C11.1747 17.9549 12.1124 16.8014 12.276 15.7149H5.72269C5.88637 16.8014 6.8241 17.9549 8.98839 18Z" />
			<path d="M12.9206 1.62355C11.8572 0.567557 10.4483 -0.0113964 8.95923 0.000170019C5.91326 0.0216153 3.42374 2.53314 3.40964 5.59873C3.4038 6.86351 3.81028 8.05847 4.58523 9.05449C5.13374 9.7594 5.37832 10.61 5.37832 11.8125C5.37832 12.0083 5.38261 12.2087 5.39017 12.4102H8.47207V8.09346L7.50154 7.1229C7.2956 6.91695 7.2956 6.58307 7.50154 6.37713C7.70746 6.17118 8.04137 6.17118 8.24731 6.37713L8.99945 7.12926L9.75158 6.37713C9.95749 6.17118 10.2914 6.17118 10.4973 6.37713C10.7033 6.58307 10.7033 6.91695 10.4973 7.1229L9.52683 8.09342V12.4102H12.6158C12.6189 12.3021 12.6206 12.1963 12.6206 12.0937C12.6206 10.7826 12.8943 9.71332 13.3914 9.08289C15.1416 6.86306 14.9683 3.65681 12.9206 1.62355Z" />
		</symbol>
		<symbol id="fire" width="100%" height="100%" viewBox="0 0 18 18">
			<path d="M12.75 14.25V16.5H9.75001V14.25H8.25001V16.5H5.25001V14.25H3.75001V17.25C3.75001 17.4489 3.82903 17.6396 3.96968 17.7803C4.11033 17.9209 4.3011 18 4.50001 18H13.5C13.6989 18 13.8897 17.9209 14.0303 17.7803C14.171 17.6396 14.25 17.4489 14.25 17.25V14.25H12.75Z" />
			<path d="M8.99999 12.75C12.3645 12.75 14.625 10.7906 14.625 7.87498C14.625 6.65792 13.8367 4.63648 12.9381 3.54898C12.8839 3.48338 12.809 3.43816 12.7257 3.42075C12.6424 3.40334 12.5556 3.41477 12.4797 3.45317L10.7183 4.3438L9.35624 0.256389C9.33221 0.184225 9.2868 0.121075 9.22604 0.0753189C9.16528 0.0295632 9.09204 0.00336552 9.01605 0.00020244C8.94005 -0.00296064 8.86489 0.0170604 8.80054 0.0576088C8.73619 0.0981571 8.68569 0.157315 8.65574 0.227233L6.57955 5.07083L5.06465 4.10192C4.98389 4.05029 4.88642 4.03155 4.79227 4.04954C4.69812 4.06753 4.61443 4.1209 4.5584 4.19867C3.88124 5.13861 3.37499 6.9148 3.37499 7.87498C3.37499 10.7906 5.63549 12.75 8.99999 12.75ZM8.99999 5.99998C8.99999 5.99998 11.25 8.50733 11.25 9.74998C11.25 10.3467 11.0129 10.919 10.591 11.341C10.169 11.7629 9.59673 12 8.99999 12C8.40326 12 7.83096 11.7629 7.409 11.341C6.98705 10.919 6.74999 10.3467 6.74999 9.74998C6.74999 8.50733 8.99999 5.99998 8.99999 5.99998Z" />
		</symbol>
		<symbol id="h2o" width="100%" height="100%" viewBox="0 0 18 18">
			<path d="M1.61719 12.1992C1.61719 15.3978 4.21942 18 7.41797 18C10.6165 18 13.2188 15.3978 13.2188 12.1992C13.2188 10.886 12.7676 9.56391 11.9483 8.54114L7.41797 2.88303L2.88766 8.54114C2.06831 9.56391 1.61719 10.886 1.61719 12.1992ZM4.78125 12.1992C4.78125 13.653 5.96415 14.8359 7.41797 14.8359V15.8906C5.38274 15.8906 3.72656 14.2345 3.72656 12.1992H4.78125Z" />
			<path d="M13.7461 6.89062C15.1999 6.89062 16.3828 5.70772 16.3828 4.25391C16.3828 3.64778 16.1835 3.0787 15.8065 2.60852L13.7461 0L11.6857 2.60852C11.3087 3.0787 11.1094 3.64778 11.1094 4.25391C11.1094 5.70772 12.2923 6.89062 13.7461 6.89062Z" />
		</symbol>
		<symbol id="roundabout" width="100%" height="100%" viewBox="0 0 18 18">
			<path d="M17.9575 8.78534C17.8709 8.57495 17.665 8.4377 17.4377 8.4377H16.8752C16.8752 4.29295 13.6564 0.886239 9.58923 0.583595C9.26859 0.559969 8.99969 0.829985 8.99969 1.15063V3.41202C8.99969 3.70678 9.23146 3.93292 9.52398 3.9678C11.7595 4.22769 13.5 6.13356 13.5 8.4377H12.9374C12.7102 8.4377 12.5043 8.57495 12.4177 8.78534C12.331 8.99573 12.3794 9.23762 12.5392 9.3985L14.7893 11.6486C14.8996 11.7578 15.0436 11.8129 15.1876 11.8129C15.3316 11.8129 15.4756 11.7578 15.5859 11.6486L17.836 9.3985C17.9958 9.2365 18.0441 8.99573 17.9575 8.78534Z" />
			<path d="M7.7025 1.66814C7.63049 1.54438 7.51123 1.4465 7.36048 1.406L4.28679 0.581322C4.0674 0.522818 3.83339 0.601573 3.695 0.781584C3.55549 0.96272 3.53974 1.20911 3.6545 1.406L3.93577 1.89315C0.346801 3.96553 -0.994281 8.45567 0.777702 12.1301C0.91721 12.4193 1.28511 12.5172 1.563 12.3574L3.52174 11.2267C3.77713 11.0793 3.85701 10.7654 3.74113 10.4954C2.84895 8.42867 3.62862 5.96927 5.6245 4.8172L5.90576 5.30436C6.01827 5.50012 6.23878 5.60925 6.46492 5.58C6.69106 5.54962 6.87557 5.38761 6.9352 5.16822L7.75875 2.09454C7.79925 1.9449 7.7745 1.79189 7.7025 1.66814Z" />
			<path d="M15.2157 13.2079L13.257 12.0773C13.0016 11.9299 12.6899 12.0165 12.5144 12.2539C11.1711 14.0596 8.65093 14.6143 6.65506 13.4622L6.93633 12.9751C7.04996 12.7782 7.03421 12.5318 6.89582 12.3518C6.75744 12.1718 6.5223 12.0919 6.30291 12.1504L3.22923 12.9739C3.07959 13.0144 2.95921 13.1112 2.88721 13.2361C2.8152 13.361 2.79045 13.5128 2.83095 13.6625L3.6545 16.7362C3.71413 16.9555 3.89864 17.1187 4.12478 17.1479C4.35092 17.1783 4.57143 17.0681 4.68507 16.8712L4.96633 16.384C8.5553 18.4564 13.1152 17.3729 15.4115 14.0011C15.5915 13.7356 15.4925 13.3677 15.2157 13.2079Z" />
		</symbol>
		<symbol id="double-bed" width="100%" height="100%" viewBox="0 0 18 18">
			<path d="M4.35959 4.63702C4.2717 4.63702 4.20044 4.70829 4.20044 4.79618V5.80794H7.52676V4.79614C7.52676 4.70825 7.45553 4.63702 7.36764 4.63702H4.35959Z" />
			<path d="M10.6324 4.63702C10.5445 4.63702 10.4732 4.70829 10.4732 4.79618V5.80794H13.7995V4.79618C13.7995 4.70829 13.7283 4.63706 13.6404 4.63706H10.6324V4.63702Z" />
			<path d="M3.13525 5.79749V4.79614C3.13525 4.12103 3.68449 3.57179 4.3596 3.57179H7.36764C8.04274 3.57179 8.59199 4.12103 8.59199 4.79614V5.79749H9.408V4.79614C9.408 4.12103 9.95725 3.57179 10.6324 3.57179H13.6404C14.3155 3.57179 14.8647 4.12103 14.8647 4.79614V5.79749H15.7125C15.8779 5.79749 16.0394 5.81426 16.1956 5.84604V2.57876C16.1956 1.87571 15.6256 1.30576 14.9226 1.30576H3.07742C2.37436 1.30576 1.80444 1.87571 1.80444 2.57876V5.84604C1.96057 5.8143 2.12212 5.79749 2.28749 5.79749H3.13525Z" />
			<path d="M17.34 9.09882H0.659988C0.295488 9.09882 0 9.3943 0 9.7588V14.0846C0 14.4491 0.295488 14.7446 0.659988 14.7446H17.34C17.7045 14.7446 18 14.4491 18 14.0846V9.7588C18 9.3943 17.7045 9.09882 17.34 9.09882Z" />
			<path d="M15.7125 6.86273H2.28742C1.60173 6.86273 1.03543 7.3725 0.945923 8.03365H17.054C16.9645 7.3725 16.3982 6.86273 15.7125 6.86273Z" />
			<path d="M0.659607 15.8099V16.1618C0.659607 16.4559 0.898071 16.6944 1.19222 16.6944C1.48637 16.6944 1.72484 16.4559 1.72484 16.1618V15.8099H0.659994C0.659853 15.8099 0.659748 15.8099 0.659607 15.8099Z" />
			<path d="M16.2751 15.8099V16.1617C16.2751 16.4559 16.5136 16.6943 16.8078 16.6943C17.1019 16.6943 17.3404 16.4559 17.3404 16.1617V15.8098C17.3402 15.8098 17.3401 15.8098 17.34 15.8098H16.2751V15.8099Z" />
		</symbol>
		<symbol id="smart-home" width="100%" height="100%" viewBox="0 0 18 18">
			<path d="M17.8377 7.86761L9.33731 0.208823C9.1507 0.0407023 8.86719 0.0405811 8.68046 0.20846L0.162703 7.86731C0.011552 8.00331 -0.0402056 8.21834 0.0325217 8.40822C0.10537 8.5981 0.287552 8.72337 0.490946 8.72337H1.9421L8.67701 2.72773C8.86476 2.55579 9.15277 2.55567 9.34046 2.72779L16.0748 8.72337H17.509C17.7123 8.72337 17.8945 8.59822 17.9674 8.40846C18.0402 8.21864 17.9887 8.00367 17.8377 7.86761Z" />
			<path d="M2.55011 9.49825V17.4265C2.55011 17.6976 2.76993 17.9174 3.04108 17.9174H14.9761C15.2473 17.9174 15.4671 17.6976 15.4671 17.4265V9.49825L9.00872 3.75571L2.55011 9.49825ZM6.5029 11.9097C6.64162 12.1481 6.83162 12.4747 6.83162 13.0622C6.83162 13.6497 6.64162 13.9763 6.5029 14.2148C6.39823 14.3946 6.34066 14.4936 6.34066 14.7499C6.34066 15.0888 6.06593 15.3636 5.72696 15.3636C5.38805 15.3636 5.11326 15.0888 5.11326 14.7499C5.11326 14.1625 5.30326 13.8359 5.44199 13.5975C5.54659 13.4176 5.60429 13.3187 5.60429 13.0622C5.60429 12.8058 5.54659 12.7068 5.44199 12.5269C5.30326 12.2885 5.11326 11.9619 5.11326 11.3745C5.11326 10.7871 5.30326 10.4605 5.44199 10.2221C5.54666 10.0423 5.60429 9.94321 5.60429 9.68691C5.60429 9.348 5.87902 9.07328 6.21793 9.07328C6.5569 9.07328 6.83162 9.348 6.83162 9.68691C6.83162 10.2744 6.64162 10.6009 6.5029 10.8394C6.39823 11.0192 6.34066 11.1182 6.34066 11.3745C6.34066 11.6308 6.39823 11.7299 6.5029 11.9097ZM11.5176 12.5268C11.3788 12.2884 11.1888 11.9619 11.1888 11.3744C11.1888 10.787 11.3788 10.4605 11.5176 10.222C11.6222 10.0422 11.6798 9.94315 11.6798 9.68685C11.6798 9.34794 11.9546 9.07322 12.2935 9.07322C12.6324 9.07322 12.9072 9.34794 12.9072 9.68685C12.9072 10.2743 12.7172 10.6008 12.5785 10.8393C12.4738 11.0191 12.4162 11.1181 12.4162 11.3744C12.4162 11.6308 12.4738 11.7298 12.5785 11.9096C12.7172 12.1481 12.9072 12.4746 12.9072 13.0621C12.9072 13.6496 12.7172 13.9762 12.5785 14.2147C12.4738 14.3945 12.4162 14.4935 12.4162 14.7499C12.4162 15.0888 12.1414 15.3636 11.8025 15.3636C11.4636 15.3636 11.1888 15.0888 11.1888 14.7499C11.1888 14.1625 11.3788 13.8359 11.5176 13.5975C11.6222 13.4176 11.6798 13.3186 11.6798 13.0621C11.6798 12.8058 11.6221 12.7067 11.5176 12.5268ZM9.86938 9.68691C9.86938 10.2744 9.67938 10.6009 9.54066 10.8394C9.43599 11.0192 9.37841 11.1182 9.37841 11.3745C9.37841 11.6308 9.43599 11.7299 9.54066 11.9097C9.67938 12.1481 9.86938 12.4747 9.86938 13.0622C9.86938 13.6497 9.67938 13.9763 9.54066 14.2148C9.43599 14.3946 9.37841 14.4936 9.37841 14.7499C9.37841 15.0888 9.10362 15.3636 8.76472 15.3636C8.42575 15.3636 8.15102 15.0888 8.15102 14.7499C8.15102 14.1625 8.34102 13.8359 8.47975 13.5975C8.58435 13.4176 8.64199 13.3187 8.64199 13.0622C8.64199 12.8058 8.58435 12.7068 8.47975 12.5269C8.34102 12.2885 8.15102 11.9619 8.15102 11.3745C8.15102 10.7871 8.34102 10.4605 8.47975 10.2221C8.58441 10.0423 8.64199 9.94321 8.64199 9.68691C8.64199 9.348 8.91678 9.07328 9.25569 9.07328C9.59459 9.07328 9.86938 9.348 9.86938 9.68691Z" />
		</symbol>
		<symbol id="i" width="100%" height="100%" viewBox="0 0 18 18">
			<path d="M15.9375 0H2.0625C0.92475 0 0 0.92475 0 2.0625V15.9375C0 17.0753 0.92475 18 2.0625 18H15.9375C17.0753 18 18 17.0753 18 15.9375V2.0625C18 0.92475 17.0753 0 15.9375 0ZM9 3.75C9.414 3.75 9.75 4.086 9.75 4.5C9.75 4.914 9.414 5.25 9 5.25C8.586 5.25 8.25 4.914 8.25 4.5C8.25 4.086 8.586 3.75 9 3.75ZM10.6875 14.25H7.3125C6.8985 14.25 6.5625 13.914 6.5625 13.5C6.5625 13.086 6.8985 12.75 7.3125 12.75H8.25V8.25H7.6875C7.2735 8.25 6.9375 7.914 6.9375 7.5C6.9375 7.086 7.2735 6.75 7.6875 6.75H9C9.414 6.75 9.75 7.086 9.75 7.5V12.75H10.6875C11.1015 12.75 11.4375 13.086 11.4375 13.5C11.4375 13.914 11.1015 14.25 10.6875 14.25Z" />
		</symbol>
		<symbol id="cross" width="100%" height="100%" viewBox="0 0 17 16">
			<path d="M10.8932 7.76246L15.9397 12.8089L13.7645 14.9841L8.71805 9.93764L3.00043 15.6553L0.68852 13.3434L6.40614 7.62573L1.35972 2.57931L3.5349 0.404126L8.58132 5.45055L13.8639 0.167964L16.1758 2.47987L10.8932 7.76246Z" />
		</symbol>
		<symbol id="flat" width="100%" height="100%" viewBox="0 0 14 16">
			<path fill-rule="evenodd" clip-rule="evenodd" d="M1.60001 2.60005C1.60001 1.60594 2.4059 0.800049 3.40001 0.800049H10.6C11.5941 0.800049 12.4 1.60594 12.4 2.60005V13.4C12.8971 13.4 13.3 13.803 13.3 14.3C13.3 14.7971 12.8971 15.2 12.4 15.2H9.80001C9.24773 15.2 8.80001 14.7523 8.80001 14.2V12.5C8.80001 12.003 8.39707 11.6 7.90001 11.6H6.10001C5.60296 11.6 5.20001 12.003 5.20001 12.5V14.2C5.20001 14.7523 4.7523 15.2 4.20001 15.2H1.60001C1.10296 15.2 0.700012 14.7971 0.700012 14.3C0.700012 13.803 1.10296 13.4 1.60001 13.4V2.60005ZM4.30001 3.50005H6.10001V5.30005H4.30001V3.50005ZM6.10001 7.10005H4.30001V8.90005H6.10001V7.10005ZM7.90001 3.50005H9.70001V5.30005H7.90001V3.50005ZM9.70001 7.10005H7.90001V8.90005H9.70001V7.10005Z" />
		</symbol>
		<symbol id="send" width="100%" height="100%" viewBox="0 0 18 18">
			<path d="M17.7706 0.218415C17.6694 0.117675 17.5415 0.0479261 17.402 0.0173698C17.2625 -0.0131865 17.1172 -0.0032804 16.9831 0.0459235L0.483989 6.04562C0.341698 6.09959 0.219193 6.19557 0.132746 6.32082C0.0462985 6.44606 0 6.59465 0 6.74683C0 6.89901 0.0462985 7.04759 0.132746 7.17284C0.219193 7.29809 0.341698 7.39407 0.483989 7.44804L6.92616 10.0204L11.6809 5.25066L12.7384 6.3081L7.96111 11.0854L10.541 17.5275C10.5965 17.6671 10.6927 17.7867 10.8171 17.8709C10.9415 17.9552 11.0882 18.0001 11.2384 18C11.39 17.9969 11.5371 17.9479 11.6602 17.8596C11.7834 17.7712 11.8769 17.6476 11.9284 17.505L17.9281 1.00587C17.9792 0.873188 17.9915 0.728711 17.9636 0.589288C17.9357 0.449865 17.8688 0.321242 17.7706 0.218415Z" />
		</symbol>
		<symbol id="flag" width="100%" height="100%" viewBox="0 0 21 26">
			<path d="M17.3333 0H2.88889C2.12271 0 1.38791 0.304364 0.846136 0.846136C0.304364 1.38791 0 2.12271 0 2.88889V26L10.1111 20.2222L20.2222 26V2.88889C20.2222 2.12271 19.9179 1.38791 19.3761 0.846136C18.8343 0.304364 18.0995 0 17.3333 0Z" />
		</symbol>
		<symbol id="pdf" width="100%" height="100%" viewBox="0 0 20 20">
			<path d="M6.8891 12.2333C6.73577 12.2333 6.63243 12.2483 6.5791 12.2633V13.245C6.64243 13.26 6.7216 13.2642 6.83077 13.2642C7.22993 13.2642 7.47577 13.0625 7.47577 12.7217C7.47577 12.4167 7.2641 12.2333 6.8891 12.2333ZM9.79493 12.2433C9.62827 12.2433 9.51994 12.2583 9.45577 12.2733V14.4483C9.51994 14.4633 9.62327 14.4633 9.7166 14.4633C10.3974 14.4683 10.8408 14.0933 10.8408 13.3C10.8458 12.6083 10.4416 12.2433 9.79493 12.2433Z" />
			<path d="M11.6666 1.66666H4.99992C4.55789 1.66666 4.13397 1.84225 3.82141 2.15481C3.50885 2.46737 3.33325 2.8913 3.33325 3.33332V16.6667C3.33325 17.1087 3.50885 17.5326 3.82141 17.8452C4.13397 18.1577 4.55789 18.3333 4.99992 18.3333H14.9999C15.4419 18.3333 15.8659 18.1577 16.1784 17.8452C16.491 17.5326 16.6666 17.1087 16.6666 16.6667V6.66666L11.6666 1.66666ZM7.91492 13.4917C7.65742 13.7333 7.27742 13.8417 6.83492 13.8417C6.74912 13.8426 6.66336 13.8376 6.57825 13.8267V15.015H5.83325V11.735C6.16946 11.6848 6.50918 11.662 6.84908 11.6667C7.31325 11.6667 7.64325 11.755 7.86575 11.9325C8.07742 12.1008 8.22075 12.3767 8.22075 12.7017C8.21992 13.0283 8.11159 13.3042 7.91492 13.4917ZM11.0874 14.6208C10.7374 14.9117 10.2049 15.05 9.55408 15.05C9.16408 15.05 8.88825 15.025 8.70075 15V11.7358C9.03709 11.6867 9.3767 11.6636 9.71658 11.6667C10.3474 11.6667 10.7574 11.78 11.0774 12.0217C11.4233 12.2783 11.6399 12.6875 11.6399 13.275C11.6399 13.9108 11.4074 14.35 11.0874 14.6208ZM14.1666 12.3083H12.8899V13.0675H14.0833V13.6792H12.8899V15.0158H12.1349V11.6917H14.1666V12.3083ZM11.6666 7.49999H10.8333V3.33332L14.9999 7.49999H11.6666Z" />
		</symbol>
		<symbol id="homegroup" width="100%" height="100%" viewBox="0 0 22 13">
			<path d="M6.01562 11.9773V12.0312H6.27344H7.30469V8.16406H6.01562V11.9773Z" />
			<path d="M11.4324 0.16761C11.1866 -0.0558701 10.8111 -0.0558701 10.5653 0.16761L9.78711 0.875091L13.9753 4.68255C14.7642 5.39979 14.8226 6.62508 14.1054 7.41399C13.8887 7.65229 13.6174 7.83036 13.3192 7.93593V12.0312H16.37V6.39838L16.5809 6.59019C16.7044 6.70247 16.8596 6.75781 17.0143 6.75781C17.1896 6.75781 17.3642 6.68674 17.4914 6.54684C17.7309 6.28344 17.7114 5.87579 17.4481 5.63637L11.4324 0.16761Z" />
			<path d="M7.09372 0.16761C6.84789 -0.0558701 6.47243 -0.0558701 6.22661 0.16761L0.210982 5.63637C-0.0600645 5.88276 -0.0727403 6.30724 0.189111 6.5694C0.434377 6.81492 0.83476 6.8114 1.09154 6.57795L1.28907 6.39838V11.3867C1.28907 11.7427 1.57765 12.0312 1.9336 12.0312H4.72657V7.51952C4.72657 7.16357 5.01515 6.87499 5.3711 6.87499H7.94922C8.30518 6.87499 8.59376 7.16357 8.59376 7.51952V12.0312H12.0313V6.39838L12.2422 6.59019C12.3657 6.70247 12.5209 6.75781 12.6756 6.75781C12.8508 6.75781 13.0255 6.68674 13.1527 6.54684C13.3922 6.28344 13.3727 5.87579 13.1093 5.63637L7.09372 0.16761ZM7.30469 5.58593H6.01563C5.65968 5.58593 5.3711 5.29735 5.3711 4.9414C5.3711 4.58544 5.65968 4.29686 6.01563 4.29686H7.30469C7.66065 4.29686 7.94922 4.58544 7.94922 4.9414C7.94922 5.29735 7.66065 5.58593 7.30469 5.58593Z" />
			<path d="M21.7879 5.63637L15.7723 0.16761C15.5264 -0.0558701 15.151 -0.0558701 14.9052 0.16761L14.127 0.875091L18.3152 4.68255C19.1041 5.39979 19.1624 6.62508 18.4452 7.41399C18.2286 7.65229 17.9572 7.83036 17.659 7.93593V12.0312H20.0653C20.4212 12.0312 20.7098 11.7427 20.7098 11.3867V6.39838L20.9208 6.59019C21.0443 6.70247 21.1994 6.75781 21.3541 6.75781C21.5294 6.75781 21.7041 6.68674 21.8312 6.54684C22.0707 6.28344 22.0513 5.87584 21.7879 5.63637Z" />
		</symbol>
		<symbol id="bench" width="100%" height="100%" viewBox="0 0 18 18">
			<path d="M17.4693 16.9438H16.942V13.7452H13.7786V16.9438H11.6696V14.7996H12.1969C12.4883 14.7996 12.7241 14.5638 12.7241 14.2724V13.2179C12.7241 12.3457 12.0146 11.6362 11.1424 11.6362H10.6151V10.5817H11.1424C11.4338 10.5817 11.6696 10.3459 11.6696 10.0545V7.94555C11.6696 7.07335 10.9601 6.36383 10.0879 6.36383H2.63619C1.764 6.36383 1.05448 7.07335 1.05448 7.94555V10.0545C1.05448 10.3459 1.2903 10.5817 1.58171 10.5817H2.10895V11.6362H1.58171C0.709523 11.6362 0 12.3457 0 13.2179V14.2724C0 14.5638 0.235828 14.7996 0.527238 14.7996H1.05448V16.9438H0.527238C0.235828 16.9438 0 17.1796 0 17.471C0 17.7625 0.235828 17.9983 0.527238 17.9983C6.38996 17.9983 10.6029 17.9983 17.4693 17.9983C17.7607 17.9983 17.9965 17.7624 17.9965 17.471C17.9965 17.1796 17.7607 16.9438 17.4693 16.9438ZM3.16347 10.5817H9.56067V11.6362H3.16347V10.5817ZM10.6151 16.9438H2.10895V14.7996H10.6151V16.9438H10.6151Z" />
			<path d="M17.9409 2.40213L16.8864 0.29318C16.7968 0.114516 16.6146 0.00177002 16.4148 0.00177002H14.3059C14.1061 0.00177002 13.9238 0.114516 13.8342 0.29318L12.7798 2.40213C12.6131 2.7345 12.7998 3.1652 13.3321 3.1652L13.6391 5.04209C13.7452 5.68112 14.2273 6.15288 14.8331 6.29839V10.6788C14.2207 10.8972 13.7786 11.477 13.7786 12.1634V12.6907H16.9421V12.1634C16.9421 11.477 16.5 10.8972 15.8876 10.6788V6.29839C16.4935 6.15288 16.9755 5.68116 17.0816 5.04209L17.3886 3.1652C17.9338 3.1652 18.1036 2.72659 17.9409 2.40213ZM16.0415 4.86912C15.9993 5.12396 15.7805 5.30934 15.5215 5.30934H15.1992C14.9402 5.30934 14.7214 5.124 14.6792 4.86912L14.4011 3.1652H16.3196L16.0415 4.86912Z" />
		</symbol>
		<symbol id="wallet-filled-money-tool" width="100%" height="100%" viewBox="0 0 18 18">
			<path d="M4.20698 3.64977L11.3827 1.69109L11.0027 0.922984C10.7541 0.423714 10.1477 0.217538 9.64842 0.466162L3.22461 3.64977H4.20698Z" />
			<path d="M13.6088 1.74768C13.5198 1.74768 13.4309 1.75981 13.342 1.78406L11.6562 2.24493L6.50781 3.64975H12.3515H14.8984L14.5831 2.49355C14.4618 2.04279 14.0535 1.74768 13.6088 1.74768Z" />
			<path d="M15.9524 4.35724H15.722H15.4086H15.0953H12.7041H3.91735H2.76519H1.79495H1.61505H1.01269C0.693318 4.35724 0.40831 4.5048 0.222347 4.73725C0.137451 4.84438 0.0727681 4.96768 0.0363841 5.10311C0.0141494 5.18801 0 5.27695 0 5.36791V5.48919V6.64135V16.6288C0 17.1867 0.452779 17.6394 1.01067 17.6394H15.9504C16.5083 17.6394 16.961 17.1867 16.961 16.6288V13.809H10.9637C10.0157 13.809 9.24559 13.0389 9.24559 12.0909V11.1651V10.8518V10.5385V9.84315C9.24559 9.37824 9.43154 8.9558 9.73273 8.64653C9.99955 8.37161 10.3573 8.18565 10.7576 8.13916C10.8243 8.13109 10.893 8.12703 10.9617 8.12703H16.1202H16.4335H16.7468H16.961V5.36791C16.9631 4.81002 16.5103 4.35724 15.9524 4.35724Z" />
			<path d="M17.6706 9.09321C17.5695 9.00022 17.4502 8.92948 17.3168 8.88299C17.2137 8.84864 17.1046 8.82843 16.9894 8.82843H16.9631H16.9429H16.6296H15.4997H10.9638C10.4059 8.82843 9.95312 9.28119 9.95312 9.8391V10.3424V10.6557V10.969V12.0888C9.95312 12.6467 10.4059 13.0995 10.9638 13.0995H16.9631H16.9894C17.1046 13.0995 17.2137 13.0793 17.3168 13.0449C17.4502 13.0004 17.5695 12.9277 17.6706 12.8347C17.8727 12.6508 18 12.3839 18 12.0888V9.8391C18 9.54396 17.8727 9.27713 17.6706 9.09321ZM13.0741 11.1651C13.0741 11.444 12.8477 11.6704 12.5687 11.6704H12.2332C11.9542 11.6704 11.7279 11.444 11.7279 11.1651V10.8295C11.7279 10.6678 11.8026 10.5243 11.9219 10.4333C12.0088 10.3666 12.116 10.3242 12.2332 10.3242H12.3181H12.5687C12.8477 10.3242 13.0741 10.5506 13.0741 10.8295V11.1651Z" />
		</symbol>
		<symbol id="car" width="100%" height="100%" viewBox="0 0 16 12">
			<path d="M15.7492 7.75427V5.62155C15.7492 5.15237 15.5275 4.468 14.504 3.81129C14.504 3.81129 13.1525 0.866852 10.7473 0.866852H5.25308C2.84791 0.866852 1.49626 3.81129 1.49626 3.81129C0.472745 4.468 0.251021 5.15237 0.251021 5.62155V7.75427C0.111256 7.76192 0 7.87761 0 8.0194V9.37677C0 9.4928 0.0750139 9.58828 0.178425 9.62453V10.8673C0.178425 11.0141 0.297188 11.1331 0.444095 11.1331H2.27387C2.42074 11.1331 2.53945 11.0141 2.53945 10.8673V9.63698C3.29164 9.38843 4.04926 9.20863 4.79574 9.08478H11.2048C11.9512 9.2086 12.7085 9.38843 13.4611 9.63698V10.8673C13.4611 11.0141 13.5795 11.1331 13.7264 11.1331H15.5564C15.703 11.1331 15.8218 11.0141 15.8218 10.8673V9.62453C15.9252 9.58831 16 9.4926 16 9.37677V8.0194C16 7.87761 15.8888 7.76192 15.7492 7.75427ZM4.00208 7.87469H2.03612C1.7398 7.87469 1.49845 7.63331 1.49845 7.33742V6.79984C1.49845 6.50355 1.73986 6.26231 2.03612 6.26231C2.06718 6.26231 2.09811 6.2676 2.12732 6.27842L4.36205 7.08479C4.46892 7.12337 4.53946 7.22428 4.53946 7.3377C4.53946 7.63331 4.29842 7.87469 4.00208 7.87469ZM9.84085 7.73324C9.84085 7.84705 9.7486 7.93916 9.63493 7.93916H6.36566C6.25174 7.93916 6.15974 7.84705 6.15974 7.73324V7.25265C6.15974 7.13878 6.25179 7.04672 6.36566 7.04672H9.63493C9.74897 7.04672 9.84085 7.13878 9.84085 7.25265V7.73324ZM2.89501 3.87227C3.43124 2.93738 4.35314 1.74208 5.56174 1.74208H10.4381C11.6466 1.74208 12.5689 2.93738 13.105 3.87227H2.89501ZM14.5019 7.33688C14.5019 7.63331 14.2606 7.87463 13.9641 7.87463H11.9982C11.7017 7.87463 11.4605 7.63331 11.4605 7.33688C11.4605 7.22343 11.5317 7.1225 11.6383 7.08367L13.8728 6.27755C13.9026 6.26667 13.9328 6.26144 13.9641 6.26144C14.2607 6.26144 14.5019 6.50273 14.5019 6.79896V7.33688Z" />
		</symbol>
		<symbol id="call" width="100%" height="100%" viewBox="0 0 18 18">
			<path d="M16.5557 11.8149C15.4537 11.8149 14.3716 11.6426 13.3462 11.3037C12.8438 11.1323 12.2261 11.2896 11.9194 11.6045L9.8955 13.1324C7.54833 11.8794 6.10252 10.4341 4.8667 8.10455L6.34959 6.13336C6.73486 5.74861 6.87305 5.18658 6.70748 4.65923C6.36717 3.62845 6.1943 2.54691 6.1943 1.44441C6.19434 0.647953 5.54639 0 4.74998 0H1.44436C0.647953 0 0 0.647953 0 1.44436C0 10.5733 7.42678 18 16.5557 18C17.3521 18 18 17.352 18 16.5556V13.2593C18 12.4629 17.352 11.8149 16.5557 11.8149Z" />
		</symbol>
	</defs>
</svg>
