<svg width="17" height="17" viewBox="0 0 17 17" fill="none" xmlns="http://www.w3.org/2000/svg">
	<path d="M8.5 0C6.02839 0 4.01758 2.01081 4.01758 4.48242C4.01758 6.95403 6.02839 8.96484 8.5 8.96484C10.9716 8.96484 12.9824 6.95403 12.9824 4.48242C12.9824 2.01081 10.9716 0 8.5 0Z" fill="white" />
	<path d="M14.077 11.8932C12.8498 10.6471 11.223 9.96094 9.49609 9.96094H7.50391C5.77708 9.96094 4.15019 10.6471 2.923 11.8932C1.70183 13.1331 1.0293 14.7698 1.0293 16.502C1.0293 16.777 1.25229 17 1.52734 17H15.4727C15.7477 17 15.9707 16.777 15.9707 16.502C15.9707 14.7698 15.2982 13.1331 14.077 11.8932Z" fill="white" />
</svg>
