<svg width="18" height="22" viewBox="0 0 18 22" fill="none" xmlns="http://www.w3.org/2000/svg">
<path d="M16.1562 2.75H12.375V2.0625C12.375 0.923398 11.4516 0 10.3125 0H7.5625C6.4234 0 5.5 0.923398 5.5 2.0625V2.75H1.71875C0.769527 2.75 0 3.51953 0 4.46875V5.84375C0 6.22346 0.307785 6.53125 0.6875 6.53125H17.1875C17.5672 6.53125 17.875 6.22346 17.875 5.84375V4.46875C17.875 3.51953 17.1055 2.75 16.1562 2.75ZM6.875 2.0625C6.875 1.68352 7.18352 1.375 7.5625 1.375H10.3125C10.6915 1.375 11 1.68352 11 2.0625V2.75H6.875V2.0625Z" fill="#fff"/>
<path d="M1.30468 7.90625C1.182 7.90625 1.08425 8.00877 1.09009 8.13132L1.65728 20.0355C1.7097 21.1372 2.61462 22 3.7172 22H14.1577C15.2603 22 16.1652 21.1372 16.2177 20.0355L16.7849 8.13132C16.7907 8.00877 16.6929 7.90625 16.5703 7.90625H1.30468ZM11.6875 9.625C11.6875 9.24516 11.9951 8.9375 12.375 8.9375C12.7548 8.9375 13.0625 9.24516 13.0625 9.625V18.5625C13.0625 18.9423 12.7548 19.25 12.375 19.25C11.9951 19.25 11.6875 18.9423 11.6875 18.5625V9.625ZM8.24998 9.625C8.24998 9.24516 8.55763 8.9375 8.93748 8.9375C9.31732 8.9375 9.62498 9.24516 9.62498 9.625V18.5625C9.62498 18.9423 9.31732 19.25 8.93748 19.25C8.55763 19.25 8.24998 18.9423 8.24998 18.5625V9.625ZM4.81248 9.625C4.81248 9.24516 5.12013 8.9375 5.49998 8.9375C5.87982 8.9375 6.18748 9.24516 6.18748 9.625V18.5625C6.18748 18.9423 5.87982 19.25 5.49998 19.25C5.12013 19.25 4.81248 18.9423 4.81248 18.5625V9.625Z" fill="#fff"/>
</svg>
