<svg width="18" height="18" viewBox="0 0 18 18" fill="none" xmlns="http://www.w3.org/2000/svg">
<g >
<path d="M12.75 14.25V16.5H9.75001V14.25H8.25001V16.5H5.25001V14.25H3.75001V17.25C3.75001 17.4489 3.82903 17.6396 3.96968 17.7803C4.11033 17.9209 4.3011 18 4.50001 18H13.5C13.6989 18 13.8897 17.9209 14.0303 17.7803C14.171 17.6396 14.25 17.4489 14.25 17.25V14.25H12.75Z" fill="#3EA849"/>
<path d="M8.99999 12.75C12.3645 12.75 14.625 10.7906 14.625 7.87498C14.625 6.65792 13.8367 4.63648 12.9381 3.54898C12.8839 3.48338 12.809 3.43816 12.7257 3.42075C12.6424 3.40334 12.5556 3.41477 12.4797 3.45317L10.7183 4.3438L9.35624 0.256389C9.33221 0.184225 9.2868 0.121075 9.22604 0.0753189C9.16528 0.0295632 9.09204 0.00336552 9.01605 0.00020244C8.94005 -0.00296064 8.86489 0.0170604 8.80054 0.0576088C8.73619 0.0981571 8.68569 0.157315 8.65574 0.227233L6.57955 5.07083L5.06465 4.10192C4.98389 4.05029 4.88642 4.03155 4.79227 4.04954C4.69812 4.06753 4.61443 4.1209 4.5584 4.19867C3.88124 5.13861 3.37499 6.9148 3.37499 7.87498C3.37499 10.7906 5.63549 12.75 8.99999 12.75ZM8.99999 5.99998C8.99999 5.99998 11.25 8.50733 11.25 9.74998C11.25 10.3467 11.0129 10.919 10.591 11.341C10.169 11.7629 9.59673 12 8.99999 12C8.40326 12 7.83096 11.7629 7.409 11.341C6.98705 10.919 6.74999 10.3467 6.74999 9.74998C6.74999 8.50733 8.99999 5.99998 8.99999 5.99998Z" fill="#3EA849"/>
</g>

</svg>
