<svg width="18" height="18" viewBox="0 0 18 18" fill="none" xmlns="http://www.w3.org/2000/svg">
<path d="M15.9375 0H2.0625C0.92475 0 0 0.92475 0 2.0625V15.9375C0 17.0753 0.92475 18 2.0625 18H15.9375C17.0753 18 18 17.0753 18 15.9375V2.0625C18 0.92475 17.0753 0 15.9375 0ZM9 3.75C9.414 3.75 9.75 4.086 9.75 4.5C9.75 4.914 9.414 5.25 9 5.25C8.586 5.25 8.25 4.914 8.25 4.5C8.25 4.086 8.586 3.75 9 3.75ZM10.6875 14.25H7.3125C6.8985 14.25 6.5625 13.914 6.5625 13.5C6.5625 13.086 6.8985 12.75 7.3125 12.75H8.25V8.25H7.6875C7.2735 8.25 6.9375 7.914 6.9375 7.5C6.9375 7.086 7.2735 6.75 7.6875 6.75H9C9.414 6.75 9.75 7.086 9.75 7.5V12.75H10.6875C11.1015 12.75 11.4375 13.086 11.4375 13.5C11.4375 13.914 11.1015 14.25 10.6875 14.25Z" fill="#0084E6"/>


<!-- _____  -->
<!--|     | -->
<!--|  i  | -->
<!--|_____| -->
</svg>
