<svg width="21" height="21" viewBox="0 0 21 21" fill="none" xmlns="http://www.w3.org/2000/svg">
<path d="M12 3H16V0L21 5L16 10V7H12V3ZM18 11.94V19C18 19.5304 17.7893 20.0391 17.4142 20.4142C17.0391 20.7893 16.5304 21 16 21H2C1.46957 21 0.960859 20.7893 0.585786 20.4142C0.210714 20.0391 0 19.5304 0 19V5C0 4.46957 0.210714 3.96086 0.585786 3.58579C0.960859 3.21071 1.46957 3 2 3H9.06C9 3.33 9 3.67 9 4C9 6.12173 9.84285 8.15656 11.3431 9.65685C12.8434 11.1571 14.8783 12 17 12C17.33 12 17.67 12 18 11.94ZM16 18L11.5 12L8 16.5L5.5 13.5L2 18H16Z" fill="#0084E6"/>
</svg>
