<svg width="18" height="18" viewBox="0 0 18 18" fill="none" xmlns="http://www.w3.org/2000/svg">
<g >
<path d="M5.57812 14.6602H12.4235C12.4678 14.3065 12.5146 13.891 12.5515 13.4649H5.45535C5.4917 13.9018 5.53621 14.3133 5.57812 14.6602Z" fill="#3EA849"/>
<path d="M8.98839 18C8.99521 18.0001 9.0034 18.0002 9.01036 18C11.1747 17.9549 12.1124 16.8014 12.276 15.7149H5.72269C5.88637 16.8014 6.8241 17.9549 8.98839 18Z" fill="#3EA849"/>
<path d="M12.9206 1.62355C11.8572 0.567557 10.4483 -0.0113964 8.95923 0.000170019C5.91326 0.0216153 3.42374 2.53314 3.40964 5.59873C3.4038 6.86351 3.81028 8.05847 4.58523 9.05449C5.13374 9.7594 5.37832 10.61 5.37832 11.8125C5.37832 12.0083 5.38261 12.2087 5.39017 12.4102H8.47207V8.09346L7.50154 7.1229C7.2956 6.91695 7.2956 6.58307 7.50154 6.37713C7.70746 6.17118 8.04137 6.17118 8.24731 6.37713L8.99945 7.12926L9.75158 6.37713C9.95749 6.17118 10.2914 6.17118 10.4973 6.37713C10.7033 6.58307 10.7033 6.91695 10.4973 7.1229L9.52683 8.09342V12.4102H12.6158C12.6189 12.3021 12.6206 12.1963 12.6206 12.0937C12.6206 10.7826 12.8943 9.71332 13.3914 9.08289C15.1416 6.86306 14.9683 3.65681 12.9206 1.62355Z" fill="#3EA849"/>
</g>

</svg>
