<svg width="170" height="58" viewBox="0 0 170 58" fill="none" xmlns="http://www.w3.org/2000/svg">
<g clip-path="url(#clip0)">
<path d="M87.7264 34.4449H75.6389L72.8553 41.3084H68.6991L79.9858 14.6168H83.6082L94.7806 41.3084H90.5099L87.7264 34.4449ZM86.2774 30.8606L81.7017 19.4594L77.0878 30.8606H86.2774ZM113.848 22.243L105.612 41.3084H102.257L94.0203 22.243H97.8334L103.934 37.0378L110.15 22.243H113.848ZM132.227 38.9824C130.27 40.9144 127.83 41.8804 124.906 41.8804C121.983 41.8804 119.53 40.9144 117.547 38.9824C115.59 37.0505 114.611 34.6482 114.611 31.7757C114.611 28.9032 115.59 26.5009 117.547 24.569C119.53 22.637 121.983 21.671 124.906 21.671C127.83 21.671 130.27 22.637 132.227 24.569C134.21 26.5009 135.202 28.9032 135.202 31.7757C135.202 34.6482 134.21 37.0505 132.227 38.9824ZM120.064 36.6183C121.335 37.8893 122.949 38.5249 124.906 38.5249C126.864 38.5249 128.465 37.8893 129.711 36.6183C130.982 35.3473 131.617 33.7331 131.617 31.7757C131.617 29.8183 130.982 28.2041 129.711 26.9331C128.465 25.6621 126.864 25.0265 124.906 25.0265C122.949 25.0265 121.335 25.6621 120.064 26.9331C118.818 28.2041 118.195 29.8183 118.195 31.7757C118.195 33.7331 118.818 35.3473 120.064 36.6183ZM140.336 12.7103H143.768V41.3084H140.336V12.7103ZM157.715 21.671C160.256 21.671 162.188 22.3193 163.51 23.6157C164.857 24.8867 165.531 26.7297 165.531 29.1447V41.3084H162.099V39.0968C161.336 39.9357 160.243 40.6093 158.82 41.1178C157.422 41.6262 156.1 41.8804 154.855 41.8804C153.126 41.8804 151.69 41.4609 150.546 40.6221C149.427 39.7578 148.868 38.4994 148.868 36.8471C148.868 35.1693 149.504 33.8983 150.775 33.034C152.071 32.1443 153.851 31.4834 156.113 31.0512C158.96 30.4665 160.637 30.0344 161.146 29.7548C161.832 29.3735 162.175 28.7379 162.175 27.8482C162.175 26.9331 161.781 26.1959 160.993 25.6366C160.205 25.0774 159.099 24.7978 157.676 24.7978C156.177 24.7978 154.74 25.2045 153.368 26.0179C152.02 26.8314 151.016 27.9626 150.355 29.4116L148.144 26.7043C149.237 25.1282 150.622 23.8953 152.3 23.0056C153.978 22.1159 155.783 21.671 157.715 21.671ZM155.312 38.8299C157.041 38.8299 158.617 38.3342 160.04 37.3428C161.489 36.3514 162.213 35.1821 162.213 33.8348V31.9664C161.146 32.6019 159.531 33.1484 157.371 33.606C156.431 33.8093 155.719 33.9746 155.236 34.1017C154.753 34.2288 154.245 34.4067 153.711 34.6355C153.177 34.8643 152.808 35.1312 152.605 35.4363C152.402 35.7413 152.3 36.1226 152.3 36.5802C152.3 38.08 153.304 38.8299 155.312 38.8299Z" fill="#fff"/>
<path d="M38.1308 0H19.0654C8.53588 0 0 8.53588 0 19.0654V38.1308C0 48.6604 8.53588 57.1963 19.0654 57.1963H38.1308C48.6604 57.1963 57.1963 48.6604 57.1963 38.1308V19.0654C57.1963 8.53588 48.6604 0 38.1308 0Z" fill="#0084E6"/>
<path d="M21.6626 13.3623C21.1895 12.3109 21.9584 11.1215 23.1114 11.1215H30.7938C31.3955 11.1215 31.9457 11.4615 32.2148 11.9997L46.5142 40.5979C47.0425 41.6543 46.2743 42.8972 45.0932 42.8972H35.9809C35.3557 42.8972 34.7887 42.5305 34.5321 41.9605L21.6626 13.3623Z" fill="white"/>
<path d="M22.8482 11.5666C22.9629 11.2967 23.2277 11.1215 23.521 11.1215C24.045 11.1215 24.3988 11.6564 24.1939 12.1386L11.3107 42.452C11.196 42.722 10.9311 42.8972 10.6378 42.8972C10.1139 42.8972 9.76004 42.3623 9.96497 41.8801L22.8482 11.5666Z" fill="white"/>
<path d="M13.0999 35.1007C13.3938 34.4582 14.3173 34.4903 14.5659 35.1517L17.0731 41.8233C17.2683 42.3427 16.8843 42.8972 16.3295 42.8972H10.7698C10.1912 42.8972 9.80666 42.2984 10.0474 41.7723L13.0999 35.1007Z" fill="white"/>
</g>
<defs>
<clipPath id="clip0">
<rect width="170" height="57.1963" fill="white"/>
</clipPath>
</defs>
</svg>
