<svg width="24" height="24" viewBox="0 0 24 24" fill="none" xmlns="http://www.w3.org/2000/svg">
<g >
<path d="M12 0C5.36171 0 0 5.36171 0 12C0 18.6383 5.36171 24 12 24C18.6383 24 24 18.6383 24 12C24 5.36171 18.6383 0 12 0ZM12 22.0085C6.48513 22.0085 1.99149 17.5149 1.99149 12C1.99149 6.48508 6.48513 1.99149 12 1.99149C17.5149 1.99149 22.0086 6.48513 22.0086 12C22.0086 17.5149 17.5149 22.0085 12 22.0085Z" fill="#3EA849"/>
<path d="M8.06765 7.45532C7.50596 7.45532 7.04639 7.9149 7.04639 8.47658V8.73189C7.04639 9.29357 7.50596 9.75315 8.06765 9.75315C8.62933 9.75315 9.08891 9.29357 9.08891 8.73189V8.47658C9.08896 7.9149 8.62938 7.45532 8.06765 7.45532Z" fill="#3EA849"/>
<path d="M15.9319 7.45532C15.3702 7.45532 14.9106 7.9149 14.9106 8.47658V8.73189C14.9106 9.29357 15.3702 9.75315 15.9319 9.75315C16.4936 9.75315 16.9532 9.29357 16.9532 8.73189V8.47658C16.9532 7.9149 16.4936 7.45532 15.9319 7.45532Z" fill="#3EA849"/>
<path d="M17.8721 13.4809C17.4636 13.0724 16.8508 13.0724 16.4423 13.4809C13.9912 15.9319 10.0593 15.9319 7.60826 13.4809C7.19977 13.0724 6.587 13.0724 6.17846 13.4809C5.76992 13.8894 5.76996 14.5021 6.17846 14.9107C7.76146 16.4937 9.90614 17.3107 11.9997 17.3107C14.0933 17.3107 16.238 16.5447 17.8721 14.9107C18.2806 14.5021 18.2806 13.8894 17.8721 13.4809Z" fill="#3EA849"/>
</g>

</svg>
