<svg width="28" height="28" viewBox="0 0 28 28" fill="none" xmlns="http://www.w3.org/2000/svg">
<path d="M27.8199 15.2469L25.7623 11.9819C25.5993 11.723 25.5444 11.4105 25.609 11.1116L26.4258 7.33979C26.5532 6.75197 26.2131 6.16361 25.6405 5.97987L21.9656 4.80136C21.6744 4.70789 21.4313 4.50398 21.2888 4.23345L19.49 0.81916C19.2099 0.286888 18.5713 0.0546077 18.0144 0.281901L14.4415 1.74146C14.1584 1.85685 13.8412 1.85685 13.558 1.74146L9.98573 0.282175C9.42889 0.0548822 8.79029 0.287162 8.50984 0.819434L6.71112 4.2334C6.56856 4.50393 6.32548 4.70785 6.03423 4.80132L2.35938 5.97983C1.78648 6.16356 1.44673 6.75197 1.57411 7.33974L2.39063 11.1116C2.45551 11.4104 2.40028 11.723 2.23727 11.9819L0.179968 15.2469C-0.140795 15.7558 -0.0224819 16.4248 0.45283 16.7935L3.5028 19.1578C3.74469 19.3454 3.90331 19.62 3.94481 19.9233L4.46747 23.7468C4.54868 24.3428 5.06956 24.7796 5.67023 24.7562L9.52652 24.6069C9.8321 24.5949 10.1301 24.7036 10.3571 24.909L13.2148 27.502C13.6603 27.9061 14.3402 27.9061 14.7854 27.502L17.6434 24.909C17.8698 24.7033 18.1681 24.5949 18.474 24.6069L22.33 24.7562C22.9312 24.7796 23.4515 24.3425 23.533 23.7468L24.0557 19.9233C24.0972 19.62 24.2558 19.3454 24.4974 19.1578L27.5474 16.7935C28.0226 16.4248 28.1407 15.7558 27.8199 15.2469ZM10.7623 18.6629L7.35676 16.2843L8.75644 19.5283L7.82361 19.9309L5.67696 14.9568L6.65388 14.5349L10.1237 16.9781L8.68982 13.6565L9.62265 13.2536L11.7699 18.2279L10.7623 18.6629ZM12.8318 17.7696L10.6851 12.7955L14.3734 11.2033L14.7363 12.045L12.0521 13.2033L12.528 14.3059L15.0255 13.2279L15.3872 14.066L12.8897 15.1437L13.474 16.4975L16.2528 15.2983L16.6145 16.1365L12.8318 17.7696ZM21.24 14.1409L18.6443 10.8493L19.2616 14.9942L18.1724 15.4643L14.8385 11.003L15.8663 10.5589L18.0909 13.6521L17.5256 9.84317L18.7205 9.32755L21.0918 12.4257L20.3556 8.62174L21.3667 8.18527L22.3054 13.6811L21.24 14.1409Z" fill="#DFAA19"/>
</svg>
