<svg width="16" height="16" viewBox="0 0 16 16" fill="none" xmlns="http://www.w3.org/2000/svg">
<g >
<path d="M16 2.66667V2C16 1.46957 15.7893 0.960859 15.4142 0.585786C15.0391 0.210714 14.5304 0 14 0C13.4696 0 12.9609 0.210714 12.5858 0.585786C12.2107 0.960859 12 1.46957 12 2V4H8.66667V2C8.66667 1.82319 8.73691 1.65362 8.86193 1.5286C8.98695 1.40357 9.15652 1.33333 9.33333 1.33333C9.51014 1.33333 9.67971 1.40357 9.80474 1.5286C9.92976 1.65362 10 1.82319 10 2V2.66667H11.3333V2C11.3333 1.46957 11.1226 0.960859 10.7475 0.585786C10.3725 0.210714 9.86377 4.21468e-08 9.33333 4.21468e-08C8.8029 4.21468e-08 8.29419 0.210714 7.91912 0.585786C7.54405 0.960859 7.33333 1.46957 7.33333 2V9.43333C7.0276 9.36226 6.71435 9.32868 6.4005 9.33333C4.8005 9.33333 4.8005 10 3.2005 10C1.6005 10 1.6 9.33333 0 9.33333V12C1.6 12 1.6 12.6667 3.2 12.6667C4.8 12.6667 4.8 12 6.4 12C8 12 8 12.6667 9.6 12.6667C11.2 12.6667 11.2 12 12.8 12C14.4 12 14.4 12.6667 16 12.6667V10C14.6009 10 14.425 9.49025 13.3333 9.36225V2C13.3333 1.82319 13.4036 1.65362 13.5286 1.5286C13.6536 1.40357 13.8232 1.33333 14 1.33333C14.1768 1.33333 14.3464 1.40357 14.4714 1.5286C14.5964 1.65362 14.6667 1.82319 14.6667 2V2.66667H16ZM12 5.33333V6.66667H8.66667V5.33333H12ZM8.66667 9.9V8H12V9.40442C11.1355 9.576 10.8767 10 9.6 10C9.28598 10.0047 8.97256 9.97111 8.66667 9.9Z" fill="#3EA849"/>
<path d="M9.59999 13.3333C7.99999 13.3333 7.99999 12.6666 6.39999 12.6666C4.79999 12.6666 4.79999 13.3333 3.19999 13.3333C1.59999 13.3333 1.59999 12.6666 -7.62939e-06 12.6666V15.9999H16V13.3333C14.4 13.3333 14.4 12.6666 12.8 12.6666C11.2 12.6666 11.2 13.3333 9.59999 13.3333Z" fill="#3EA849"/>
</g>

</svg>
