<svg width="18" height="18" viewBox="0 0 18 18" fill="none" xmlns="http://www.w3.org/2000/svg">
	<path d="M7.06981 0C10.9744 0 14.1396 3.1654 14.1396 7.07011C14.1396 8.67479 13.605 10.1546 12.7043 11.3412L17.7117 16.3546C18.088 16.7314 18.0876 17.3418 17.7109 17.718C17.3342 18.0943 16.7238 18.0939 16.3476 17.7172L11.3407 12.7048C10.1542 13.6056 8.67442 14.1402 7.06981 14.1402C3.16526 14.1402 0 10.9748 0 7.07011C0 3.1654 3.16526 0 7.06981 0ZM7.06981 1.92811C4.23014 1.92811 1.92811 4.23024 1.92811 7.07011C1.92811 9.90998 4.23014 12.2121 7.06981 12.2121C9.90947 12.2121 12.2115 9.90998 12.2115 7.07011C12.2115 4.23024 9.90947 1.92811 7.06981 1.92811Z" fill="#808492" />
</svg>
