<svg width="18" height="18" viewBox="0 0 18 18" fill="none" xmlns="http://www.w3.org/2000/svg">
	<path d="M17.5992 7.47422L15.4934 6.95742C15.3773 6.58828 15.2297 6.22969 15.0504 5.88164L16.1262 4.08867C16.2527 3.87773 16.2211 3.61406 16.0523 3.44531L14.5547 1.94766C14.3859 1.77891 14.1223 1.74727 13.9113 1.87383L12.1184 2.94961C11.7703 2.77031 11.4117 2.62266 11.0426 2.50664L10.5363 0.400781C10.473 0.16875 10.2621 0 10.0195 0H7.91016C7.66758 0 7.45664 0.16875 7.39336 0.400781L6.88711 2.50664C6.51797 2.62266 6.15938 2.77031 5.81133 2.94961L4.01836 1.87383C3.80742 1.74727 3.54375 1.77891 3.375 1.94766L1.87734 3.44531C1.70859 3.61406 1.67695 3.87773 1.80352 4.08867L2.8793 5.88164C2.7 6.22969 2.55234 6.58828 2.43633 6.95742L0.400781 7.47422C0.16875 7.52695 0 7.73789 0 7.98047V10.0898C0 10.3324 0.16875 10.5434 0.400781 10.5961L2.43633 11.1129C2.55234 11.482 2.7 11.8406 2.8793 12.1887L1.80352 13.9816C1.67695 14.1926 1.70859 14.4563 1.87734 14.625L3.375 16.1227C3.54375 16.2914 3.80742 16.323 4.01836 16.1965L5.81133 15.1207C6.15938 15.3 6.51797 15.4477 6.88711 15.5637L7.39336 17.5992C7.45664 17.8313 7.66758 18 7.91016 18H10.0195C10.2621 18 10.473 17.8313 10.5363 17.5992L11.0426 15.5637C11.4117 15.4477 11.7703 15.3 12.1184 15.1207L13.9113 16.1965C14.1223 16.323 14.3859 16.2914 14.5547 16.1227L16.0523 14.625C16.2211 14.4563 16.2527 14.1926 16.1262 13.9816L15.0504 12.1887C15.2297 11.8406 15.3773 11.482 15.4934 11.1129L17.5992 10.5961C17.8313 10.5434 18 10.3324 18 10.0898V7.98047C18 7.73789 17.8313 7.52695 17.5992 7.47422ZM8.96484 11.6719C7.50938 11.6719 6.32812 10.4906 6.32812 9.03516C6.32812 7.57969 7.50938 6.39844 8.96484 6.39844C10.4203 6.39844 11.6016 7.57969 11.6016 9.03516C11.6016 10.4906 10.4203 11.6719 8.96484 11.6719Z" fill="#808492" />
</svg>
