<svg width="46" height="46" viewBox="0 0 46 46" fill="none" xmlns="http://www.w3.org/2000/svg">
<path d="M8.40033 0C3.74748 0 0.00100708 3.74647 0.00100708 8.39932V37.6007C0.00100708 42.2536 3.74748 46 8.40033 46H24.2272V28.0169H19.472V21.5424H24.2272V16.0109C24.2272 11.665 27.0369 7.67482 33.5092 7.67482C36.1297 7.67482 38.0675 7.9264 38.0675 7.9264L37.9151 13.9725C37.9151 13.9725 35.9388 13.9539 33.7823 13.9539C31.4483 13.9539 31.074 15.0293 31.074 16.8145V21.5424H38.1005L37.7943 28.0169H31.074V46.0001H37.6017C42.2545 46.0001 46.001 42.2536 46.001 37.6008V8.39937C46.001 3.74652 42.2545 4.6e-05 37.6017 4.6e-05H8.40028L8.40033 0Z" fill="#1877F2"/>
</svg>
