<svg width="46" height="46" viewBox="0 0 46 46" fill="none" xmlns="http://www.w3.org/2000/svg">
<path d="M6.47408 0C2.88838 0 0.00100708 2.88737 0.00100708 6.47307V39.527C0.00100708 43.1127 2.88838 46 6.47408 46H39.528C43.1137 46 46.0011 43.1127 46.0011 39.527V6.47307C46.0011 2.88737 43.1137 0 39.528 0H6.47408ZM24.0317 4.70065C29.252 4.70065 33.4962 8.94663 33.4962 14.1666C33.4962 19.3861 29.252 23.6296 24.0317 23.6296C18.8113 23.6296 14.5643 19.3861 14.5643 14.1666C14.5643 8.94663 18.8113 4.70065 24.0317 4.70065ZM23.9311 10.2465C21.8166 10.3004 20.1117 12.0398 20.1117 14.1666C20.1117 16.3263 21.8707 18.0838 24.0317 18.0838C26.1923 18.0838 27.9489 16.3263 27.9489 14.1666C27.9489 12.0061 26.1923 10.2465 24.0317 10.2465C23.998 10.2465 23.9647 10.2457 23.9311 10.2465ZM16.1944 23.9517C16.6958 23.9534 17.2017 24.0913 17.6578 24.3786C21.5323 26.8149 26.527 26.8165 30.4027 24.3786C31.7004 23.5614 33.4107 23.9537 34.2279 25.2512C35.0442 26.5465 34.6521 28.2591 33.3553 29.0749C31.6647 30.1375 29.8067 30.9069 27.8598 31.3505L33.1527 36.6434C34.2362 37.7247 34.2362 39.482 33.1527 40.5649C32.0686 41.6482 30.3147 41.6482 29.2326 40.5649L24.0288 35.364L18.8308 40.5649C18.2895 41.1064 17.5793 41.3771 16.8701 41.3771C16.1601 41.3771 15.4523 41.1057 14.9093 40.5649C13.826 39.4813 13.8263 37.727 14.9093 36.6434L20.1993 31.3505C18.2729 30.9113 16.4142 30.1489 14.7023 29.0749C13.4082 28.2591 13.019 26.5483 13.8355 25.2512C14.3444 24.4403 15.204 23.9822 16.0938 23.9531C16.1274 23.952 16.1609 23.9515 16.1945 23.9517H16.1944Z" fill="#EC7C21"/>
</svg>
