<?xml version="1.0"?>
<svg xmlns="http://www.w3.org/2000/svg" xmlns:xlink="http://www.w3.org/1999/xlink" version="1.1" xml:space="preserve">
	<defs>
		<symbol id="user" width="100%" height="100%" viewBox="0 0 20 20">
			<path d="M16.3763 17.0045C16.837 16.9085 17.1114 16.4264 16.8825 16.0153C16.3778 15.1089 15.5828 14.3124 14.5658 13.7054C13.2559 12.9237 11.6511 12.5 10.0001 12.5C8.34905 12.5 6.74418 12.9237 5.43435 13.7054C4.41732 14.3124 3.6223 15.1089 3.11765 16.0153C2.88873 16.4264 3.1631 16.9085 3.62378 17.0045C7.82945 17.881 12.1707 17.881 16.3763 17.0045Z" fill="currentColor" />
			<circle cx="10" cy="6.66667" r="4.16667" fill="currentColor" />
		</symbol>
		<symbol id="vote-up" width="100%" height="100%" viewBox="0 0 16 16">
			<path d="M0 8.5C0 7.67157 0.671573 7 1.5 7C2.32843 7 3 7.67157 3 8.5V14.5C3 15.3284 2.32843 16 1.5 16C0.671573 16 0 15.3284 0 14.5V8.5Z" fill="currentColor" />
			<path d="M4 8.33333V13.7639C4 14.5215 4.428 15.214 5.10557 15.5528L5.15542 15.5777C5.71084 15.8554 6.32329 16 6.94427 16H12.3604C13.3138 16 14.1346 15.3271 14.3216 14.3922L15.5216 8.39223C15.7691 7.15465 14.8225 6 13.5604 6H10V2C10 0.895431 9.10457 0 8 0C7.44772 0 7 0.447715 7 1V1.66667C7 2.53215 6.71929 3.37428 6.2 4.06667L4.8 5.93333C4.28071 6.62572 4 7.46785 4 8.33333Z" fill="currentColor" />
		</symbol>
		<symbol id="vote-down" width="100%" height="100%" viewBox="0 0 16 16">
			<path d="M16 7.5C16 8.32843 15.3285 9 14.5 9C13.6716 9 13 8.32843 13 7.5V1.5C13 0.671574 13.6716 8.77022e-07 14.5 9.49446e-07C15.3285 1.02187e-06 16 0.671574 16 1.5V7.5Z" fill="currentColor" />
			<path d="M12 7.66667V2.23607C12 1.47852 11.572 0.785998 10.8945 0.447215L10.8446 0.422291C10.2892 0.144581 9.67675 5.2778e-07 9.05577 4.73492e-07L3.63964 0C2.68628 -8.33455e-08 1.86545 0.672919 1.67848 1.60777L0.478483 7.60777C0.230966 8.84535 1.17755 10 2.43964 10H6.00004V14C6.00004 15.1046 6.89547 16 8.00004 16C8.55232 16 9.00004 15.5523 9.00004 15V14.3333C9.00004 13.4679 9.28075 12.6257 9.80004 11.9333L11.2 10.0667C11.7193 9.37428 12 8.53215 12 7.66667Z" fill="currentColor" />
		</symbol>
		<symbol id="doc-add" width="100%" height="100%" viewBox="0 0 20 20">
			<path fill-rule="evenodd" clip-rule="evenodd" d="M9.99992 1.66669C11.087 1.66669 11.937 1.66669 12.6269 1.71116C12.5445 1.95914 12.4999 2.22437 12.4999 2.50002C11.1192 2.50002 9.99992 3.61931 9.99992 5.00002C9.99992 6.38073 11.1192 7.50002 12.4999 7.50002C12.4999 8.88073 13.6192 10 14.9999 10C15.6402 10 16.2243 9.75931 16.6666 9.36344V11.6667C16.6666 14.159 16.6666 15.4052 16.1307 16.3334C15.7796 16.9414 15.2747 17.4464 14.6666 17.7975C13.7384 18.3334 12.4922 18.3334 9.99992 18.3334C7.50761 18.3334 6.26145 18.3334 5.33325 17.7975C4.72517 17.4464 4.22022 16.9414 3.86915 16.3334C3.33325 15.4052 3.33325 14.159 3.33325 11.6667V8.33336C3.33325 5.84105 3.33325 4.59489 3.86915 3.66669C4.22022 3.05861 4.72517 2.55366 5.33325 2.20259C6.26145 1.66669 7.50761 1.66669 9.99992 1.66669ZM6.66659 9.00002C6.1143 9.00002 5.66659 9.44774 5.66659 10C5.66659 10.5523 6.1143 11 6.66659 11H9.99992C10.5522 11 10.9999 10.5523 10.9999 10C10.9999 9.44774 10.5522 9.00002 9.99992 9.00002H6.66659ZM6.66659 11.5C6.1143 11.5 5.66659 11.9477 5.66659 12.5C5.66659 13.0523 6.1143 13.5 6.66659 13.5H11.6666C12.2189 13.5 12.6666 13.0523 12.6666 12.5C12.6666 11.9477 12.2189 11.5 11.6666 11.5H6.66659ZM6.66659 14C6.1143 14 5.66659 14.4477 5.66659 15C5.66659 15.5523 6.1143 16 6.66659 16H9.99992C10.5522 16 10.9999 15.5523 10.9999 15C10.9999 14.4477 10.5522 14 9.99992 14H6.66659Z" fill="currentColor" />
			<path d="M15 2.5L15 7.5" stroke="currentColor" fill="none" stroke-width="2" stroke-linecap="round" />
			<path d="M17.5 5L12.5 5" stroke="currentColor" fill="none" stroke-width="2" stroke-linecap="round" />
		</symbol>
		<symbol id="doc-search" width="100%" height="100%" viewBox="0 0 20 20">
			<circle cx="14.5833" cy="14.5833" r="2.08333" stroke="currentColor" stroke-width="2" fill="none" />
			<path d="M17.5 17.5L16.25 16.25" stroke="currentColor" stroke-width="2" stroke-linecap="round" fill="none" />
			<path fill-rule="evenodd" clip-rule="evenodd" d="M3.33325 8.33336C3.33325 5.84105 3.33325 4.59489 3.86915 3.66669C4.22022 3.05861 4.72517 2.55366 5.33325 2.20259C6.26145 1.66669 7.50761 1.66669 9.99992 1.66669C12.4922 1.66669 13.7384 1.66669 14.6666 2.20259C15.2747 2.55366 15.7796 3.05861 16.1307 3.66669C16.6666 4.59489 16.6666 5.84104 16.6666 8.33335V10.4998C16.0415 10.1803 15.3334 10 14.5833 10C12.0519 10 9.99992 12.052 9.99992 14.5834C9.99992 16.1246 10.7606 17.4881 11.9271 18.319C11.3797 18.3334 10.7456 18.3334 9.99992 18.3334C7.50761 18.3334 6.26145 18.3334 5.33325 17.7975C4.72517 17.4464 4.22022 16.9414 3.86915 16.3334C3.33325 15.4052 3.33325 14.159 3.33325 11.6667V8.33336ZM14.2208 14.789C14.2719 14.7183 14.3271 14.6496 14.3864 14.5834C14.4172 14.549 14.4491 14.5153 14.4822 14.4823C14.5152 14.4492 14.5489 14.4173 14.5833 14.3865C14.6495 14.3272 14.7182 14.272 14.7889 14.2209C14.7282 14.1864 14.658 14.1667 14.5833 14.1667C14.3531 14.1667 14.1666 14.3532 14.1666 14.5834C14.1666 14.6581 14.1863 14.7283 14.2208 14.789ZM6.66659 4.00002C6.1143 4.00002 5.66659 4.44774 5.66659 5.00002C5.66659 5.5523 6.1143 6.00002 6.66659 6.00002H9.99992C10.5522 6.00002 10.9999 5.5523 10.9999 5.00002C10.9999 4.44774 10.5522 4.00002 9.99992 4.00002H6.66659ZM6.66659 7.33335C6.1143 7.33335 5.66659 7.78107 5.66659 8.33335C5.66659 8.88564 6.1143 9.33335 6.66659 9.33335L11.6666 9.33335C12.2189 9.33335 12.6666 8.88564 12.6666 8.33335C12.6666 7.78107 12.2189 7.33335 11.6666 7.33335L6.66659 7.33335ZM6.66659 10.6667C6.1143 10.6667 5.66659 11.1144 5.66659 11.6667C5.66659 12.219 6.1143 12.6667 6.66659 12.6667H9.16659C9.71887 12.6667 10.1666 12.219 10.1666 11.6667C10.1666 11.1144 9.71887 10.6667 9.16659 10.6667H6.66659Z" fill="currentColor" />
		</symbol>
		<symbol id="cross" width="100%" height="100%" viewBox="0 0 12 12">
			<path  fill-rule="evenodd" clip-rule="evenodd" d="M0.292893 0.292893C0.683417 -0.0976311 1.31658 -0.0976311 1.70711 0.292893L6 4.58579L10.2929 0.292893C10.6834 -0.0976311 11.3166 -0.0976311 11.7071 0.292893C12.0976 0.683417 12.0976 1.31658 11.7071 1.70711L7.41421 6L11.7071 10.2929C12.0976 10.6834 12.0976 11.3166 11.7071 11.7071C11.3166 12.0976 10.6834 12.0976 10.2929 11.7071L6 7.41421L1.70711 11.7071C1.31658 12.0976 0.683417 12.0976 0.292893 11.7071C-0.0976311 11.3166 -0.0976311 10.6834 0.292893 10.2929L4.58579 6L0.292893 1.70711C-0.0976311 1.31658 -0.0976311 0.683417 0.292893 0.292893Z" fill="currentColor"/>
		</symbol>
		<symbol id="rieltor" width="100%" height="100%" viewBox="0 0 14 16">
			<path d="M11 4C11 6.20937 9.20938 8 7 8C4.79063 8 3 6.20937 3 4C3 1.79094 4.79063 0 7 0C9.20938 0 11 1.79094 11 4ZM6.53438 11.225L5.5 9.5H8.5L7.46562 11.225L8.50625 15.0969L9.74063 10.0594C12.1531 10.4344 14 12.5219 14 15.0406C14 15.5687 13.5687 16 13.0406 16H0.96C0.429688 16 0 15.5687 0 15.0406C0 12.5219 1.84656 10.4344 4.25938 10.0594L5.49375 15.0969L6.53438 11.225Z" fill="currentColor"/>
		</symbol>
		<symbol id="calc" width="100%" height="100%" viewBox="0 0 14 16">
			<path d="M12.5 0H1.5C0.7 0 0 0.7 0 1.5V14.5C0 15.3 0.7 16 1.5 16H12.5C13.3 16 14 15.3 14 14.5V1.5C14 0.7 13.3 0 12.5 0ZM4 13.6C4 13.8 3.8 14 3.6 14H2.4C2.2 14 2 13.8 2 13.6V12.4C2 12.2 2.2 12 2.4 12H3.6C3.8 12 4 12.2 4 12.4V13.6ZM4 9.6C4 9.8 3.8 10 3.6 10H2.4C2.2 10 2 9.8 2 9.6V8.4C2 8.2 2.2 8 2.4 8H3.6C3.8 8 4 8.2 4 8.4V9.6ZM8 13.6C8 13.8 7.8 14 7.6 14H6.4C6.2 14 6 13.8 6 13.6V12.4C6 12.2 6.2 12 6.4 12H7.6C7.8 12 8 12.2 8 12.4V13.6ZM8 9.6C8 9.8 7.8 10 7.6 10H6.4C6.2 10 6 9.8 6 9.6V8.4C6 8.2 6.2 8 6.4 8H7.6C7.8 8 8 8.2 8 8.4V9.6ZM12 13.6C12 13.8 11.8 14 11.6 14H10.4C10.2 14 10 13.8 10 13.6V8.4C10 8.2 10.2 8 10.4 8H11.6C11.8 8 12 8.2 12 8.4V13.6ZM12 5.6C12 5.8 11.8 6 11.6 6H2.4C2.2 6 2 5.8 2 5.6V2.4C2 2.2 2.2 2 2.4 2H11.6C11.8 2 12 2.2 12 2.4V5.6Z" fill="currentColor"/>
		</symbol>

	</defs>
</svg>