<?xml version="1.0"?>
<svg xmlns="http://www.w3.org/2000/svg" xmlns:xlink="http://www.w3.org/1999/xlink" version="1.1" xml:space="preserve">
  <defs>
    <symbol id="logo" width="100%" height="100%" viewBox="0 0 99 38">
      <path d="M42.0156 28V9.79492H45.9893L48.0967 22.7188L50.0518 9.79492H54.0254V28H51.3213V14.9492L49.3408 28H46.6367L44.5039 15.127V28H42.0156ZM56.1074 28V9.79492H63.9023V12.3975H58.9639V17.4756H62.8867V20.0654H58.9639V25.3975H63.9023V28H56.1074ZM64.8418 12.3975V9.79492H73.6904V12.3975H70.6943V28H67.8379V12.3975H64.8418ZM74.9473 28V9.79492H79.1621C80.5755 9.79492 81.6377 10.18 82.3486 10.9502C83.068 11.7204 83.4277 12.8376 83.4277 14.3018V16.6631C83.4277 18.1273 83.068 19.2445 82.3486 20.0146C81.6377 20.7764 80.5755 21.1572 79.1621 21.1572H77.8037V28H74.9473ZM77.8037 18.5674H79.1621C79.6361 18.5674 79.9873 18.4362 80.2158 18.1738C80.4443 17.9115 80.5586 17.4671 80.5586 16.8408V14.1113C80.5586 13.485 80.4443 13.0449 80.2158 12.791C79.9873 12.5286 79.6361 12.3975 79.1621 12.3975H77.8037V18.5674ZM84.748 28V9.79492H87.6045V16.6377H88.9629C90.3763 16.6377 91.4385 17.0228 92.1494 17.793C92.8688 18.5547 93.2285 19.6676 93.2285 21.1318V23.5059C93.2285 24.9701 92.8688 26.0872 92.1494 26.8574C91.4385 27.6191 90.3763 28 88.9629 28H84.748ZM87.6045 25.3975H88.9629C89.4368 25.3975 89.7881 25.2705 90.0166 25.0166C90.2451 24.7542 90.3594 24.3099 90.3594 23.6836V20.9541C90.3594 20.3278 90.2451 19.8877 90.0166 19.6338C89.7881 19.3714 89.4368 19.2402 88.9629 19.2402H87.6045V25.3975ZM94.8662 28V9.79492H97.7227V28H94.8662Z" fill="currentColor"/>
      <rect  y="1" width="36" height="36" rx="8" fill="#CCE6FA"/>
      <path d="M30.9877 29.7667H25.2928L18.903 20.5549C18.7395 20.3191 18.5533 19.9517 18.3444 19.4527H18.2762V29.7667H13.7803V8.68979H18.2762V18.65H18.3444C18.5442 18.2146 18.7441 17.8381 18.9439 17.5206L24.993 8.68979H30.361L22.8131 18.7452L30.9877 29.7667Z" fill="#0084E6"/>
      <path d="M11.9208 8.68979V29.7667H7.4248V8.68979H11.9208Z" fill="#0084E6"/>
    </symbol>
  </defs>
</svg>