<svg width="16" height="13" viewBox="0 0 16 13" fill="none" xmlns="http://www.w3.org/2000/svg">
	<path fill-rule="evenodd" clip-rule="evenodd" d="M7.70918 1.20802C7.61629 1.12792 7.50595 1.06437 7.38448 1.021C7.263 0.977642 7.13277 0.955322 7.00125 0.955322C6.86973 0.955322 6.73951 0.977642 6.61803 1.021C6.49655 1.06437 6.38621 1.12792 6.29333 1.20802L0.294002 6.3689C0.200886 6.4488 0.127009 6.54372 0.076602 6.64822C0.0261947 6.75272 0.000247877 6.86475 0.000247877 6.97789C0.000247877 7.09103 0.0261947 7.20305 0.076602 7.30755C0.127009 7.41205 0.200886 7.50697 0.294002 7.58687L6.29333 12.7478C6.48109 12.9093 6.73573 13 7.00125 13C7.26678 13 7.52142 12.9093 7.70918 12.7478C7.89693 12.5862 8.00241 12.3672 8.00241 12.1388C8.00241 11.9104 7.89693 11.6913 7.70918 11.5298L2.41577 6.97789L7.70918 2.42599C7.80229 2.34609 7.87617 2.25117 7.92658 2.14667C7.97698 2.04217 8.00293 1.93015 8.00293 1.81701C8.00293 1.70387 7.97698 1.59184 7.92658 1.48734C7.87617 1.38284 7.80229 1.28792 7.70918 1.20802Z" fill="#0084E6" />
	<path fill-rule="evenodd" clip-rule="evenodd" d="M16 6.97788C16 6.74976 15.8947 6.53098 15.7071 6.36967C15.5196 6.20836 15.2653 6.11774 15.0001 6.11774H2.00156C1.73638 6.11774 1.48205 6.20836 1.29453 6.36967C1.10702 6.53098 1.00167 6.74976 1.00167 6.97788C1.00167 7.20601 1.10702 7.42479 1.29453 7.5861C1.48205 7.74741 1.73638 7.83803 2.00156 7.83803H15.0001C15.2653 7.83803 15.5196 7.74741 15.7071 7.5861C15.8947 7.42479 16 7.20601 16 6.97788Z" fill="#0084E6" />
</svg>
