<svg width="18" height="14" viewBox="0 0 18 14" fill="none" xmlns="http://www.w3.org/2000/svg">
<path d="M17.2918 4.75177C17.2945 4.8013 17.2909 4.8517 17.2785 4.90176L16.1682 9.34288C16.1122 9.56662 15.9117 9.72395 15.6811 9.72516L9.01945 9.7588C9.01857 9.7588 9.01777 9.7588 9.01689 9.7588H2.35514C2.12339 9.7588 1.92146 9.60094 1.86547 9.37606L0.755192 4.91811C0.742407 4.8667 0.738707 4.81489 0.741936 4.76409C0.312426 4.62877 0 4.22685 0 3.75319C0 3.16878 0.475402 2.69338 1.05981 2.69338C1.64422 2.69338 2.11963 3.16878 2.11963 3.75319C2.11963 4.08231 1.96883 4.37677 1.73271 4.5713L3.12278 5.97187C3.4741 6.32588 3.96162 6.52883 4.46037 6.52883C5.05009 6.52883 5.61237 6.24877 5.96644 5.77956L8.25093 2.7526C8.05902 2.56082 7.94019 2.29583 7.94019 2.00366C7.94019 1.41925 8.41559 0.943848 9 0.943848C9.58441 0.943848 10.0598 1.41925 10.0598 2.00366C10.0598 2.28709 9.9473 2.54433 9.76542 2.7347C9.76603 2.7355 9.76677 2.73618 9.76737 2.73705L12.0353 5.77236C12.3892 6.24608 12.9535 6.52889 13.5449 6.52889C14.0483 6.52889 14.5216 6.33288 14.8775 5.97692L16.2763 4.5781C16.0352 4.38363 15.8804 4.08635 15.8804 3.75319C15.8804 3.16878 16.3558 2.69338 16.9402 2.69338C17.5246 2.69338 18 3.16878 18 3.75319C18 4.2142 17.7036 4.60629 17.2918 4.75177ZM16.0598 11.3401C16.0598 11.0614 15.8339 10.8354 15.5552 10.8354H2.50096C2.22224 10.8354 1.99628 11.0614 1.99628 11.3401V12.5513C1.99628 12.83 2.22224 13.056 2.50096 13.056H15.5552C15.8339 13.056 16.0598 12.83 16.0598 12.5513V11.3401Z" fill="url(#paint0_linear)"/>
<defs>
<linearGradient id="paint0_linear" x1="9" y1="0.943848" x2="9" y2="13.056" gradientUnits="userSpaceOnUse">
<stop stop-color="#ECB86A"/>
<stop offset="1" stop-color="#DF9019"/>
</linearGradient>
</defs>
</svg>
