<svg width="18" height="18" viewBox="0 0 18 18" fill="none" xmlns="http://www.w3.org/2000/svg">
<g>
<path d="M4.35959 4.63702C4.2717 4.63702 4.20044 4.70829 4.20044 4.79618V5.80794H7.52676V4.79614C7.52676 4.70825 7.45553 4.63702 7.36764 4.63702H4.35959Z" fill="#0084E6"/>
<path d="M10.6324 4.63702C10.5445 4.63702 10.4732 4.70829 10.4732 4.79618V5.80794H13.7995V4.79618C13.7995 4.70829 13.7283 4.63706 13.6404 4.63706H10.6324V4.63702Z" fill="#0084E6"/>
<path d="M3.13525 5.79749V4.79614C3.13525 4.12103 3.68449 3.57179 4.3596 3.57179H7.36764C8.04274 3.57179 8.59199 4.12103 8.59199 4.79614V5.79749H9.408V4.79614C9.408 4.12103 9.95725 3.57179 10.6324 3.57179H13.6404C14.3155 3.57179 14.8647 4.12103 14.8647 4.79614V5.79749H15.7125C15.8779 5.79749 16.0394 5.81426 16.1956 5.84604V2.57876C16.1956 1.87571 15.6256 1.30576 14.9226 1.30576H3.07742C2.37436 1.30576 1.80444 1.87571 1.80444 2.57876V5.84604C1.96057 5.8143 2.12212 5.79749 2.28749 5.79749H3.13525Z" fill="#0084E6"/>
<path d="M17.34 9.09882H0.659988C0.295488 9.09882 0 9.3943 0 9.7588V14.0846C0 14.4491 0.295488 14.7446 0.659988 14.7446H17.34C17.7045 14.7446 18 14.4491 18 14.0846V9.7588C18 9.3943 17.7045 9.09882 17.34 9.09882Z" fill="#0084E6"/>
<path d="M15.7125 6.86273H2.28742C1.60173 6.86273 1.03543 7.3725 0.945923 8.03365H17.054C16.9645 7.3725 16.3982 6.86273 15.7125 6.86273Z" fill="#0084E6"/>
<path d="M0.659607 15.8099V16.1618C0.659607 16.4559 0.898071 16.6944 1.19222 16.6944C1.48637 16.6944 1.72484 16.4559 1.72484 16.1618V15.8099H0.659994C0.659853 15.8099 0.659748 15.8099 0.659607 15.8099Z" fill="#0084E6"/>
<path d="M16.2751 15.8099V16.1617C16.2751 16.4559 16.5136 16.6943 16.8078 16.6943C17.1019 16.6943 17.3404 16.4559 17.3404 16.1617V15.8098C17.3402 15.8098 17.3401 15.8098 17.34 15.8098H16.2751V15.8099Z" fill="#0084E6"/>
</g>

</svg>
