<svg width="18" height="18" viewBox="0 0 18 18" fill="none" xmlns="http://www.w3.org/2000/svg">
<g>
<path d="M11.0143 2.53235L2.57739 10.9692L7.03527 15.4271L15.4722 6.99021L11.0143 2.53235Z" fill="white"/>
<path d="M17.7315 3.58722L14.4392 0.248175C14.1123 -0.0787251 13.5986 -0.0787251 13.295 0.224825C13.295 0.224825 13.295 0.224825 13.2717 0.248175L11.824 1.69587L16.2838 6.17907L17.7315 4.73137C18.0584 4.40447 18.0584 3.89077 17.7315 3.58722Z" fill="white"/>
<path d="M1.92356 11.9465L0.0789164 16.8967C-0.0845333 17.317 0.125616 17.784 0.545916 17.9475C0.732716 18.0175 0.942865 18.0175 1.12967 17.9475L6.07986 16.0795L1.92356 11.9465Z" fill="white"/>
</g>

</svg>
