<svg width="26" height="26" viewBox="0 0 26 26" fill="none" xmlns="http://www.w3.org/2000/svg">
<rect opacity="0.3" width="26" height="26" rx="13" fill="#F2B101"/>
<path d="M9.48438 19H16.5156C17.0972 19 17.5703 18.5269 17.5703 17.9453V10.5156H15.1094C14.5278 10.5156 14.0547 10.0425 14.0547 9.46094V7H9.48438C8.9028 7 8.42969 7.47311 8.42969 8.05469V17.9453C8.42969 18.5269 8.9028 19 9.48438 19ZM10.8906 11.9453H15.1094C15.3037 11.9453 15.4609 12.1026 15.4609 12.2969C15.4609 12.4912 15.3037 12.6484 15.1094 12.6484H10.8906C10.6963 12.6484 10.5391 12.4912 10.5391 12.2969C10.5391 12.1026 10.6963 11.9453 10.8906 11.9453ZM10.8906 13.3516H15.1094C15.3037 13.3516 15.4609 13.5088 15.4609 13.7031C15.4609 13.8974 15.3037 14.0547 15.1094 14.0547H10.8906C10.6963 14.0547 10.5391 13.8974 10.5391 13.7031C10.5391 13.5088 10.6963 13.3516 10.8906 13.3516ZM10.8906 14.7578H15.1094C15.3037 14.7578 15.4609 14.9151 15.4609 15.1094C15.4609 15.3037 15.3037 15.4609 15.1094 15.4609H10.8906C10.6963 15.4609 10.5391 15.3037 10.5391 15.1094C10.5391 14.9151 10.6963 14.7578 10.8906 14.7578ZM10.8906 16.1641H13.7031C13.8974 16.1641 14.0547 16.3213 14.0547 16.5156C14.0547 16.7099 13.8974 16.8672 13.7031 16.8672H10.8906C10.6963 16.8672 10.5391 16.7099 10.5391 16.5156C10.5391 16.3213 10.6963 16.1641 10.8906 16.1641Z" fill="#EDB213"/>
<path d="M15.1094 9.8125H17.3643L14.7578 7.20599V9.46094C14.7578 9.65491 14.9154 9.8125 15.1094 9.8125Z" fill="#EDB213"/>
</svg>
