<svg width="14" height="14" viewBox="0 0 14 14" fill="none" xmlns="http://www.w3.org/2000/svg">
<path d="M7.79692 2.90658V1.34458C7.79692 0.90438 7.44004 0.547546 6.99988 0.547546C6.55968 0.547546 6.20285 0.90438 6.20285 1.34458V2.90654C5.55003 2.91411 5.02124 3.44717 5.02124 4.10174V4.50025C5.02124 5.15482 5.55007 5.68792 6.20285 5.69545V12.6553C6.20285 13.0955 6.55968 13.4524 6.99988 13.4524C7.44004 13.4524 7.79692 13.0955 7.79692 12.6553V5.69549C8.44973 5.68796 8.97848 5.15486 8.97848 4.50029V4.10178C8.97852 3.44721 8.44973 2.91411 7.79692 2.90658Z" fill="#A8AAB3"/>
<path d="M12.8184 6.70578V1.34458C12.8184 0.90438 12.4616 0.547546 12.0214 0.547546C11.5812 0.547546 11.2243 0.90438 11.2243 1.34458V6.70574C10.5715 6.71327 10.0427 7.24637 10.0427 7.90089V8.29941C10.0427 8.95402 10.5716 9.48712 11.2243 9.49465V12.6553C11.2243 13.0955 11.5812 13.4524 12.0214 13.4524C12.4616 13.4524 12.8184 13.0955 12.8184 12.6553V9.49469C13.4712 9.4872 14 8.9541 14 8.29953V7.90101C14 7.24641 13.4712 6.71331 12.8184 6.70578Z" fill="#A8AAB3"/>
<path d="M2.77569 5.13828V1.34458C2.77569 0.90438 2.41881 0.547546 1.97865 0.547546C1.5384 0.547546 1.18161 0.90438 1.18161 1.34458V5.13824C0.528795 5.14581 0 5.67887 0 6.33344V6.73196C0 7.38653 0.528835 7.91962 1.18161 7.92716V12.6554C1.18161 13.0956 1.5384 13.4524 1.97865 13.4524C2.41881 13.4524 2.77569 13.0956 2.77569 12.6554V7.92724C3.4285 7.9197 3.9573 7.3866 3.9573 6.732V6.33348C3.9573 5.67891 3.4285 5.14581 2.77569 5.13828Z" fill="#A8AAB3"/>
</svg>
