<svg width="14" height="16" viewBox="0 0 14 16" fill="none" xmlns="http://www.w3.org/2000/svg">
<path fill-rule="evenodd" clip-rule="evenodd" d="M1.60001 2.60005C1.60001 1.60594 2.4059 0.800049 3.40001 0.800049H10.6C11.5941 0.800049 12.4 1.60594 12.4 2.60005V13.4C12.8971 13.4 13.3 13.803 13.3 14.3C13.3 14.7971 12.8971 15.2 12.4 15.2H9.80001C9.24773 15.2 8.80001 14.7523 8.80001 14.2V12.5C8.80001 12.003 8.39707 11.6 7.90001 11.6H6.10001C5.60296 11.6 5.20001 12.003 5.20001 12.5V14.2C5.20001 14.7523 4.7523 15.2 4.20001 15.2H1.60001C1.10296 15.2 0.700012 14.7971 0.700012 14.3C0.700012 13.803 1.10296 13.4 1.60001 13.4V2.60005ZM4.30001 3.50005H6.10001V5.30005H4.30001V3.50005ZM6.10001 7.10005H4.30001V8.90005H6.10001V7.10005ZM7.90001 3.50005H9.70001V5.30005H7.90001V3.50005ZM9.70001 7.10005H7.90001V8.90005H9.70001V7.10005Z" fill="white"/>
</svg>
