<svg width="18" height="18" viewBox="0 0 18 18" fill="none" xmlns="http://www.w3.org/2000/svg">
<g>
<path d="M17.0371 7.14851L13.7229 3.8344V0.799576C13.7229 0.615615 13.5739 0.466217 13.3896 0.466217H12.2944C12.1102 0.466217 11.9611 0.615578 11.9611 0.799576V2.07255L10.5144 0.625914C9.67873 -0.208724 8.31944 -0.208724 7.48499 0.626432L0.962841 7.14851C0.610775 7.50035 0.610775 8.07142 0.962841 8.42326C1.31506 8.7754 1.88553 8.7754 2.2376 8.42326L8.75975 1.90119C8.89233 1.76913 9.10707 1.76883 9.2398 1.90089L15.7624 8.42323C15.9384 8.59926 16.1691 8.68727 16.3997 8.68727C16.6304 8.68727 16.861 8.59926 17.0371 8.42323C17.3892 8.07112 17.3892 7.50035 17.0371 7.14851Z" fill="#3EA849"/>
<path d="M15.9632 9.4315C15.9632 8.8508 15.4924 8.37982 14.9114 8.37982H14.4876L9.23569 3.1278C9.10533 2.99752 8.89407 2.99752 8.76375 3.1278L3.51177 8.37982H3.08858C2.50758 8.37982 2.03697 8.8508 2.03697 9.4315C2.03697 9.84495 2.2775 10.1995 2.62501 10.3711C2.2775 10.5427 2.03697 10.8972 2.03697 11.3107C2.03697 11.7242 2.2775 12.0786 2.62501 12.2503C2.2775 12.422 2.03697 12.7764 2.03697 13.1899C2.03697 13.6034 2.2775 13.9578 2.62501 14.1294C2.2775 14.3012 2.03697 14.6556 2.03697 15.0691C2.03697 15.4796 2.27457 15.8317 2.61793 16.0048C2.2669 16.1753 2.02286 16.5319 2.02286 16.9482C2.02286 17.529 2.4935 18 3.07461 18H6.98549V13.4032C6.98549 13.0719 7.25373 12.8035 7.58531 12.8035H10.4153C10.7468 12.8035 11.0151 13.0719 11.0151 13.4032V18H14.8979C15.4789 18 15.9496 17.529 15.9496 16.9482C15.9496 16.5375 15.7119 16.1857 15.3686 16.0125C15.7195 15.842 15.9632 15.4854 15.9632 15.0691C15.9632 14.6556 15.7225 14.3012 15.375 14.1294C15.7225 13.9578 15.9632 13.6034 15.9632 13.1899C15.9632 12.7764 15.7225 12.422 15.375 12.2503C15.7225 12.0786 15.9632 11.7242 15.9632 11.3107C15.9632 10.8972 15.7225 10.5427 15.375 10.3711C15.7225 10.1994 15.9632 9.84495 15.9632 9.4315Z" fill="#3EA849"/>
</g>

</svg>
