<svg width="16" height="16" viewBox="0 0 16 16" fill="none" xmlns="http://www.w3.org/2000/svg">
	<path d="M13.5136 10.2579C14.8724 9.29836 15.7007 8.34646 15.7353 8.3064L16 7.99999L15.7353 7.69357C15.7007 7.65351 14.8724 6.70161 13.5136 5.74203C11.697 4.45922 9.79013 3.78114 7.99909 3.78114C7.03104 3.78114 6.02926 3.97964 5.02624 4.36421L0.83036 0.168365L0.167439 0.831287L15.1678 15.8316L15.8307 15.1687L11.8927 11.2307C12.4373 10.9599 12.9793 10.6352 13.5136 10.2579ZM7.99909 5.65618C9.29146 5.65618 10.3429 6.70761 10.3429 7.99999C10.3429 8.477 10.1993 8.92095 9.95357 9.29158L9.26793 8.60594C9.35597 8.42234 9.40537 8.21684 9.40537 7.99999C9.40537 7.22456 8.77451 6.5937 7.99909 6.5937C7.78224 6.5937 7.57677 6.64311 7.39317 6.73114L6.70753 6.0455C7.0781 5.79975 7.52208 5.65618 7.99909 5.65618Z" fill="#EA4D3D" />
	<path d="M7.99908 10.3438C6.70671 10.3438 5.65528 9.29234 5.65528 7.99997C5.65528 7.88753 5.66372 7.77706 5.67913 7.66878L3.25098 5.24063C2.99441 5.39598 2.739 5.56292 2.48537 5.74205C1.12696 6.70166 0.299038 7.65359 0.264443 7.69365L0 7.99997L0.264443 8.30629C0.299038 8.34635 1.12696 9.29828 2.48537 10.2579C4.30138 11.5407 6.20801 12.2188 7.99908 12.2188C8.64375 12.2188 9.30346 12.1305 9.96853 11.9582L8.33028 10.32C8.222 10.3353 8.11152 10.3438 7.99908 10.3438Z" fill="#EA4D3D" />
</svg>
