<svg width="16" height="16" viewBox="0 0 16 16" fill="none" xmlns="http://www.w3.org/2000/svg">
<g >
<path d="M15.7313 7.15265L8.55258 0.611477C8.23749 0.324321 7.76233 0.324353 7.44736 0.611446L0.268658 7.15268C0.0162521 7.38268 -0.0671228 7.73706 0.0561895 8.05546C0.179533 8.37387 0.479845 8.57959 0.821313 8.57959H1.96787V15.1334C1.96787 15.3932 2.17856 15.6039 2.4384 15.6039H6.37321C6.63305 15.6039 6.84374 15.3932 6.84374 15.1334V11.1541H9.1563V15.1334C9.1563 15.3932 9.36698 15.6039 9.62683 15.6039H13.5614C13.8213 15.6039 14.032 15.3933 14.032 15.1334V8.57959H15.1788C15.5202 8.57959 15.8205 8.37384 15.9439 8.05546C16.067 7.73703 15.9837 7.38268 15.7313 7.15265Z" fill="#fff"/>
<path d="M13.9092 1.33533H10.7492L14.3797 4.63645V1.80583C14.3797 1.54598 14.1691 1.33533 13.9092 1.33533Z" fill="#fff"/>
</g>

</svg>
