<svg width="22" height="13" viewBox="0 0 22 13" fill="none" xmlns="http://www.w3.org/2000/svg">
<path d="M6.01562 11.9773V12.0312H6.27344H7.30469V8.16406H6.01562V11.9773Z" fill="#66B5F0"/>
<path d="M11.4324 0.16761C11.1866 -0.0558701 10.8111 -0.0558701 10.5653 0.16761L9.78711 0.875091L13.9753 4.68255C14.7642 5.39979 14.8226 6.62508 14.1054 7.41399C13.8887 7.65229 13.6174 7.83036 13.3192 7.93593V12.0312H16.37V6.39838L16.5809 6.59019C16.7044 6.70247 16.8596 6.75781 17.0143 6.75781C17.1896 6.75781 17.3642 6.68674 17.4914 6.54684C17.7309 6.28344 17.7114 5.87579 17.4481 5.63637L11.4324 0.16761Z" fill="#66B5F0"/>
<path d="M7.09372 0.16761C6.84789 -0.0558701 6.47243 -0.0558701 6.22661 0.16761L0.210982 5.63637C-0.0600645 5.88276 -0.0727403 6.30724 0.189111 6.5694C0.434377 6.81492 0.83476 6.8114 1.09154 6.57795L1.28907 6.39838V11.3867C1.28907 11.7427 1.57765 12.0312 1.9336 12.0312H4.72657V7.51952C4.72657 7.16357 5.01515 6.87499 5.3711 6.87499H7.94922C8.30518 6.87499 8.59376 7.16357 8.59376 7.51952V12.0312H12.0313V6.39838L12.2422 6.59019C12.3657 6.70247 12.5209 6.75781 12.6756 6.75781C12.8508 6.75781 13.0255 6.68674 13.1527 6.54684C13.3922 6.28344 13.3727 5.87579 13.1093 5.63637L7.09372 0.16761ZM7.30469 5.58593H6.01563C5.65968 5.58593 5.3711 5.29735 5.3711 4.9414C5.3711 4.58544 5.65968 4.29686 6.01563 4.29686H7.30469C7.66065 4.29686 7.94922 4.58544 7.94922 4.9414C7.94922 5.29735 7.66065 5.58593 7.30469 5.58593Z" fill="#66B5F0"/>
<path d="M21.7879 5.63637L15.7723 0.16761C15.5264 -0.0558701 15.151 -0.0558701 14.9052 0.16761L14.127 0.875091L18.3152 4.68255C19.1041 5.39979 19.1624 6.62508 18.4452 7.41399C18.2286 7.65229 17.9572 7.83036 17.659 7.93593V12.0312H20.0653C20.4212 12.0312 20.7098 11.7427 20.7098 11.3867V6.39838L20.9208 6.59019C21.0443 6.70247 21.1994 6.75781 21.3541 6.75781C21.5294 6.75781 21.7041 6.68674 21.8312 6.54684C22.0707 6.28344 22.0513 5.87584 21.7879 5.63637Z" fill="#66B5F0"/>
</svg>
