<svg width="18" height="18" viewBox="0 0 18 18" fill="none" xmlns="http://www.w3.org/2000/svg">
<g>
<path d="M11.805 0C10.41 0 9.1275 0.5775 8.25 1.5525C7.3725 0.5775 6.09 0 4.695 0C2.1075 0 0 2.0175 0 4.5C0 10.8525 7.545 15.45 7.8675 15.645C7.98 15.7125 8.115 15.75 8.25 15.75C8.31 15.75 8.3625 15.7425 8.4225 15.7275C7.845 14.88 7.5 13.8525 7.5 12.75C7.5 9.855 9.855 7.5 12.75 7.5C13.8 7.5 14.775 7.8075 15.5925 8.34C16.1475 7.155 16.5 5.8725 16.5 4.5C16.5 2.0175 14.3925 0 11.805 0V0Z" fill="#EA4D3D"/>
<path d="M17.7803 16.7197L15.8753 14.8148C16.2683 14.2215 16.5 13.5128 16.5 12.75C16.5 10.6823 14.8178 9 12.75 9C10.6823 9 9 10.6823 9 12.75C9 14.8178 10.6823 16.5 12.75 16.5C13.5128 16.5 14.2215 16.2683 14.8148 15.8753L16.7197 17.7803C17.013 18.0735 17.487 18.0735 17.7803 17.7803C18.0735 17.487 18.0735 17.013 17.7803 16.7197ZM12.75 15C11.5095 15 10.5 13.9905 10.5 12.75C10.5 11.5095 11.5095 10.5 12.75 10.5C13.9905 10.5 15 11.5095 15 12.75C15 13.9905 13.9905 15 12.75 15Z" fill="#EA4D3D"/>
</g>

</svg>
