<svg width="16" height="16" viewBox="0 0 16 16" fill="none" xmlns="http://www.w3.org/2000/svg">
<path d="M10.327 3.1272C11.0299 2.42425 12.1696 2.42425 12.8726 3.1272C13.5755 3.83014 13.5755 4.96984 12.8726 5.67278L10.1726 8.37278C9.46964 9.07572 8.32994 9.07572 7.627 8.37278C7.27553 8.02131 6.70568 8.02131 6.3542 8.37278C6.00273 8.72425 6.00273 9.2941 6.3542 9.64557C7.76009 11.0515 10.0395 11.0515 11.4454 9.64557L14.1454 6.94557C15.5513 5.53968 15.5513 3.26029 14.1454 1.8544C12.7395 0.448516 10.4601 0.448516 9.0542 1.8544L7.70421 3.2044C7.35273 3.55587 7.35273 4.12572 7.70421 4.4772C8.05568 4.82867 8.62553 4.82867 8.977 4.4772L10.327 3.1272Z" fill="#808492"/>
<path d="M5.82701 7.62719C6.52996 6.92425 7.66965 6.92425 8.3726 7.62719C8.72407 7.97867 9.29392 7.97867 9.64539 7.62719C9.99686 7.27572 9.99686 6.70587 9.64539 6.3544C8.2395 4.94852 5.96011 4.94852 4.55422 6.3544L1.85422 9.0544C0.448333 10.4603 0.448333 12.7397 1.85422 14.1456C3.26011 15.5515 5.5395 15.5515 6.94539 14.1456L8.29539 12.7956C8.64686 12.4441 8.64686 11.8743 8.29539 11.5228C7.94392 11.1713 7.37407 11.1713 7.0226 11.5228L5.6726 12.8728C4.96965 13.5757 3.82996 13.5757 3.12701 12.8728C2.42407 12.1698 2.42407 11.0301 3.12701 10.3272L5.82701 7.62719Z" fill="#808492"/>
</svg>
