<svg width="16" height="18" viewBox="0 0 16 18" fill="none" xmlns="http://www.w3.org/2000/svg">
	<path d="M15.0343 12.6847C13.9002 11.7262 13.25 10.3252 13.25 8.841V6.75C13.25 4.11075 11.2895 1.926 8.75 1.56V0.75C8.75 0.33525 8.414 0 8 0C7.586 0 7.25 0.33525 7.25 0.75V1.56C4.70975 1.926 2.75 4.11075 2.75 6.75V8.841C2.75 10.3252 2.09975 11.7262 0.959 12.6907C0.66725 12.9405 0.5 13.3035 0.5 13.6875C0.5 14.4112 1.08875 15 1.8125 15H14.1875C14.9113 15 15.5 14.4112 15.5 13.6875C15.5 13.3035 15.3327 12.9405 15.0343 12.6847Z" fill="#808492" />
	<path d="M8.00001 18C9.35826 18 10.4945 17.0317 10.7555 15.75H5.24451C5.50551 17.0317 6.64176 18 8.00001 18Z" fill="#808492" />
</svg>
