<svg width="18" height="18" viewBox="0 0 18 18" fill="none" xmlns="http://www.w3.org/2000/svg">
<path d="M16.418 2.14453H5.80078C4.9282 2.14453 4.21875 2.85434 4.21875 3.72656C4.21875 4.59914 4.9282 5.30859 5.80078 5.30859H16.418C17.2902 5.30859 18 4.59914 18 3.72656C18 2.85434 17.2902 2.14453 16.418 2.14453Z" fill="#0084E6"/>
<path d="M16.418 7.41797H5.80078C4.9282 7.41797 4.21875 8.12777 4.21875 9C4.21875 9.87258 4.9282 10.582 5.80078 10.582H16.418C17.2902 10.582 18 9.87258 18 9C18 8.12777 17.2902 7.41797 16.418 7.41797Z" fill="#0084E6"/>
<path d="M16.418 12.6914H5.80078C4.9282 12.6914 4.21875 13.4012 4.21875 14.2734C4.21875 15.146 4.9282 15.8555 5.80078 15.8555H16.418C17.2902 15.8555 18 15.146 18 14.2734C18 13.4012 17.2902 12.6914 16.418 12.6914Z" fill="#0084E6"/>
<path d="M1.58203 2.14453C0.709453 2.14453 0 2.85434 0 3.72656C0 4.59914 0.709453 5.30859 1.58203 5.30859C2.45426 5.30859 3.16406 4.59914 3.16406 3.72656C3.16406 2.85434 2.45426 2.14453 1.58203 2.14453Z" fill="#0084E6"/>
<path d="M1.58203 7.41797C0.709453 7.41797 0 8.12777 0 9C0 9.87258 0.709453 10.582 1.58203 10.582C2.45426 10.582 3.16406 9.87258 3.16406 9C3.16406 8.12777 2.45426 7.41797 1.58203 7.41797Z" fill="#0084E6"/>
<path d="M1.58203 12.6914C0.709453 12.6914 0 13.4012 0 14.2734C0 15.146 0.709453 15.8555 1.58203 15.8555C2.45426 15.8555 3.16406 15.146 3.16406 14.2734C3.16406 13.4012 2.45426 12.6914 1.58203 12.6914Z" fill="#0084E6"/>
</svg>
