<svg width="18" height="18" viewBox="0 0 18 18" fill="none" xmlns="http://www.w3.org/2000/svg">
<g>
<path d="M17.6935 4.53591C15.3721 2.09473 12.2846 0.75 9.00001 0.75C5.71543 0.75 2.62791 2.09473 0.306575 4.53591C-0.102151 4.96583 -0.102151 5.66495 0.306575 6.09488L2.03605 7.91347C2.44334 8.34048 3.16267 8.34048 3.56992 7.91347C4.14933 7.30446 4.8064 6.80313 5.52134 6.4252C5.87954 6.24028 6.11101 5.8517 6.10809 5.48477L6.36888 3.51384C8.28219 2.90227 9.7377 2.90265 11.632 3.51349L11.8898 5.43538C11.8898 5.85103 12.1103 6.23044 12.4707 6.42854C13.1886 6.8083 13.8464 7.30966 14.4258 7.91829C14.6287 8.13253 14.9012 8.25009 15.1927 8.25009C15.4843 8.25009 15.7568 8.13253 15.9597 7.91868L17.6935 6.09494C18.1022 5.66491 18.1022 4.96583 17.6935 4.53591Z" fill="#3EA849"/>
<path d="M13.8794 7.74243C13.5528 7.13014 12.9185 6.75 12.2249 6.75H5.77517C5.08157 6.75 4.44728 7.13014 4.12061 7.74243L1.7205 12.2428C1.57621 12.5138 1.50003 12.8188 1.50003 13.125V15.75C1.50003 16.5773 2.17313 17.25 3.00004 17.25H15C15.8269 17.25 16.5 16.5773 16.5 15.75V13.125C16.5 12.8188 16.4239 12.5138 16.2796 12.2424L13.8794 7.74243ZM6.74928 15C6.33546 15 5.99929 14.6635 5.99929 14.25C5.99929 13.8366 6.33549 13.5 6.74928 13.5C7.16311 13.5 7.49927 13.8366 7.49927 14.25C7.4993 14.6635 7.16311 15 6.74928 15ZM6.74928 12.75C6.33546 12.75 5.99929 12.4135 5.99929 12C5.99929 11.5866 6.33549 11.25 6.74928 11.25C7.16311 11.25 7.49927 11.5866 7.49927 12C7.4993 12.4135 7.16311 12.75 6.74928 12.75ZM6.74928 10.5C6.33546 10.5 5.99929 10.1635 5.99929 9.75002C5.99929 9.33659 6.33549 9.00004 6.74928 9.00004C7.16311 9.00004 7.49927 9.33659 7.49927 9.75002C7.4993 10.1635 7.16311 10.5 6.74928 10.5ZM9.00002 15C8.5862 15 8.25003 14.6635 8.25003 14.25C8.25003 13.8366 8.58623 13.5 9.00002 13.5C9.41381 13.5 9.75001 13.8366 9.75001 14.25C9.75001 14.6635 9.41384 15 9.00002 15ZM9.00002 12.75C8.5862 12.75 8.25003 12.4135 8.25003 12C8.25003 11.5866 8.58623 11.25 9.00002 11.25C9.41381 11.25 9.75001 11.5866 9.75001 12C9.75001 12.4135 9.41384 12.75 9.00002 12.75ZM9.00002 10.5C8.5862 10.5 8.25003 10.1635 8.25003 9.75002C8.25003 9.33659 8.58623 9.00004 9.00002 9.00004C9.41381 9.00004 9.75001 9.33659 9.75001 9.75002C9.75001 10.1635 9.41384 10.5 9.00002 10.5ZM11.2493 15C10.8355 15 10.4993 14.6635 10.4993 14.25C10.4993 13.8366 10.8355 13.5 11.2493 13.5C11.6631 13.5 11.9993 13.8366 11.9993 14.25C11.9993 14.6635 11.6631 15 11.2493 15ZM11.2493 12.75C10.8355 12.75 10.4993 12.4135 10.4993 12C10.4993 11.5866 10.8355 11.25 11.2493 11.25C11.6631 11.25 11.9993 11.5866 11.9993 12C11.9993 12.4135 11.6631 12.75 11.2493 12.75ZM11.2493 10.5C10.8355 10.5 10.4993 10.1635 10.4993 9.75002C10.4993 9.33659 10.8355 9.00004 11.2493 9.00004C11.6631 9.00004 11.9993 9.33659 11.9993 9.75002C11.9993 10.1635 11.6631 10.5 11.2493 10.5Z" fill="#3EA849"/>
</g>

</svg>
