<svg width="18" height="18" viewBox="0 0 18 18" fill="none" xmlns="http://www.w3.org/2000/svg">
<g>
<path d="M17.9575 8.78534C17.8709 8.57495 17.665 8.4377 17.4377 8.4377H16.8752C16.8752 4.29295 13.6564 0.886239 9.58923 0.583595C9.26859 0.559969 8.99969 0.829985 8.99969 1.15063V3.41202C8.99969 3.70678 9.23146 3.93292 9.52398 3.9678C11.7595 4.22769 13.5 6.13356 13.5 8.4377H12.9374C12.7102 8.4377 12.5043 8.57495 12.4177 8.78534C12.331 8.99573 12.3794 9.23762 12.5392 9.3985L14.7893 11.6486C14.8996 11.7578 15.0436 11.8129 15.1876 11.8129C15.3316 11.8129 15.4756 11.7578 15.5859 11.6486L17.836 9.3985C17.9958 9.2365 18.0441 8.99573 17.9575 8.78534Z" fill="#3EA849"/>
<path d="M7.7025 1.66814C7.63049 1.54438 7.51123 1.4465 7.36048 1.406L4.28679 0.581322C4.0674 0.522818 3.83339 0.601573 3.695 0.781584C3.55549 0.96272 3.53974 1.20911 3.6545 1.406L3.93577 1.89315C0.346801 3.96553 -0.994281 8.45567 0.777702 12.1301C0.91721 12.4193 1.28511 12.5172 1.563 12.3574L3.52174 11.2267C3.77713 11.0793 3.85701 10.7654 3.74113 10.4954C2.84895 8.42867 3.62862 5.96927 5.6245 4.8172L5.90576 5.30436C6.01827 5.50012 6.23878 5.60925 6.46492 5.58C6.69106 5.54962 6.87557 5.38761 6.9352 5.16822L7.75875 2.09454C7.79925 1.9449 7.7745 1.79189 7.7025 1.66814Z" fill="#3EA849"/>
<path d="M15.2157 13.2079L13.257 12.0773C13.0016 11.9299 12.6899 12.0165 12.5144 12.2539C11.1711 14.0596 8.65093 14.6143 6.65506 13.4622L6.93633 12.9751C7.04996 12.7782 7.03421 12.5318 6.89582 12.3518C6.75744 12.1718 6.5223 12.0919 6.30291 12.1504L3.22923 12.9739C3.07959 13.0144 2.95921 13.1112 2.88721 13.2361C2.8152 13.361 2.79045 13.5128 2.83095 13.6625L3.6545 16.7362C3.71413 16.9555 3.89864 17.1187 4.12478 17.1479C4.35092 17.1783 4.57143 17.0681 4.68507 16.8712L4.96633 16.384C8.5553 18.4564 13.1152 17.3729 15.4115 14.0011C15.5915 13.7356 15.4925 13.3677 15.2157 13.2079Z" fill="#3EA849"/>
</g>

</svg>
