<svg width="24" height="24" viewBox="0 0 24 24" fill="none" xmlns="http://www.w3.org/2000/svg">
<path d="M23.1472 18.9127L19.1971 14.9626C19.9153 13.5262 20.3941 11.8504 20.3941 10.1746C20.3941 4.54863 15.8454 0 10.2195 0C4.59355 0 0.0449219 4.54863 0.0449219 10.1746C0.0449219 15.8005 4.59355 20.3491 10.2195 20.3491C11.8953 20.3491 13.5711 19.8703 15.0075 19.1521L18.9577 23.1022C20.1547 24.2992 21.9502 24.2992 23.1472 23.1022C24.2245 21.9052 24.2245 20.1097 23.1472 18.9127ZM10.2195 17.9551C5.91026 17.9551 2.43894 14.4838 2.43894 10.1746C2.43894 5.86534 5.91026 2.39401 10.2195 2.39401C14.5287 2.39401 18.0001 5.86534 18.0001 10.1746C18.0001 14.4838 14.5287 17.9551 10.2195 17.9551Z" fill="white"/>
</svg>
