<svg width="46" height="46" viewBox="0 0 46 46" fill="none" xmlns="http://www.w3.org/2000/svg">
<rect x="0.00100708" width="46" height="46" rx="8" fill="#03A9F4"/>
<path d="M34.001 15.3677C33.1829 15.7692 32.3111 16.0354 31.4023 16.1646C32.3373 15.54 33.0509 14.5585 33.3864 13.3754C32.5146 13.9569 31.5521 14.3677 30.5264 14.5969C29.6986 13.6108 28.5189 13 27.2319 13C24.7349 13 22.7246 15.2677 22.7246 18.0477C22.7246 18.4477 22.7549 18.8323 22.8291 19.1985C19.0795 18.9938 15.7616 16.9831 13.5328 13.92C13.1436 14.6754 12.9154 15.54 12.9154 16.4708C12.9154 18.2185 13.7198 19.7677 14.9188 20.6646C14.1941 20.6492 13.4833 20.4138 12.881 20.0431C12.881 20.0585 12.881 20.0785 12.881 20.0985C12.881 22.5508 14.4444 24.5877 16.4945 25.0569C16.1274 25.1692 15.7273 25.2231 15.312 25.2231C15.0233 25.2231 14.7318 25.2046 14.4581 25.1369C15.0425 27.1354 16.7008 28.6046 18.6725 28.6523C17.138 29.9954 15.1896 30.8046 13.0804 30.8046C12.7105 30.8046 12.3558 30.7862 12.001 30.7354C13.9989 32.1769 16.3666 33 18.92 33C27.2195 33 31.757 25.3077 31.757 18.64C31.757 18.4169 31.7501 18.2015 31.7405 17.9877C32.6356 17.2769 33.3878 16.3892 34.001 15.3677Z" fill="white"/>
</svg>
