<svg width="47" height="47" viewBox="0 0 47 47" fill="none" xmlns="http://www.w3.org/2000/svg">
<path d="M30.061 0H15.9404C3.05469 0 0 3.05469 0 15.9404V30.061C0 42.9468 3.05469 46.0014 15.9404 46.0014H30.061C42.9467 46.0014 46.0014 42.9468 46.0014 30.061V15.9404C46.0014 3.05469 42.9166 0 30.061 0ZM37.1364 32.8153H33.7971C32.5321 32.8153 32.1425 31.8119 29.8669 29.5061C27.8904 27.5899 27.0149 27.3355 26.5276 27.3355C25.8391 27.3355 25.6436 27.5296 25.6436 28.474V31.4913C25.6436 32.3006 25.3891 32.7865 23.2472 32.7865C19.7052 32.7865 15.7751 30.6446 13.0194 26.6541C8.86363 20.8064 7.72656 16.4263 7.72656 15.5207C7.72656 15.0334 7.92062 14.5777 8.85644 14.5777H12.2029C13.0496 14.5777 13.3716 14.9672 13.7008 15.8729C15.3554 20.6497 18.1111 24.8342 19.2481 24.8342C19.6679 24.8342 19.8619 24.6402 19.8619 23.5693V18.6357C19.734 16.3602 18.5366 16.1647 18.5366 15.3568C18.5366 14.9672 18.8586 14.5777 19.3746 14.5777H24.6373C25.3489 14.5777 25.6105 14.9672 25.6105 15.8053V22.4609C25.6105 23.1797 25.9325 23.4341 26.1266 23.4341C26.5463 23.4341 26.9057 23.1797 27.6834 22.4006C30.0869 19.7052 31.809 15.5494 31.809 15.5494C32.0332 15.0621 32.4228 14.6064 33.2695 14.6064H36.616C37.6194 14.6064 37.8436 15.1225 37.6194 15.8413C37.1996 17.7876 33.1042 23.5678 33.1042 23.5678C32.752 24.1514 32.6169 24.4059 33.1042 25.0571C33.4636 25.5444 34.6322 26.5549 35.4099 27.4606C36.8402 29.0849 37.9399 30.4477 38.2332 31.3907C38.5624 32.3265 38.0765 32.8138 37.1321 32.8138L37.1364 32.8153Z" fill="#2787F5"/>
</svg>
