<svg width="20" height="12" viewBox="0 0 20 12" fill="none" xmlns="http://www.w3.org/2000/svg">
<path d="M17.2129 7.53743C17.8763 8.18515 18.5765 8.79456 19.1715 9.5076C19.4344 9.82446 19.6832 10.1514 19.8736 10.5192C20.1433 11.0419 19.899 11.6171 19.4303 11.6484L16.5166 11.647C15.7652 11.7094 15.1657 11.4069 14.6616 10.8931C14.2582 10.4822 13.8846 10.0449 13.4967 9.6201C13.3377 9.44649 13.1713 9.28313 12.9724 9.154C12.5747 8.89582 12.2294 8.97487 12.0021 9.38971C11.7706 9.81165 11.7181 10.2789 11.6954 10.7491C11.6642 11.4352 11.4568 11.6156 10.7676 11.647C9.29473 11.7164 7.89691 11.4936 6.59838 10.7506C5.45355 10.0956 4.56579 9.17089 3.79308 8.12404C2.28861 6.0856 1.13649 3.84568 0.101007 1.54302C-0.132072 1.02422 0.0383835 0.745736 0.610798 0.735879C1.56132 0.717414 2.5117 0.718728 3.46334 0.734565C3.84966 0.740216 4.10541 0.961795 4.25458 1.32676C4.76884 2.59125 5.39809 3.7943 6.18794 4.90942C6.39829 5.20631 6.61277 5.50319 6.9182 5.71216C7.25609 5.94353 7.51335 5.86684 7.6723 5.49045C7.77317 5.25178 7.81733 4.99472 7.84007 4.7391C7.91537 3.85968 7.92529 2.98177 7.79321 2.10544C7.71213 1.55852 7.40407 1.20447 6.85833 1.10097C6.57985 1.04821 6.62131 0.944579 6.75615 0.785623C6.99035 0.511474 7.21061 0.34082 7.6497 0.34082H10.9426C11.461 0.443133 11.5761 0.676016 11.6471 1.19763L11.6499 4.85534C11.6442 5.05727 11.7508 5.6565 12.1145 5.79016C12.4056 5.88531 12.5975 5.65243 12.7721 5.46784C13.5605 4.63107 14.1232 3.64217 14.6259 2.61819C14.849 2.16793 15.0408 1.70033 15.2267 1.23312C15.3644 0.886424 15.5806 0.715837 15.9711 0.723394L19.1403 0.726219C19.2343 0.726219 19.3294 0.727599 19.4204 0.743173C19.9544 0.834184 20.1007 1.06391 19.9358 1.5854C19.6759 2.40358 19.1703 3.0854 18.6759 3.77038C18.1473 4.50168 17.5821 5.20795 17.058 5.94359C16.5764 6.61536 16.6147 6.95398 17.2129 7.53743Z" fill="#2787F5"/>
</svg>
