<svg width="26" height="16" viewBox="0 0 26 16" fill="none" xmlns="http://www.w3.org/2000/svg">
<path d="M18.3182 8.86364C21.0294 8.86364 26 9.87663 26 13.9286C26 15.7013 25.5481 15.9545 24.6444 15.9545L17.4469 15.9555C17.6336 15.3775 17.7273 14.6996 17.7273 13.9286C17.7273 11.8925 16.9811 10.3042 15.7515 9.12823C16.6769 8.93851 17.5811 8.86364 18.3182 8.86364ZM7.68182 8.86364C10.393 8.86364 15.3636 9.87663 15.3636 13.9286C15.3636 15.7013 14.9118 15.9545 14.008 15.9545H1.35561C0.451872 15.9545 0 15.7013 0 13.9286C0 9.87663 4.97059 8.86364 7.68182 8.86364ZM7.68182 0C9.64068 0 11.2273 1.58659 11.2273 3.54545C11.2273 5.50432 9.64068 7.09091 7.68182 7.09091C5.72295 7.09091 4.13636 5.50432 4.13636 3.54545C4.13636 1.58659 5.72295 0 7.68182 0ZM18.3182 0C20.277 0 21.8636 1.58659 21.8636 3.54545C21.8636 5.50432 20.277 7.09091 18.3182 7.09091C16.3593 7.09091 14.7727 5.50432 14.7727 3.54545C14.7727 1.58659 16.3593 0 18.3182 0Z" fill="white"/>
</svg>
