<svg width="17" height="16" viewBox="0 0 17 16" fill="none" xmlns="http://www.w3.org/2000/svg">
<path fill-rule="evenodd" clip-rule="evenodd" d="M15.3351 5.84246C15.3765 5.96719 15.7074 6.23041 15.9062 6.3882L15.9074 6.38914C16.394 6.77692 17 7.25978 17 7.99717C17 8.74138 16.3853 9.23888 15.8908 9.63855L15.8807 9.64674C15.685 9.80533 15.368 10.0623 15.3266 10.1795C15.2881 10.3033 15.3944 10.7146 15.4583 10.9621L15.4587 10.9636C15.6224 11.5969 15.8078 12.3156 15.3758 12.8965C14.9474 13.4734 14.2021 13.5233 13.5441 13.5674L13.5401 13.5676C13.276 13.5848 12.8341 13.6138 12.7224 13.6944C12.6105 13.7751 12.4482 14.1663 12.348 14.408L12.3431 14.42L12.3416 14.4235C12.094 15.0221 11.8141 15.6986 11.1284 15.9276C10.4328 16.1613 9.77694 15.7521 9.25082 15.4239L9.24641 15.4212C9.00894 15.2723 8.64928 15.0477 8.49963 15.0477C8.34806 15.0477 7.98859 15.2705 7.74627 15.4207L7.73882 15.4253L7.73012 15.4307C7.29262 15.7008 6.80804 16 6.28323 16C6.14975 16 6.01275 15.9807 5.87436 15.9359C5.1848 15.7176 4.90305 15.0345 4.65444 14.4318L4.65412 14.431L4.65382 14.4303C4.55335 14.187 4.38636 13.7825 4.27547 13.7033C4.16793 13.6265 3.75507 13.5983 3.49241 13.5803L3.46757 13.5786L3.46605 13.5785C2.83897 13.5371 2.06009 13.4858 1.61716 12.9116C1.16321 12.3211 1.36236 11.5698 1.52243 10.9659L1.52303 10.9636C1.58907 10.7176 1.69864 10.3055 1.6565 10.1788C1.61364 10.0506 1.29681 9.79217 1.08677 9.62129C0.602769 9.22716 0 8.73584 0 7.99649C0 7.25296 0.613571 6.7564 1.10727 6.35685L1.10862 6.35576L1.11253 6.3526C1.30826 6.19447 1.63158 5.93325 1.67344 5.81484C1.71208 5.69237 1.60708 5.2874 1.54208 5.03666L1.53857 5.02312C1.37418 4.39538 1.18804 3.68426 1.60321 3.10752C2.02586 2.52082 2.77758 2.47089 3.44115 2.42681L3.44237 2.42673C3.70793 2.4095 4.15262 2.38055 4.26361 2.29994C4.37654 2.21855 4.54073 1.82156 4.6407 1.57983L4.64296 1.57437L4.64561 1.56797C4.89295 0.971422 5.17298 0.296047 5.85829 0.0673926C6.55729 -0.165532 7.22045 0.253419 7.75084 0.591765L7.75463 0.594181C7.99489 0.747153 8.35365 0.975575 8.4997 0.975575C8.65085 0.975575 9.00939 0.754004 9.25241 0.603823L9.26191 0.597953L9.26238 0.597659C9.81374 0.255281 10.4402 -0.133748 11.1257 0.0859887C11.8148 0.303736 12.0972 0.9873 12.3452 1.59023C12.4457 1.83347 12.6136 2.23933 12.7253 2.31857C12.833 2.39529 13.2523 2.42405 13.5147 2.44204L13.5332 2.4433L13.5348 2.44341C14.1639 2.48475 14.9463 2.53616 15.3814 3.11791C15.8188 3.70387 15.6241 4.44811 15.4675 5.04668L15.4671 5.04797C15.4018 5.29604 15.2929 5.71291 15.3351 5.84246Z" fill="#3EA849"/>
<path d="M11.6413 5.40077C11.342 5.15547 10.9001 5.19543 10.6522 5.48691L7.5197 9.16032L6.18703 7.85387C5.91234 7.58443 5.46834 7.58443 5.19369 7.85387C4.919 8.1233 4.919 8.55879 5.19369 8.82819L7.0694 10.668C7.20075 10.7982 7.37991 10.8699 7.56608 10.8699C7.57591 10.8699 7.58647 10.8699 7.5963 10.8685C7.79439 10.8603 7.97777 10.7707 8.10421 10.6225L11.7291 6.37096C11.9778 6.07883 11.9392 5.6447 11.6413 5.40077Z" fill="white"/>
</svg>
