<svg width="18" height="18" viewBox="0 0 18 18" fill="none" xmlns="http://www.w3.org/2000/svg">
<path d="M4.20698 3.64977L11.3827 1.69109L11.0027 0.922984C10.7541 0.423714 10.1477 0.217538 9.64842 0.466162L3.22461 3.64977H4.20698Z" fill="#66B5F0"/>
<path d="M13.6088 1.74768C13.5198 1.74768 13.4309 1.75981 13.342 1.78406L11.6562 2.24493L6.50781 3.64975H12.3515H14.8984L14.5831 2.49355C14.4618 2.04279 14.0535 1.74768 13.6088 1.74768Z" fill="#66B5F0"/>
<path d="M15.9524 4.35724H15.722H15.4086H15.0953H12.7041H3.91735H2.76519H1.79495H1.61505H1.01269C0.693318 4.35724 0.40831 4.5048 0.222347 4.73725C0.137451 4.84438 0.0727681 4.96768 0.0363841 5.10311C0.0141494 5.18801 0 5.27695 0 5.36791V5.48919V6.64135V16.6288C0 17.1867 0.452779 17.6394 1.01067 17.6394H15.9504C16.5083 17.6394 16.961 17.1867 16.961 16.6288V13.809H10.9637C10.0157 13.809 9.24559 13.0389 9.24559 12.0909V11.1651V10.8518V10.5385V9.84315C9.24559 9.37824 9.43154 8.9558 9.73273 8.64653C9.99955 8.37161 10.3573 8.18565 10.7576 8.13916C10.8243 8.13109 10.893 8.12703 10.9617 8.12703H16.1202H16.4335H16.7468H16.961V5.36791C16.9631 4.81002 16.5103 4.35724 15.9524 4.35724Z" fill="#66B5F0"/>
<path d="M17.6706 9.09321C17.5695 9.00022 17.4502 8.92948 17.3168 8.88299C17.2137 8.84864 17.1046 8.82843 16.9894 8.82843H16.9631H16.9429H16.6296H15.4997H10.9638C10.4059 8.82843 9.95312 9.28119 9.95312 9.8391V10.3424V10.6557V10.969V12.0888C9.95312 12.6467 10.4059 13.0995 10.9638 13.0995H16.9631H16.9894C17.1046 13.0995 17.2137 13.0793 17.3168 13.0449C17.4502 13.0004 17.5695 12.9277 17.6706 12.8347C17.8727 12.6508 18 12.3839 18 12.0888V9.8391C18 9.54396 17.8727 9.27713 17.6706 9.09321ZM13.0741 11.1651C13.0741 11.444 12.8477 11.6704 12.5687 11.6704H12.2332C11.9542 11.6704 11.7279 11.444 11.7279 11.1651V10.8295C11.7279 10.6678 11.8026 10.5243 11.9219 10.4333C12.0088 10.3666 12.116 10.3242 12.2332 10.3242H12.3181H12.5687C12.8477 10.3242 13.0741 10.5506 13.0741 10.8295V11.1651Z" fill="#66B5F0"/>
</svg>
