<svg width="32" height="22" viewBox="0 0 32 22" fill="none" xmlns="http://www.w3.org/2000/svg">
<path d="M31.2938 3.44507C31.1103 2.7792 30.7522 2.17214 30.2553 1.68435C29.7584 1.19656 29.1401 0.845054 28.4618 0.664841C25.9785 0 15.984 0 15.984 0C15.984 0 5.98913 0.0201243 3.50583 0.684965C2.82751 0.865189 2.20912 1.21671 1.71223 1.70452C1.21535 2.19234 0.857316 2.79942 0.673785 3.46532C-0.0773523 7.79673 -0.368732 14.3968 0.694411 18.5549C0.877961 19.2208 1.236 19.8279 1.73288 20.3157C2.22977 20.8034 2.84815 21.1549 3.52646 21.3352C6.00975 22 16.0044 22 16.0044 22C16.0044 22 25.999 22 28.4821 21.3352C29.1605 21.155 29.7789 20.8035 30.2758 20.3157C30.7727 19.8279 31.1307 19.2208 31.3143 18.5549C32.1066 14.2174 32.3507 7.6215 31.2938 3.4452V3.44507Z" fill="#FF0000"/>
<path d="M13 16L21 11L13.0001 6L13 16Z" fill="white"/>
</svg>
