<svg width="94" height="94" viewBox="0 0 94 94" fill="none" xmlns="http://www.w3.org/2000/svg">
  <g>
    <path d="M80.1809 94H50.6976C49.6821 94 48.7491 93.4412 48.2697 92.546C47.7904 91.6507 47.8427 90.5644 48.4056 89.7193L58.2086 75.0045L48.7447 65.5406C47.6694 64.4653 47.6692 62.7219 48.7443 61.6464L57.8574 52.5304L48.7447 43.4177C47.6694 42.3424 47.6692 40.599 48.7443 39.5235L57.8574 30.4075L48.7447 21.2949C48.007 20.5574 47.7496 19.4665 48.0793 18.4769L53.6092 1.88369C53.9068 0.99069 54.6399 0.311577 55.5531 0.0830028C56.4653 -0.145571 57.4327 0.107788 58.116 0.755507L93.1365 33.9401C93.9548 34.7156 94.2181 35.9113 93.8006 36.9585C93.3831 38.0058 92.3697 38.693 91.2422 38.693H82.9346V91.2461C82.9348 92.767 81.7018 94 80.1809 94Z" fill="#FFCF64" />
    <path d="M66.7671 8.95239V94H80.181C81.7019 94 82.9349 92.767 82.9349 91.2461V38.6924H91.2425C92.37 38.6924 93.3834 38.0052 93.8009 36.958C94.2184 35.9107 93.9551 34.7148 93.1368 33.9395L66.7671 8.95239Z" fill="#FEA72B" />
    <path d="M32.2552 94.0004H13.8206C12.2997 94.0004 11.0667 92.7674 11.0667 91.2465V38.6928H2.75908C1.63163 38.6928 0.61819 38.0056 0.200698 36.9584C-0.216794 35.9111 0.0464795 34.7152 0.864757 33.9399L35.8853 0.755332C36.8023 -0.113617 38.1932 -0.246906 39.2586 0.431289C40.3244 1.10985 40.7916 2.4264 40.3921 3.62509L35.4004 18.6036L45.2568 28.46C46.3321 29.5353 46.3323 31.2787 45.2572 32.3542L36.1441 41.4702L45.2568 50.5829C46.3321 51.6582 46.3323 53.4016 45.2572 54.4771L36.1441 63.593L45.2568 72.7057C46.1849 73.6338 46.329 75.0877 45.6014 76.1799L34.5472 92.7731C34.0365 93.5399 33.1762 94.0004 32.2552 94.0004Z" fill="#FFCF64" />
    <path d="M45.2553 28.4596L35.3989 18.6032L40.3906 3.62468C40.7901 2.42618 40.3229 1.10944 39.2571 0.430878C38.1917 -0.247501 36.8008 -0.114028 35.8838 0.754921L25.5195 10.5761V94H32.2539C33.175 94 34.0352 93.5395 34.5457 92.7728L45.5999 76.1796C46.3275 75.0874 46.1834 73.6336 45.2553 72.7055L36.1426 63.5928L45.2557 54.4768C46.3308 53.4013 46.3306 51.6579 45.2553 50.5826L36.1426 41.47L45.2557 32.354C46.331 31.2783 46.3308 29.5349 45.2553 28.4596Z" fill="#FEA72B" />
  </g>

</svg>